<svg xmlns="http://www.w3.org/2000/svg" width="500" height="500" version="1.0" viewBox="0 0 375 375"><defs><clipPath id="a"><path d="M18.887 18.887h337.5v337.5h-337.5Zm0 0"/></clipPath></defs><g clip-path="url(#a)"><path fill="#6a737d" fill-rule="evenodd" d="M233.762 330.102c-8.125 0-14.703-6.61-14.703-14.778 0-8.176 6.578-14.762 14.703-14.762 8.129 0 14.703 6.586 14.703 14.762 0 8.168-6.574 14.778-14.703 14.778m-45.051 26c85.617 0 80.273-37.32 80.273-37.32l-.101-38.66H187.19v-11.61h114.133s54.781 6.25 54.781-80.574c0-86.833-47.8-83.77-47.8-83.77h-28.547v40.305s1.535 48.047-47.04 48.047h-81.034s-45.524-.723-45.524 44.246v74.336s-6.914 45 82.55 45m-47.464-311.22c8.129 0 14.688 6.61 14.688 14.778 0 8.176-6.559 14.762-14.688 14.762-8.125 0-14.703-6.586-14.703-14.762 0-8.168 6.578-14.777 14.703-14.777m45.035-26c-85.601 0-80.258 37.32-80.258 37.32l.102 38.66h81.691v11.61H73.668s-54.781-6.25-54.781 80.574c0 86.832 47.816 83.77 47.816 83.77h28.531v-40.31s-1.535-48.046 47.059-48.046h81.016s45.523.723 45.523-44.242V63.883s6.914-45-82.55-45"/></g></svg>