<svg xmlns="http://www.w3.org/2000/svg" width="500" height="500" version="1.0" viewBox="0 0 375 375"><defs><clipPath id="a"><path d="M18.066 18.066H357V357H18.066Zm0 0"/></clipPath></defs><g clip-path="url(#a)"><path fill="#6a737d" d="M18.066 293.559q-.001 26.43 18.637 44.73 18.64 18.298 45.07 18.637 26.434.34 44.727-18.637 18.3-18.978 18.64-44.73V272.21h84.715v21.348q0 26.43 18.973 45.07 18.979 18.635 44.73 18.297 26.092.001 44.731-18.637 18.638-18.639 18.637-44.73.001-26.093-18.637-45.067-18.639-18.977-44.73-18.637H272.21v-84.714h21.348q26.091-.001 44.73-18.641 18.638-18.634 18.637-44.727.001-26.092-18.637-45.07-18.639-18.974-44.73-18.637-26.093.34-45.067 18.637-18.977 18.3-18.637 45.07 0 10.501 4.067 21.008H141.41q3.729-10.843 3.73-21.008 0-26.43-18.64-45.07-18.634-18.638-44.727-18.637-26.092-.001-45.07 18.637-18.974 18.64-18.637 45.07c.227 17.622 6.438 32.528 18.637 44.727q18.3 18.3 45.07 18.64h21.008v84.715H81.773q-26.77 0-45.07 18.973-18.298 18.979-18.637 44.73m42.36 0q-.001-8.81 6.097-14.91 6.1-6.1 15.25-6.438c6.098-.227 11.067 1.922 14.91 6.437q5.76 6.78 6.098 14.91c.227 5.422-1.808 10.391-6.097 14.91-4.293 4.52-9.266 6.552-14.91 6.102q-8.472-.68-15.25-6.101t-6.098-14.91m0-211.786q-.001-8.811 6.097-14.91c4.067-4.066 9.149-6.215 15.25-6.437q9.146-.341 14.91 6.437c3.84 4.516 5.872 9.489 6.098 14.91.227 5.422-1.808 10.391-6.097 14.91-4.293 4.516-9.266 6.551-14.91 6.098q-8.472-.679-15.25-6.097-6.779-5.425-6.098-14.91m84.715 148.082v-84.714h84.714v84.714Zm127.07 63.704q.001-8.81 6.101-14.91t15.247-6.438c6.101-.227 11.07 1.922 14.91 6.437q5.761 6.78 6.101 14.91c.223 5.422-1.808 10.391-6.101 14.91q-6.439 6.779-14.91 6.102-8.473-.68-15.247-6.101-6.78-5.422-6.101-14.91m0-211.786q.001-8.811 6.101-14.91c4.067-4.066 9.149-6.215 15.247-6.437q9.15-.341 14.91 6.437c3.84 4.516 5.875 9.489 6.101 14.91.223 5.422-1.808 10.391-6.101 14.91q-6.439 6.776-14.91 6.098-8.473-.679-15.247-6.097-6.78-5.425-6.101-14.91m0 0"/></g></svg>