<svg xmlns="http://www.w3.org/2000/svg" width="500" height="500" version="1.0" viewBox="0 0 375 375"><defs><clipPath id="a"><path d="M14 12.465h347v350.25H14Zm0 0"/></clipPath></defs><g clip-path="url(#a)"><path fill="#6a737d" d="M337.465 155.715a88 88 0 0 0 2.453-8.945 87.368 87.368 0 0 0 .063-36.844 88 88 0 0 0-2.422-8.953 87.827 87.827 0 0 0-7.613-16.887 88 88 0 0 0-7.844-11.457 88 88 0 0 0-4.57-5.227 87.865 87.865 0 0 0-10.305-9.3 88 88 0 0 0-5.668-4.016 90 90 0 0 0-5.97-3.555 89 89 0 0 0-6.226-3.074 88.4 88.4 0 0 0-13.086-4.633 87 87 0 0 0-6.773-1.527 87 87 0 0 0-6.875-.992 88 88 0 0 0-6.934-.45 88 88 0 0 0-6.945.098 89 89 0 0 0-6.914.645 90 90 0 0 0-6.844 1.187 88 88 0 0 0-4.008-4.176 88 88 0 0 0-4.27-3.902 88.81 88.81 0 0 0-19.352-12.59 90 90 0 0 0-5.3-2.324 88.584 88.584 0 0 0-16.648-4.832 88 88 0 0 0-5.719-.871 87 87 0 0 0-5.765-.5 89 89 0 0 0-5.785-.121c-1.93.023-3.86.11-5.782.261q-2.888.223-5.754.633a91 91 0 0 0-5.695 1.012q-2.834.598-5.621 1.383a88 88 0 0 0-10.91 3.847 87 87 0 0 0-10.313 5.239 86 86 0 0 0-4.875 3.113 85 85 0 0 0-4.664 3.426 86 86 0 0 0-4.43 3.722 88 88 0 0 0-11.703 12.79 88.683 88.683 0 0 0-6.316 9.691 90 90 0 0 0-2.668 5.137 90 90 0 0 0-2.328 5.297 90 90 0 0 0-1.973 5.44 87 87 0 0 0-8.976 2.345 87 87 0 0 0-16.957 7.468 87 87 0 0 0-7.79 5.04 87.305 87.305 0 0 0-19.574 19.64 88 88 0 0 0-5.015 7.805 91 91 0 0 0-3.258 6.144 88.791 88.791 0 0 0-5.016 12.965 88 88 0 0 0-1.722 6.738 89 89 0 0 0-1.192 6.856 90 90 0 0 0-.644 6.926 88 88 0 0 0-.098 6.953 88 88 0 0 0 1.445 13.824 87.708 87.708 0 0 0 3.602 13.43 90 90 0 0 0 2.582 6.457 89 89 0 0 0 6.648 12.207 88 88 0 0 0 4.028 5.672 88 88 0 0 0 4.457 5.34 89 89 0 0 0-2.461 8.94 87 87 0 0 0-1.496 9.153 86 86 0 0 0-.52 9.262 87.3 87.3 0 0 0 1.918 18.422 86 86 0 0 0 2.414 8.957 87 87 0 0 0 3.348 8.648 87 87 0 0 0 4.254 8.243 87 87 0 0 0 3.695 5.886 90 90 0 0 0 4.153 5.574 89 89 0 0 0 4.574 5.23 88 88 0 0 0 4.976 4.853 88.443 88.443 0 0 0 11.012 8.465 88.4 88.4 0 0 0 18.66 9.202 89 89 0 0 0 6.64 2.06 87 87 0 0 0 6.778 1.526q3.421.634 6.879.993a87.5 87.5 0 0 0 13.887.347 89 89 0 0 0 6.918-.644 88 88 0 0 0 6.847-1.192 86.983 86.983 0 0 0 21.46 17.54 87.3 87.3 0 0 0 16.915 7.546 87.5 87.5 0 0 0 27.387 4.246c2.324 0 4.64-.09 6.957-.27a88 88 0 0 0 6.914-.816 88.405 88.405 0 0 0 26.375-8.574 87 87 0 0 0 6.07-3.41 87 87 0 0 0 5.782-3.871 88.641 88.641 0 0 0 10.566-9.055 88.5 88.5 0 0 0 16.242-22.48 88.351 88.351 0 0 0 5.281-12.871 87.333 87.333 0 0 0 47.477-27.27 87 87 0 0 0 5.817-7.226 86 86 0 0 0 5.015-7.805 87 87 0 0 0 3.219-6.133 87.524 87.524 0 0 0 4.95-12.934 90 90 0 0 0 1.698-6.714 90 90 0 0 0 1.168-6.828 91 91 0 0 0 .63-6.903q.174-3.462.085-6.926a89 89 0 0 0-.457-6.914 88.913 88.913 0 0 0-2.531-13.613 87 87 0 0 0-2.059-6.613 88 88 0 0 0-5.632-12.649 88 88 0 0 0-7.543-11.609 88 88 0 0 0-4.43-5.328M205.87 339.613a65 65 0 0 1-11.328-.972 64.7 64.7 0 0 1-10.984-2.922 65 65 0 0 1-10.317-4.785 65 65 0 0 1-9.324-6.5l2.07-1.172 69.696-40.23a11.7 11.7 0 0 0 2.363-1.837 11.6 11.6 0 0 0 1.816-2.375q.751-1.306 1.145-2.765.394-1.455.402-2.961v-98.266l29.465 17.047q.468.235.555.758v81.426a68 68 0 0 1-.086 3.214 68 68 0 0 1-.242 3.207 68 68 0 0 1-.957 6.36 66 66 0 0 1-.707 3.137 66 66 0 0 1-3.036 9.148 68 68 0 0 1-1.308 2.938 62 62 0 0 1-1.45 2.87 64 64 0 0 1-1.585 2.797 61 61 0 0 1-1.723 2.715q-.89 1.341-1.852 2.63a66 66 0 0 1-4.082 4.968 63 63 0 0 1-4.547 4.547 65.812 65.812 0 0 1-10.312 7.656 65.799 65.799 0 0 1-11.605 5.504c-1.008.36-2.028.7-3.051 1.012a66 66 0 0 1-3.098.86c-1.039.26-2.086.5-3.137.71-1.05.211-2.109.395-3.168.555q-1.593.24-3.191.398c-1.066.11-2.137.188-3.207.242q-1.604.084-3.215.086m-140.91-60.172a65 65 0 0 1-4.82-10.304 65.2 65.2 0 0 1-3.961-22.32c0-3.805.324-7.583.984-11.333l2.07 1.243L129 276.957q1.294.76 2.742 1.152c.965.266 1.95.395 2.95.395q1.5.002 2.949-.395a11 11 0 0 0 2.746-1.152l85.222-49.133v34.02q-.029.567-.484.898l-70.594 40.715a64 64 0 0 1-2.828 1.535c-.953.492-1.922.957-2.898 1.399a66 66 0 0 1-5.985 2.359q-1.522.517-3.074.957a66 66 0 0 1-6.266 1.457 66 66 0 0 1-6.378.836 68 68 0 0 1-3.211.184 63 63 0 0 1-3.22.023 68 68 0 0 1-3.214-.133 68 68 0 0 1-3.203-.289 67 67 0 0 1-6.348-1.05 66.285 66.285 0 0 1-6.215-1.664 65 65 0 0 1-3.039-1.063 59 59 0 0 1-2.98-1.207 62 62 0 0 1-2.922-1.352q-1.44-.71-2.852-1.492a66 66 0 0 1-8.062-5.293 62 62 0 0 1-2.504-2.02 60 60 0 0 1-2.402-2.14 63 63 0 0 1-2.297-2.254 63 63 0 0 1-2.18-2.367 65.7 65.7 0 0 1-7.492-10.442M46.605 127.63a65.4 65.4 0 0 1 14.704-17.442 65.5 65.5 0 0 1 9.402-6.539 66 66 0 0 1 10.398-4.796v82.808q-.018 1.5.356 2.953.381 1.453 1.125 2.754a11 11 0 0 0 1.808 2.36q1.066 1.061 2.368 1.8l84.808 48.926-29.465 17.043a1.04 1.04 0 0 1-1.035 0l-70.453-40.644a61 61 0 0 1-2.742-1.68 64.99 64.99 0 0 1-5.223-3.754 66 66 0 0 1-2.468-2.063 65.822 65.822 0 0 1-12.43-14.68 65.761 65.761 0 0 1-5.68-11.523 68 68 0 0 1-1.058-3.039 64 64 0 0 1-.907-3.086 66 66 0 0 1-.758-3.125 66.3 66.3 0 0 1-1.476-12.761 68 68 0 0 1 .207-6.43q.13-1.605.34-3.2.204-1.592.492-3.179a66 66 0 0 1 .648-3.148 66 66 0 0 1 2.864-9.211q.586-1.496 1.25-2.961a64 64 0 0 1 1.394-2.899c.489-.957.996-1.898 1.531-2.828Zm242.075 56.238-85.086-49.406 29.398-16.98c.344-.18.692-.18 1.035 0l70.453 40.714a65 65 0 0 1 7.672 5.184 65 65 0 0 1 6.868 6.21 65 65 0 0 1 5.921 7.114 66 66 0 0 1 4.86 7.879 66 66 0 0 1 3.703 8.488 65 65 0 0 1 2.469 8.922 65.4 65.4 0 0 1-.348 27.586 65.4 65.4 0 0 1-6.61 17.246 65.3 65.3 0 0 1-11.156 14.719 65.687 65.687 0 0 1-14.82 11.023 65.5 65.5 0 0 1-8.426 3.836v-82.804a11.54 11.54 0 0 0-1.68-5.653 11.509 11.509 0 0 0-4.258-4.078Zm29.328-44.094-2.07-1.242-69.63-40.574a11.1 11.1 0 0 0-2.757-1.16 11.2 11.2 0 0 0-2.969-.399q-1.51 0-2.969.399-1.457.392-2.758 1.16l-85.152 49.129V113.07q-.06-.574.414-.898l70.453-40.645a65.862 65.862 0 0 1 17.18-6.887 66 66 0 0 1 9.145-1.558 65 65 0 0 1 9.27-.254q4.646.199 9.218 1.055a64.6 64.6 0 0 1 8.972 2.344 65 65 0 0 1 8.555 3.585 65.486 65.486 0 0 1 15.18 10.586 66 66 0 0 1 6.32 6.79 66 66 0 0 1 5.297 7.617 65 65 0 0 1 4.176 8.285 65.667 65.667 0 0 1 4.656 17.91q.521 4.618.39 9.266a66 66 0 0 1-.921 9.23ZM133.62 200.082l-29.465-16.977a1.1 1.1 0 0 1-.55-.824v-81.218q.006-4.652.664-9.25a66 66 0 0 1 1.964-9.067 66 66 0 0 1 3.227-8.695 65.488 65.488 0 0 1 9.938-15.605 65 65 0 0 1 6.519-6.602 66 66 0 0 1 7.383-5.614 65.401 65.401 0 0 1 16.754-7.844 66 66 0 0 1 9.039-2.077 65.526 65.526 0 0 1 18.504-.25 65.5 65.5 0 0 1 17.836 4.921 65.39 65.39 0 0 1 15.75 9.707l-2.07 1.172-69.696 40.23a11.54 11.54 0 0 0-4.176 4.212q-.756 1.304-1.148 2.761a11.5 11.5 0 0 0-.403 2.965Zm16.012-34.5 37.949-21.879 38.027 21.879v43.746l-37.886 21.875-38.02-21.875Zm0 0"/></g></svg>