<svg xmlns="http://www.w3.org/2000/svg" width="500" viewBox="0 0 375 375" height="500" version="1.0"><path fill="#6a737d" d="M187.5 350.988a164.234 164.234 0 0 1-16.188-.664 163.757 163.757 0 0 1-23.964-3.988c-2.625-.64-5.23-1.348-7.82-2.117a162.666 162.666 0 0 1-15.286-5.38 164.726 164.726 0 0 1-7.422-3.25 164.99 164.99 0 0 1-14.32-7.585 166.842 166.842 0 0 1-6.86-4.317 165.612 165.612 0 0 1-6.636-4.648 166.839 166.839 0 0 1-6.399-4.973 164.61 164.61 0 0 1-12.02-10.867 161.728 161.728 0 0 1-5.589-5.867c-1.816-2-3.582-4.047-5.293-6.133a166.89 166.89 0 0 1-4.984-6.39 159.206 159.206 0 0 1-4.66-6.633 161.698 161.698 0 0 1-8.309-13.91c-1.27-2.387-2.477-4.801-3.625-7.246a160.513 160.513 0 0 1-3.266-7.418 163.986 163.986 0 0 1-7.53-23.094 162.996 162.996 0 0 1-4.574-32.043c-.118-2.7-.165-5.399-.146-8.102a164.852 164.852 0 0 1 .914-16.175 158.57 158.57 0 0 1 1.059-8.036c.418-2.672.902-5.328 1.453-7.972a165.08 165.08 0 0 1 4.082-15.68 164.06 164.06 0 0 1 12.707-29.766 164.388 164.388 0 0 1 4.082-7.004 161.642 161.642 0 0 1 9.172-13.355 161.013 161.013 0 0 1 5.07-6.324 164.646 164.646 0 0 1 5.38-6.063c1.84-1.972 3.73-3.902 5.671-5.785a161.43 161.43 0 0 1 5.95-5.5 161.023 161.023 0 0 1 6.218-5.2 160.053 160.053 0 0 1 6.465-4.882c2.2-1.574 4.43-3.094 6.703-4.559a160.17 160.17 0 0 1 6.918-4.218 162.703 162.703 0 0 1 21.89-10.535c2.512-.989 5.052-1.914 7.614-2.774 2.559-.863 5.14-1.66 7.742-2.394a165.092 165.092 0 0 1 7.852-2.008 162.39 162.39 0 0 1 15.953-2.836 163.753 163.753 0 0 1 24.258-1.262c2.66.043 5.316.152 7.968.328 2.653.172 5.301.41 7.942.715a161.88 161.88 0 0 1 15.734 2.59c2.598.559 5.184 1.18 7.75 1.863a163.413 163.413 0 0 1 36.902 14.852 162.954 162.954 0 0 1 37.934 28.887 163.38 163.38 0 0 1 10.574 11.937 169.533 169.533 0 0 1 4.836 6.34 164.273 164.273 0 0 1 8.715 13.348 159.72 159.72 0 0 1 3.86 6.98 161.765 161.765 0 0 1 3.515 7.156 166.012 166.012 0 0 1 3.164 7.32 165.11 165.11 0 0 1 2.801 7.47 161.877 161.877 0 0 1 2.434 7.593c.75 2.55 1.437 5.117 2.062 7.703a166.651 166.651 0 0 1 1.68 7.793c.5 2.613.933 5.235 1.3 7.871.372 2.633.676 5.274.919 7.922.238 2.645.414 5.297.527 7.957.11 2.656.156 5.313.14 7.973-.019 2.656-.101 5.316-.25 7.969a163.818 163.818 0 0 1-.64 7.949 163.342 163.342 0 0 1-4.223 23.527 162.01 162.01 0 0 1-2.168 7.676 161.887 161.887 0 0 1-2.539 7.559 161.436 161.436 0 0 1-6.168 14.703 163.965 163.965 0 0 1-11.86 20.758 167.202 167.202 0 0 1-4.608 6.503 162.893 162.893 0 0 1-10.148 12.297 166.975 166.975 0 0 1-5.513 5.766 162.998 162.998 0 0 1-24.648 20.168 165.872 165.872 0 0 1-6.742 4.265 164.095 164.095 0 0 1-21.352 10.746 164.973 164.973 0 0 1-15.008 5.383 163.256 163.256 0 0 1-7.683 2.133 160.896 160.896 0 0 1-15.633 3.137 162.725 162.725 0 0 1-15.863 1.598c-2.657.14-5.313.21-7.973.218Zm-26.027-153.867c1.172 1.172 1.172 1.172 2.261 1.172 23.766 19.195 47.52 37.254 70.149 56.531a128.077 128.077 0 0 0 14.707 11.309c.406.281.828.535 1.265.762.438.23.887.43 1.352.597.461.172.934.313 1.414.422.48.11.969.188 1.457.234.492.047.984.067 1.477.051.496-.015.984-.062 1.472-.14.489-.075.97-.184 1.442-.325.472-.136.933-.304 1.386-.504.454-.195.891-.421 1.313-.675.426-.254.828-.535 1.219-.84.386-.305.754-.633 1.097-.985.348-.351.668-.726.965-1.117.301-.394.57-.804.817-1.234.246-.426.464-.867.652-1.324.191-.457.352-.922.48-1.399.13-.472.227-.957.297-1.445a19.016 19.016 0 0 0-1.172-7.922l-44.039-105.21c-6.785-15.845-13.582-32.813-20.367-48.645a10.22 10.22 0 0 0-2.543-4.242 10.22 10.22 0 0 0-4.242-2.544c-6.785-2.261-11.309 1.172-14.707 7.922-23.754 55.442-46.383 112.008-70.148 167.45 0 1.171-1.172 2.261-1.172 3.398h22.629c2.261 0 2.261-1.172 3.398-2.262 4.523-10.183 7.922-21.492 12.445-31.64a366.425 366.425 0 0 1 14.696-37.395Zm0 0"/><path d="M161.473 197.121c-4.524 12.445-10.184 24.89-14.707 37.336-4.524 10.184-9.047 21.492-12.446 31.64a4.165 4.165 0 0 1-3.398 1.172h-22.617c0-1.171 1.172-2.261 1.172-3.398 23.753-55.441 46.382-112.008 70.148-167.45 3.398-6.784 7.922-10.183 14.707-7.921a10.22 10.22 0 0 1 4.242 2.543 10.22 10.22 0 0 1 2.543 4.242c6.785 15.844 13.582 32.813 20.367 48.645l44.121 105.222a34.712 34.712 0 0 1 1.172 10.184c-.07.488-.168.973-.297 1.445-.128.477-.289.942-.48 1.399-.188.457-.406.898-.652 1.324-.246.43-.516.84-.817 1.234-.297.39-.617.766-.965 1.117-.343.352-.71.68-1.097.985-.39.305-.793.586-1.219.84-.422.254-.86.48-1.313.675-.453.2-.914.368-1.386.504-.473.141-.953.25-1.442.325-.488.078-.976.125-1.472.14a11.66 11.66 0 0 1-4.348-.707 10.684 10.684 0 0 1-1.351-.597c-.438-.227-.86-.48-1.266-.762a166.235 166.235 0 0 1-14.707-11.309c-23.754-19.23-47.52-37.336-70.149-56.566-1.207-2.262-1.207-2.262-2.343-2.262Zm29.414-73.535c-6.785 18.105-13.582 35.074-21.492 52.043-1.172 1.172 0 2.262 1.171 3.398 16.934 13.57 33.903 26.051 50.918 39.598 3.399 2.262 6.786 5.66 10.184 7.922-13.617-33.95-27.2-67.887-40.77-102.961Zm0 0"/><path fill="#6a737d" d="M190.898 123.586c13.582 35.074 28.29 69.012 41.86 102.96-3.399-2.26-6.785-5.66-10.184-7.921-16.969-13.582-33.984-26.027-50.906-39.598-1.172-1.172-2.262-1.172-1.172-3.398 5.695-16.969 12.48-33.938 20.402-52.043Zm0 0"/></svg>