<svg xmlns="http://www.w3.org/2000/svg" width="500" viewBox="0 0 375 375" height="500" version="1.0"><path fill="#6a737d" d="M117.645 222.035c-1.512 7.008-2.73 15.48-3.387 24.117l-.035.657c0 .293-.059.586-.07.879-4.137-5.204-9.118-9.516-14.778-12.81l-.246-.128c7.43 9.398 12.644 20.871 14.66 33.41l.059.422a33.356 33.356 0 0 1-16.898-2.941l.21.082a33.196 33.196 0 0 0 13.969 8.543l.234.058c-7.664 1.535-14.343 4.992-19.746 9.844l.035-.035c5.508-2.824 12.012-4.488 18.903-4.488 1.57 0 3.129.082 4.652.257l-.187-.011c-8.93 25.476-18.012 53.52-26.989 83.32 2.543-.75 4.512-2.672 5.309-5.133l.012-.058c1.605-5.391 12.304-40.805 28.968-87.352l1.828-5.098c1.758-4.863 3.598-9.843 5.473-14.941l1.313-3.469v-.058l-13.149-25.934c-.047.293-.14.586-.176.879Zm20.156 6.961c2.308-5.941 4.676-11.86 7.078-17.941 2.285-5.766 4.687-11.567 7.09-17.426a1346.23 1346.23 0 0 1 23.426-52.781l3-6.211c1.757-3.563 3.468-7.102 5.273-10.606.07-.222.164-.422.293-.586L170.859 97.63l-.644 1.02a639.611 639.611 0 0 0-9.035 15.257 561.69 561.69 0 0 0-15.996 29.871l-1.371 2.825c-6.223 12.304-12.458 27.257-17.672 42.668l-.75 2.53c-2.602 7.665-5.239 17.473-7.313 27.493l-.305 1.758 13.125 25.922c1.711-4.641 3.516-9.34 5.332-14.098Zm54.62-121.84a590.03 590.03 0 0 1 19.126-33.094l.586-.937a446.722 446.722 0 0 1 9.914-14.941l-10.031-18.938-2.297 2.813a425.02 425.02 0 0 0-8.977 11.566 581.632 581.632 0 0 0-29.52 43.488l-.327.551 13.078 25.816c2.777-5.53 5.566-11.015 8.425-16.37Zm45.165-93.75c-9.774 7.453-18.211 15.961-25.36 25.489l-.234.328 10.043 18.949c6.961-10.043 13.992-18.809 21.574-27.07l-.164.187.844-.902a9.847 9.847 0 0 0-.82.89l-.012.024a220.865 220.865 0 0 0-19.594 26.379l-.539.902c14.836-1.078 28.219-2.789 41.367-5.18l-2.332.352c.973-3.34 1.536-7.172 1.536-11.133a41.022 41.022 0 0 0-5.415-20.437l.106.199s-9.668-15.668-21.024-8.93ZM132.879 252.668c-1.711 4.727-3.445 9.57-5.203 14.531l-.07.223c-.235.668-.47 1.371-.727 2.074-1.172 3.328-2.192 6.328-4.535 13.184 4.336 2.824 7.734 6.773 9.82 11.449l.07.164a21.036 21.036 0 0 0-6.808-14.484l-.012-.012c2.18.375 4.688.586 7.242.586 14.918 0 28.16-7.184 36.457-18.281l.082-.118a38.826 38.826 0 0 0 1.934-3.656l.105-.27c-3.363 4.137-8.46 6.762-14.168 6.762-1.207 0-2.379-.117-3.515-.34l.117.024h-.012c10.84-4.078 19.676-11.402 25.559-20.777l.129-.211c1.37-2.239 2.719-4.688 4.101-7.371-7.593 8.332-18.48 13.535-30.586 13.535-2.988 0-5.894-.317-8.695-.914l.27.047-10.547 1.136a85.04 85.04 0 0 0-.985 2.684Zm53.074-126.961-1.125 2.344c-1.137 2.344-2.297 4.687-3.457 7.148-1.254 2.637-2.52 5.332-3.809 8.086l-1.933 4.207a1091.99 1091.99 0 0 0-20.895 48.328 1106.548 1106.548 0 0 0-7.218 18.012c-2.192 5.566-4.348 11.203-6.586 17.05l-.293.88c-2.192 5.8-4.395 11.742-6.633 17.87l-.14.4 10.546-1.173a3.576 3.576 0 0 1-.633-.093h.024c16.043-3.317 29.836-11.368 40.23-22.606l.047-.047a101.305 101.305 0 0 0 13.5-18.62l.258-.505c2.883-5.015 5.848-11.074 8.437-17.32l.41-1.102c2.462-5.93 4.805-12.34 7.032-19.3-2.848 1.488-6.14 2.683-9.61 3.398l-.246.047a27.705 27.705 0 0 1-3.855.656l-.14.012c11.073-4.617 19.757-13.102 24.527-23.73l.117-.294c-4.043 2.836-8.79 4.993-13.899 6.211l-.28.059c-.88.176-1.7.316-2.544.434l-.633.093h.036c4.019-1.652 7.476-3.632 10.64-5.988l-.129.094a37.894 37.894 0 0 0 9.235-10.067l.093-.152.926-1.523 1.125-2.25c1.711-3.305 3.527-7.407 5.11-11.625l.269-.82.445-1.29c.692-1.886 1.313-4.16 1.758-6.504l.047-.28a11.07 11.07 0 0 1-1.324.925l-.047.023c-4.219 2.262-9.106 3.985-14.274 4.934l-.304.047-.012-.012h-.246l-1.465.246.246-.117-33.164 3.656-.187.317Zm37.395-67.125a368.161 368.161 0 0 0-9.668 15.527l-.586.903a653.585 653.585 0 0 0-18.528 33.539 756.174 756.174 0 0 0-8.449 16.781l33.2-3.656c7.488-2.989 13.663-7.922 18.105-14.168l.082-.13a207.269 207.269 0 0 0 3.363-5.003c3.363-5.32 6.738-11.168 9.715-16.992 2.883-5.649 5.414-11.227 7.395-16.254 1.218-3.223 2.191-6.176 2.894-8.79.61-2.308 1.078-4.5 1.465-6.585-10.828 2.039-24.211 3.75-37.805 4.758l-1.265.07Zm62.343-14.637-2.566 5.168-2.52-5.168h-1.277v7.407h.985v-5.907l2.519 5.121h.656l2.52-5.12v5.917h.96v-7.406Zm-13.183 0v.961h2.285v6.446h1.055v-6.446h2.285v-.96Zm0 0"/></svg>