<svg xmlns="http://www.w3.org/2000/svg" width="500" viewBox="0 0 375 375" height="500" version="1.0"><defs><clipPath id="a"><path d="M47 22.563h281v330H47Zm0 0"/></clipPath></defs><g clip-path="url(#a)"><path fill="#6a737d" d="m238.078 22.563 28.809 32.71s25.289-7.035 37.234 4.922c11.93 11.957 21.77 22.512 21.77 22.512l-7.723 18.984 9.828 28.133s-28.918 109.684-32.3 123.086c-6.68 26.375-11.243 36.559-30.212 49.934-18.968 13.36-53.382 36.558-59.004 40.078-5.62 3.52-12.648 9.512-18.968 9.512-6.325 0-13.332-5.993-18.969-9.512a2557.703 2557.703 0 0 1-59.004-40.078c-18.969-13.375-23.531-23.559-30.2-49.934-3.394-13.402-32.312-123.086-32.312-123.086l9.828-28.133-7.726-18.984s9.844-10.555 21.785-22.512c11.934-11.957 37.223-4.922 37.223-4.922l28.793-32.71h101.16Zm-50.566 205.289c-1.926 0-14.266 4.355-24.164 9.484-9.895 5.125-17.07 8.754-19.368 10.2-2.292 1.429-.89 4.136 1.2 5.62 2.086 1.469 30.152 23.227 32.89 25.649 2.72 2.402 6.72 6.375 9.442 6.375 2.722 0 6.734-3.985 9.457-6.375 2.719-2.407 30.785-24.18 32.875-25.649 2.09-1.484 3.492-4.191 1.195-5.636-2.293-1.43-9.469-5.06-19.379-10.184-9.894-5.129-22.222-9.484-24.148-9.484Zm0-155.012s-5.621.015-14.047 2.832c-8.426 2.816-17.567 6.32-21.774 6.32-4.218 0-35.472-5.965-35.472-5.965s-37.043 44.836-37.043 54.418c0 9.578 4.66 12.106 9.347 17.082l27.762 29.54c2.64 2.788 8.11 7.023 4.895 14.652-3.23 7.625-7.973 17.316-2.696 27.172 5.282 9.84 14.325 16.41 20.125 15.324 5.786-1.098 19.407-8.219 24.41-11.461 5.004-3.258 20.864-16.356 20.864-21.36 0-5.019-16.399-14.019-19.422-16.054-3.024-2.063-16.852-9.965-17.14-13.059-.274-3.117-.165-4.027 3.906-11.695 4.082-7.684 11.421-17.922 10.199-24.742-1.227-6.801-13.059-10.348-21.512-13.551-8.453-3.188-24.726-9.223-26.762-10.172-2.035-.933-1.511-1.828 4.66-2.402 6.157-.594 23.626-2.914 31.504-.715 7.875 2.2 21.332 5.539 22.43 7.308 1.086 1.79 2.047 1.844.922 7.961-1.113 6.118-6.875 35.473-7.438 40.684-.55 5.223-1.648 8.66 3.961 9.95 5.621 1.292 15.079 3.519 18.32 3.519 3.243 0 12.7-2.227 18.321-3.52 5.61-1.277 4.523-4.726 3.961-9.937-.55-5.223-6.324-34.578-7.438-40.696-1.125-6.117-.164-6.187.922-7.96 1.098-1.77 14.555-5.11 22.43-7.31 7.875-2.198 25.36.122 31.504.716 6.172.574 6.691 1.469 4.66 2.402-2.035.95-18.308 6.984-26.762 10.172-8.453 3.203-20.289 6.734-21.511 13.55-1.235 6.821 6.117 17.06 10.199 24.743 4.082 7.668 4.18 8.578 3.902 11.684-.273 3.105-14.101 11.023-17.137 13.054-3.023 2.063-19.421 11.051-19.421 16.07 0 5.004 15.859 18.102 20.863 21.36 5.004 3.242 18.625 10.375 24.41 11.46 5.8 1.087 14.844-5.495 20.121-15.323 5.281-9.84.54-19.547-2.68-27.172-3.23-7.63 2.243-11.864 4.88-14.653l27.765-29.539c4.688-4.976 9.348-7.504 9.348-17.082 0-9.582-37.043-54.43-37.043-54.43s-31.254 5.993-35.461 5.993c-4.219 0-13.36-3.52-21.785-6.336-8.426-2.817-14.047-2.832-14.047-2.832Zm0 0"/></g></svg>