<svg xmlns="http://www.w3.org/2000/svg" width="500" viewBox="0 0 375 375" height="500" version="1.0"><defs><clipPath id="a"><path d="M49 21.914h277v331.5H49Zm0 0"/></clipPath></defs><g clip-path="url(#a)"><path fill="#6a737d" d="M325.57 169.34c.059-.41.004-.805-.172-1.18a2.038 2.038 0 0 0-.793-.89l-45-25.13a1.9 1.9 0 0 0-.964-.257 1.89 1.89 0 0 0-.965.258l-38.238 23.32c-.61.445-.934 1.043-.965 1.793v20.023l-15.594-10.21c-.316-.2-.66-.301-1.035-.301-.375 0-.719.101-1.035.3l-22.356 13.801-.976-22.633a2.546 2.546 0 0 0-.97-1.656l-22.765-15.039 20.836-10.777a2.202 2.202 0 0 0 1.102-1.93l-3.723-86.547a2.223 2.223 0 0 0-.324-1.039c-.2-.316-.457-.57-.781-.758l-58.547-28.574h-1.383L50.613 46.887c-.23.12-.433.273-.613.465a2.257 2.257 0 0 0-.418.644 2.272 2.272 0 0 0-.168.75c-.012.262.02.516.098.766l17.523 86.008c-.07.367-.07.734 0 1.101l25.25 19.043-17.387 8.281a2.14 2.14 0 0 0-.93.993 2.152 2.152 0 0 0-.171 1.351l13.797 64.883c-.063.32-.063.644 0 .965l17.113 15.73-11.039 6.762c-.356.246-.61.57-.762.976a2.037 2.037 0 0 0-.066 1.23l10.347 50.259c-.109.32-.109.644 0 .965l41.426 44.445c.18.187.39.328.63.43a1.907 1.907 0 0 0 1.495 0c.242-.102.453-.243.633-.43l54.106-43.067c.53-.421.808-.976.828-1.656l-.965-29.25 18.215 15.176a1.918 1.918 0 0 0 1.902.336c.211-.078.406-.188.578-.336l43.36-34.648c.41-.43.687-.938.828-1.516l1.238-21.664 13.8 9.242c.348.266.739.399 1.173.399.437 0 .828-.133 1.171-.399l35.48-27.61c.43-.359.661-.82.688-1.378Zm-132.785 2.07.965 21.664 1.656 38.375-58.383 39.613-9.109-62.535Zm-4.832-116.23 3.45 81.582-69.02 35.738-12.418-87.223ZM70.762 134l-16.7-80.902 51.61 32.011 12.848 85.598-21.805-16.559Zm20.144 95.652-12.14-58.797 45.273 37.81 8.277 60.468-23.18-22.356Zm15.73 76.063-8.968-43.344 39.906 39.328 6.485 43.63Zm41.427 41.394L141.3 301.16l55.207-39.617 1.933 45.262Zm53.277-73.96V258.23a2.12 2.12 0 0 0-.692-1.515l-15.593-12.695 13.8-9.66c.27-.188.477-.43.625-.723.149-.293.215-.606.204-.934v-3.601l19.18 14.628v44.305Zm61.293-16.575-39.477 31.461v-44.43l42.36-30.37Zm17.8-16.695-12.417-8.707 1.242-21.942c.078-.273.078-.55 0-.828.058-.23.058-.457 0-.687l-26.633-17.528v-19.19l41.395 26.077Zm35.188-25.68-31.46 24.977 3.585-42.227 33.547-23.195Zm0 0"/></g></svg>