<svg xmlns="http://www.w3.org/2000/svg" width="500" viewBox="0 0 375 375" height="500" version="1.0"><path fill="#6a737d" d="M105.703 180.164c0 4.617.469 8.367 1.36 11.133a67.542 67.542 0 0 0 3.984 9 5.33 5.33 0 0 1 .867 2.883c0 1.242-.75 2.507-2.344 3.75l-7.875 5.25a5.82 5.82 0 0 1-3.234 1.125c-1.266 0-2.508-.61-3.75-1.735a38.71 38.71 0 0 1-4.5-5.882 97.236 97.236 0 0 1-3.844-7.383c-9.75 11.507-21.96 17.273-36.68 17.273-10.476 0-18.843-3.023-24.937-9.023-6.117-6-9.234-14.016-9.234-24.024 0-10.64 3.75-19.265 11.343-25.781 7.618-6.516 17.72-9.75 30.563-9.75 4.219 0 8.601.375 13.219.984 4.617.633 9.375 1.641 14.343 2.766v-9.14c0-9.516-1.992-16.15-5.859-20.016-3.984-3.89-10.734-5.766-20.344-5.766-4.36 0-8.836.516-13.453 1.64a99.133 99.133 0 0 0-13.476 4.243 36.152 36.152 0 0 1-4.36 1.64 7.545 7.545 0 0 1-1.992.376c-1.758 0-2.625-1.266-2.625-3.891v-6.14c0-1.993.234-3.516.867-4.36a9.178 9.178 0 0 1 3.516-2.648c4.336-2.25 9.586-4.126 15.703-5.626 6.094-1.64 12.586-2.367 19.453-2.367 14.836 0 25.688 3.375 32.672 10.125 6.867 6.75 10.36 17.016 10.36 30.797v40.547Zm-50.648 19.008c4.101 0 8.343-.75 12.843-2.25s8.485-4.266 11.836-8.016a19.639 19.639 0 0 0 4.243-7.992c.75-3.023 1.265-6.633 1.265-10.898v-5.25a104.143 104.143 0 0 0-11.484-2.11 93.316 93.316 0 0 0-11.719-.773c-8.367 0-14.46 1.64-18.586 5.015-4.125 3.375-6.094 8.133-6.094 14.391 0 5.86 1.477 10.242 4.594 13.266 3 3.117 7.36 4.617 13.102 4.617Zm100.148 13.523c-2.25 0-3.75-.375-4.734-1.265-1.008-.75-1.875-2.485-2.625-4.875l-29.297-96.727c-.57-1.629-.945-3.3-1.125-5.016 0-1.992.984-3.117 2.976-3.117h12.235c2.344 0 3.984.375 4.851 1.243 1.008.75 1.758 2.507 2.508 4.874l20.953 82.852 19.453-82.851c.61-2.485 1.36-4.126 2.368-4.876a8.384 8.384 0 0 1 4.992-1.242h9.984c2.344 0 3.985.375 4.969 1.243 1.008.75 1.875 2.507 2.39 4.874l19.688 83.86 21.563-83.86a10.57 10.57 0 0 1 2.507-4.874 7.96 7.96 0 0 1 4.875-1.243h11.602c1.992 0 3.117 1.008 3.117 3.118 0 .632-.14 1.265-.234 2.015a17.974 17.974 0 0 1-.89 3.117l-30.071 96.727c-.727 2.508-1.617 4.148-2.602 4.898a7.768 7.768 0 0 1-4.758 1.243h-10.71c-2.368 0-3.985-.375-4.993-1.243-1.007-.89-1.875-2.507-2.367-5.015l-19.336-80.696-19.219 80.602c-.609 2.508-1.359 4.125-2.343 4.992-1.008.89-2.766 1.266-4.993 1.266h-10.734Zm160.266 3.375a82.06 82.06 0 0 1-19.219-2.25c-6.234-1.5-11.086-3.14-14.344-5.015-1.992-1.125-3.351-2.368-3.867-3.516a8.795 8.795 0 0 1-.726-3.492v-6.375c0-2.625.984-3.89 2.859-3.89.77 0 1.52.124 2.25.374.75.258 1.875.75 3.117 1.266 4.219 1.875 8.86 3.375 13.711 4.383 4.992.984 9.844 1.5 14.836 1.5 7.875 0 13.969-1.383 18.21-4.125a13.272 13.272 0 0 0 2.763-2.22c.824-.858 1.52-1.812 2.09-2.858a13.37 13.37 0 0 0 1.273-3.305c.277-1.16.402-2.332.367-3.524a12.106 12.106 0 0 0-.812-4.707 12.133 12.133 0 0 0-2.563-4.035c-2.226-2.39-6.469-4.523-12.586-6.515l-18.094-5.625c-9.093-2.883-15.843-7.149-19.945-12.774a29.639 29.639 0 0 1-4.613-8.554 29.754 29.754 0 0 1-1.621-9.586c0-5.25 1.125-9.891 3.351-13.899 2.25-3.984 5.25-7.5 9-10.266 3.75-2.859 7.969-4.992 12.961-6.492s10.219-2.132 15.703-2.132c2.766 0 5.625.117 8.368.492 2.859.375 5.484.89 8.109 1.406 2.484.61 4.875 1.219 7.101 1.992 2.25.75 3.985 1.5 5.25 2.25 1.493.75 2.743 1.79 3.75 3.117a6.603 6.603 0 0 1 1.102 4.125v5.883c0 2.625-.984 4.008-2.86 4.008a12.821 12.821 0 0 1-4.734-1.5 56.564 56.564 0 0 0-11.71-3.738 56.505 56.505 0 0 0-12.243-1.137c-7.101 0-12.726 1.125-16.594 3.516-3.867 2.343-5.859 6-5.859 11.132 0 3.493 1.242 6.493 3.75 8.883 2.484 2.367 7.102 4.735 13.71 6.867l17.72 5.625c8.976 2.883 15.468 6.891 19.336 12.024 3.867 5.133 5.718 11.015 5.718 17.531 0 5.39-1.101 10.242-3.234 14.508a33.251 33.251 0 0 1-9.094 11.016c-3.867 3.117-8.484 5.39-13.851 7.007-5.625 1.758-11.485 2.625-17.836 2.625Zm0 0"/><path fill="#6a737d" d="M339.023 276.867c-41.015 30.399-100.64 46.547-151.898 46.547-71.836 0-136.57-26.648-185.46-70.945-3.868-3.516-.376-8.274 4.218-5.508 52.898 30.773 118.125 49.43 185.625 49.43 45.492 0 95.508-9.516 141.539-29.04 6.867-3.117 12.726 4.5 5.976 9.516Zm0 0" fill-rule="evenodd"/><path fill="#6a737d" d="M356.11 257.344c-5.227-6.727-34.665-3.235-48-1.617-3.985.515-4.618-3-1.008-5.625 23.437-16.524 61.992-11.766 66.468-6.258 4.5 5.625-1.242 44.297-23.203 62.812-3.351 2.883-6.586 1.406-5.086-2.344 4.969-12.421 16.078-40.312 10.828-46.945Zm0 0" fill-rule="evenodd"/></svg>