<svg xmlns="http://www.w3.org/2000/svg" width="500" viewBox="0 0 375 375" height="500" version="1.0"><path fill="#6a737d" d="M102.71 126.691c7.567-7.636 7.567-20.011 0-27.648l-.253-.258a19.23 19.23 0 0 0-27.39 0L5.675 168.813c-7.567 7.636-7.567 20.035 0 27.671l69.39 70.024a19.237 19.237 0 0 0 27.391 0l.254-.254c7.566-7.64 7.566-20.012 0-27.649l-41.723-42.12c-7.566-7.637-7.566-20.036 0-27.673Zm266.614 42.121-69.39-70.027c-7.547-7.64-19.825-7.64-27.391 0l-.254.258c-7.566 7.637-7.566 20.012 0 27.648l41.742 42.121c7.567 7.637 7.567 20.036 0 27.672l-41.742 42.121c-7.566 7.637-7.566 20.008 0 27.649l.254.254c7.566 7.637 19.844 7.637 27.39 0l69.391-70.024c7.567-7.636 7.567-20.035 0-27.672ZM252.816 87.008 152.902 300.77c-3.238 6.714-8.918 15.023-16.242 15.023h-.39c-14.247 0-23.528-19.348-17.23-32.39l99.335-211.739c3.234-6.7 15.234-11.957 15.234-11.957v-.492c19.383 0 25.489 14.75 19.207 27.793Zm0 0" fill-rule="evenodd"/></svg>