<svg xmlns="http://www.w3.org/2000/svg" width="500" viewBox="0 0 375 375" height="500" version="1.0"><path fill="#6a737d" d="M90.5 63.344a4.85 4.85 0 0 0-4.848 4.847v185.266c0 1.734.926 3.336 2.426 4.2l94.254 54.366a4.85 4.85 0 0 0 4.754.055l99.734-54.652a4.847 4.847 0 0 0 2.52-4.254V68.192a4.85 4.85 0 0 0-4.848-4.848ZM56.555 68.19c0-18.75 15.195-33.945 33.945-33.945h193.992c18.746 0 33.945 15.195 33.945 33.945v184.98a33.947 33.947 0 0 1-17.632 29.774l-99.735 54.649a33.954 33.954 0 0 1-33.277-.364l-94.254-54.367a33.944 33.944 0 0 1-16.984-29.406Zm72.746 48.5c0-8.035 6.512-14.55 14.547-14.55h89.535c8.035 0 14.547 6.515 14.547 14.55V234.95a14.55 14.55 0 0 1-8.043 13.012l-44.766 22.383a14.528 14.528 0 0 1-13.012 0l-44.77-22.383a14.553 14.553 0 0 1-8.038-13.012v-11.191c0-8.035 6.512-14.551 14.547-14.551s14.55 6.516 14.55 14.55v2.2l30.215 15.11 30.219-15.11v-32.418h-50.734c-8.036 0-14.551-6.516-14.551-14.55 0-8.036 6.516-14.548 14.55-14.548h50.735v-33.203h-74.984c-8.036 0-14.547-6.511-14.547-14.547Zm0 0"/></svg>