<svg xmlns="http://www.w3.org/2000/svg" width="500" viewBox="0 0 375 375" height="500" version="1.0"><path fill="#6a737d" d="M66.406 109.375c0 6.473 5.246 11.719 11.719 11.719 6.473 0 11.719-5.246 11.719-11.719Zm28.906-17.36-4.46-10.835c-.145.058-.286.12-.426.183ZM141.142 80.5l1.191 11.66c.082-.012.164-.02.25-.031Zm39.062-2.375-.02 11.719h.02Zm14.578 0v11.719h.02Zm39.063 2.375-1.438 11.629c.082.012.164.02.246.031Zm45.844 11.516 4.886-10.653c-.14-.062-.285-.125-.426-.183Zm5.468 17.359c0 6.473 5.246 11.719 11.719 11.719 6.473 0 11.719-5.246 11.719-11.719Zm-195.312 0c0-6.473-5.246-11.719-11.719-11.719-6.473 0-11.719 5.246-11.719 11.719Zm18.187 22.094-3.426 11.207c.11.035.22.066.332.097Zm72.172 9.156v-11.719h-.172Zm14.578 0 .172-11.719h-.172Zm72.188-9.156 3.094 11.304c.109-.03.222-.062.335-.097Zm41.625-22.094c0-6.473-5.246-11.719-11.719-11.719-6.473 0-11.719 5.246-11.719 11.719Zm-218.75 0c0-6.473-5.246-11.719-11.719-11.719-6.473 0-11.719 5.246-11.719 11.719ZM66.406 187.5c0 6.473 5.246 11.719 11.719 11.719 6.473 0 11.719-5.246 11.719-11.719Zm242.188-78.125c0-6.473-5.246-11.719-11.719-11.719-6.473 0-11.719 5.246-11.719 11.719ZM285.156 187.5c0 6.473 5.246 11.719 11.719 11.719 6.473 0 11.719-5.246 11.719-11.719Zm-195.312 0c0-6.473-5.246-11.719-11.719-11.719-6.473 0-11.719 5.246-11.719 11.719Zm18.187 22.094-3.426 11.207c.11.035.22.066.332.097Zm72.172 9.156v-11.719h-.172Zm14.578 0 .172-11.719h-.172Zm72.188-9.156 3.094 11.304c.109-.03.222-.062.335-.097Zm41.625-22.094c0-6.473-5.246-11.719-11.719-11.719-6.473 0-11.719 5.246-11.719 11.719Zm-218.75 0c0-6.473-5.246-11.719-11.719-11.719-6.473 0-11.719 5.246-11.719 11.719Zm18.187 100.219-3.426 11.207c.11.035.22.066.332.097Zm72.172 9.156v-11.719h-.172Zm14.578 0 .172-11.719h-.172Zm72.188-9.156 3.094 11.304c.109-.03.222-.062.335-.097ZM308.594 187.5c0-6.473-5.246-11.719-11.719-11.719-6.473 0-11.719 5.246-11.719 11.719Zm-218.75-78.125c0 .914-.496.66.988-.836 1.543-1.555 4.473-3.625 9.367-5.871l-9.773-21.305c-6.309 2.895-11.973 6.383-16.223 10.657-4.308 4.34-7.797 10.19-7.797 17.355Zm9.93-6.523a152.423 152.423 0 0 1 42.558-10.692l-2.383-23.316A175.93 175.93 0 0 0 90.852 81.18Zm42.808-10.723a302.446 302.446 0 0 1 37.602-2.285l.039-23.438a325.35 325.35 0 0 0-40.524 2.465Zm37.621-2.285h14.578V66.406h-14.578Zm14.598 0c12.57-.02 25.129.742 37.605 2.285l2.875-23.258a325.242 325.242 0 0 0-40.52-2.465Zm37.851 2.316a152.527 152.527 0 0 1 42.575 10.692l8.921-21.672a176.035 176.035 0 0 0-49.113-12.336Zm42.149 10.508c4.894 2.246 7.824 4.316 9.367 5.871 1.488 1.496.988 1.75.988.836h23.438c0-7.164-3.492-13.016-7.797-17.355-4.25-4.274-9.914-7.762-16.223-10.657Zm-208.395 6.707c0 9.59 6.188 16.7 12.524 21.379 6.566 4.851 15.433 8.789 25.675 11.922l6.852-22.414c-8.914-2.727-15-5.696-18.598-8.356-3.828-2.828-3.015-3.836-3.015-2.531Zm38.531 33.398a270.756 270.756 0 0 0 75.438 9.57l-.344-23.437a247.249 247.249 0 0 1-68.906-8.738Zm75.266 9.57h14.578v-23.437h-14.578Zm14.406 0a270.866 270.866 0 0 0 75.453-9.57l-6.187-22.605a247.195 247.195 0 0 1-68.922 8.738Zm75.79-9.667c10.234-3.133 19.101-7.063 25.671-11.914 6.34-4.684 12.524-11.793 12.524-21.387h-23.438c0-1.297.809-.29-3.015 2.535-3.594 2.656-9.68 5.625-18.602 8.352ZM66.405 109.375V187.5h23.438v-78.125Zm218.75 0V187.5h23.438v-78.125ZM66.406 187.5c0 9.586 6.188 16.695 12.524 21.379 6.566 4.855 15.433 8.789 25.675 11.922l6.852-22.414c-8.914-2.727-15-5.696-18.598-8.356-3.828-2.828-3.015-3.836-3.015-2.531Zm38.531 33.398a270.756 270.756 0 0 0 75.438 9.57l-.344-23.437a247.107 247.107 0 0 1-68.906-8.742Zm75.266 9.57h14.578v-23.437h-14.578Zm14.406 0a270.72 270.72 0 0 0 75.453-9.57l-6.187-22.609a247.199 247.199 0 0 1-68.922 8.742Zm75.79-9.667c10.234-3.133 19.101-7.063 25.671-11.914 6.34-4.684 12.524-11.793 12.524-21.387h-23.438c0-1.297.809-.29-3.015 2.535-3.594 2.656-9.68 5.625-18.602 8.352ZM66.405 187.5v78.125h23.438V187.5Zm0 78.125c0 9.586 6.188 16.695 12.524 21.379 6.566 4.855 15.433 8.789 25.675 11.922l6.852-22.414c-8.914-2.727-15-5.696-18.598-8.356-3.828-2.828-3.015-3.836-3.015-2.531Zm38.531 33.398a270.756 270.756 0 0 0 75.438 9.57l-.344-23.437a247.107 247.107 0 0 1-68.906-8.742Zm75.266 9.57h14.578v-23.437h-14.578Zm14.406 0a270.72 270.72 0 0 0 75.453-9.57l-6.187-22.609a247.199 247.199 0 0 1-68.922 8.742Zm75.79-9.667c10.238-3.133 19.105-7.067 25.671-11.922 6.336-4.684 12.524-11.793 12.524-21.379h-23.438c0-1.305.813-.297-3.015 2.531-3.598 2.66-9.684 5.63-18.602 8.356Zm38.195-33.301V187.5h-23.438v78.125Zm0 0"/></svg>