<svg xmlns="http://www.w3.org/2000/svg" width="500" viewBox="0 0 375 375" height="500" version="1.0"><path fill="#6a737d" d="M185.578 264.61s0-111.196 3.692-111.184c2.855 0 6.57 143.433 6.57 143.433-5.11-.601-10.262-23.597-10.262-32.25Zm71.563-109.895c-9.864-43.102-31.465-80.16-61.258-108.762l-.078-.062c-3.625-5.54-6.942-11.895-9.602-18.59l-.258-.73c.008.214.008.472.008.73a19.782 19.782 0 0 1-6.996 15.12l-.031.024c-38.36 32.559-62.762 80.543-63.567 134.239v.136c-.011.668-.011 1.45-.011 2.235 0 53.199 25.597 100.418 65.144 130.02l.418.3.934.676a989.208 989.208 0 0 1 4.422 38.379h6.449c1.781-16.004 4.187-30.008 7.332-43.746l-.496 2.566a93.377 93.377 0 0 0 11.43-9.328l-.032.035c30.063-27.875 48.82-67.582 48.82-111.66 0-.652 0-1.297-.011-1.953v.097a175.048 175.048 0 0 0-2.801-30.812l.164 1.062Zm0 0"/></svg>