<svg xmlns="http://www.w3.org/2000/svg" width="500" viewBox="0 0 375 375" height="500" version="1.0"><path fill="#6a737d" d="m377.016 365.813-7.938-7.563c-3.922-5.172-8.094-9.75-12.64-13.922l-.079-.062a216.742 216.742 0 0 0-14.546-12.094c-4.032-2.77-9.575-6.11-16.625-10.016-5.797-2.61-10.329-7.187-12.782-12.875l-.062-.156-.75-.375a49.498 49.498 0 0 0 9.25-1.797l-.36.094 8.907-2.453c3.687-1.156 7.953-1.906 12.375-2.078h.093a54.258 54.258 0 0 0 13.235-2.172l-.39.094c2.019-.5 4.097-1.067 6.233-1.704a208.096 208.096 0 0 0 5.485-1.703v-2.64c-1.512-2.262-3.34-4.844-5.485-7.75a40.023 40.023 0 0 0-6.921-7.313l-.079-.062a395.574 395.574 0 0 0-20.359-16.813c-6.187-4.828-13.203-9.75-20.484-14.312l-1.063-.625c-3.844-2.532-8.25-4.875-12.89-6.797l-.532-.188a195.532 195.532 0 0 1-13.796-6.234 25.594 25.594 0 0 0-5.11-1.86l-.172-.03c-1.828-.376-3.39-1.313-4.531-2.641l-.016-.016c-2.156-2.844-4.046-6.078-5.546-9.516l-.125-.312a122.442 122.442 0 0 0-4.907-10.172 624.69 624.69 0 0 1-10.969-22.297 774.062 774.062 0 0 1-10.171-22.687 265.914 265.914 0 0 1-6.235-15.11c-2.094-5.531-4.453-10.265-7.203-14.719l.203.36c-6.75-11.5-13.484-21.313-20.797-30.64l.438.593c-7.234-9.125-14.734-17.281-22.797-24.844l-.125-.11a275.298 275.298 0 0 0-25.5-21.187l-.766-.547c-9.332-6.78-19.543-13.457-30.625-20.03-4.453-2.626-9.625-4.766-15.078-6.141l-.406-.094-17.39-4.344-9.829-.75c-3.27-.25-6.547-.375-9.828-.375a26.243 26.243 0 0 1-6.047-4.36 55.952 55.952 0 0 0-5.515-4.609l-.157-.109C56.156 12.234 45.172 7.187 33.688 3.219l-1.329-.406C29.344 1.046 25.72.015 21.86.015c-2.75 0-5.39.53-7.797 1.484l.141-.047C8.266 3.813 3.734 8.61 1.781 14.578l-.047.156c-1.14 2.688-1.796 5.797-1.796 9.079a23.67 23.67 0 0 0 5.421 15.125l-.03-.047c5.667 7.55 10.01 13.488 13.03 17.812a1797.61 1797.61 0 0 1 7 9.453c2.203 2.938 4.157 6.297 5.735 9.844l.125.328c.875 1.86 1.64 4.078 2.203 6.36l.047.25c.5 2.144 1.129 4.48 1.89 7a366.776 366.776 0 0 1 6.422 17.812c2.203 6.64 4.64 12.266 7.469 17.625l-.297-.625c1.512 2.77 3.027 5.48 4.547 8.125 1.52 2.645 3.156 5.23 4.906 7.75a13.559 13.559 0 0 0 3.766 3.781l.047.031c1.547 1.125 2.562 2.891 2.64 4.891v.016c-1.78 2.625-2.984 5.765-3.39 9.156l-.016.094c-.547 3.953-1.328 7.469-2.39 10.86l.124-.47c-3.484 10.407-5.484 22.407-5.484 34.86 0 4.031.203 8 .625 11.922l-.047-.485C55.22 230.25 59.734 244 66.97 255.906l-.219-.39c3.078 4.609 6.375 8.625 10.016 12.297a14.284 14.284 0 0 0 10.687 4.78c2.375 0 4.625-.577 6.594-1.609l-.078.032c5.469-1.97 9.36-6.97 9.64-12.922v-.031c.75-7.407 1.875-14.032 3.422-20.5l-.203 1.046c.375-.984.594-2.109.594-3.297 0-.234-.016-.468-.031-.703v.032c-.125-1.137.566-2.207 2.078-3.22v.75a376.045 376.045 0 0 0 4.719 10.579 427.28 427.28 0 0 0 5.093 10.578c4.61 7.016 9.5 13.14 14.875 18.781l-.047-.046a120.945 120.945 0 0 0 17.61 15.64l.344.235a61.066 61.066 0 0 1 8.843 8.25l.063.062a30.41 30.41 0 0 0 8.75 7.094l.156.078v-.375h.75a7.203 7.203 0 0 0-2.813-3.203l-.03-.016a28.575 28.575 0 0 1-3.298-2.125l.078.047a143.271 143.271 0 0 1-7-7.563 254.259 254.259 0 0 1-6.609-7.937 325.81 325.81 0 0 1-15.14-22.922 437.244 437.244 0 0 1-13.61-24.297 279.31 279.31 0 0 1-5.86-12.469 9349.034 9349.034 0 0 1-5.484-12.468 15.574 15.574 0 0 1-1.5-5.219v-.078a4.972 4.972 0 0 0-2.625-4.14l-.03-.016c-1.891 3.218-3.985 6-6.376 8.515l.016-.015a30.849 30.849 0 0 0-5.969 9.062l-.078.203c-2.203 5.344-3.813 11.547-4.516 18.031l-.031.297c-.75 6.676-1.504 13.543-2.266 20.594l-.75.375-.375.375c-4.062-.828-7.406-3.422-9.218-6.922l-.032-.078a156.257 156.257 0 0 1-5.093-10.781c-3.875-9.953-6.282-21.469-6.61-33.5v-.14c-.14-1.907-.203-4.141-.203-6.376a97.15 97.15 0 0 1 4.672-29.844l-.188.688c.75-2.77 2.387-7.438 4.907-14 2.52-6.563 3.027-11.098 1.515-13.61a13.687 13.687 0 0 0-4.14-6.406l-.016-.015a51.726 51.726 0 0 1-5.234-5.235l-.047-.062a108.62 108.62 0 0 1-5.094-8.125 102.423 102.423 0 0 1-4.344-8.5c-2.578-5.969-5.218-13.453-7.406-21.14l-.344-1.391c-2.484-8.829-5.25-16.297-8.53-23.485l.405 1c-1.734-3.937-3.75-7.344-6.093-10.453l.093.125a198.44 198.44 0 0 1-6.812-9.64 423.635 423.635 0 0 0-7.563-9.454 53.338 53.338 0 0 1-6.656-10.265l-.14-.313a25.594 25.594 0 0 1-1.86-5.11l-.031-.171a6.226 6.226 0 0 1-.266-1.828c0-1.281.375-2.485 1.031-3.485l-.015.032a4.735 4.735 0 0 1 1.14-2.266 4.82 4.82 0 0 1 2.235-1.125h.031a8.604 8.604 0 0 1 4.688-1.375c1.312 0 2.578.297 3.687.828l-.047-.015c3.422.968 6.188 1.937 8.89 3.046l-.562-.203a392.995 392.995 0 0 1 13.235 5.86c4.656 2.218 8.625 4.562 12.375 7.172l-.282-.188a85.299 85.299 0 0 1 6.047 4.156 144.692 144.692 0 0 0 6.422 4.547h5.297c4.031 0 8.313.192 12.844.578 4.578.36 8.812 1.22 12.844 2.563l-.375-.11c7.515 2.235 13.968 4.876 20.093 8.047l-.64-.297a210.216 210.216 0 0 1 17.578 10.016c9.203 5.734 17.156 11.61 24.64 18.031l-.265-.218c7.812 6.687 14.906 13.546 21.562 20.796l.157.188a227.603 227.603 0 0 1 18.375 22.875l.484.734c5.219 7.375 10.484 15.907 15.219 24.75l.656 1.328c1.266 2.407 2.547 5.36 3.656 8.375l.172.516a178.18 178.18 0 0 0 3.39 8.906c2.77 6.301 5.739 12.66 8.907 19.078a691.57 691.57 0 0 1 8.906 18.72l8.313 18.14c2.922 6.344 6.187 11.812 9.984 16.86l-.172-.235a21.777 21.777 0 0 0 12.156 6.594l.125.015c5.75 1.438 10.594 3.063 15.282 4.985l-.735-.266c2.235 1.016 5.11 2.094 8.063 3.047l.625.172c3.312 1.015 6.187 2.36 8.828 4.047l-.14-.079c5.109 2.86 9.437 5.672 13.562 8.735l-.328-.235a281.883 281.883 0 0 0 12.844 8.907c2.019 1.511 5.41 3.715 10.171 6.61 4.762 2.894 7.282 5.605 7.563 8.124-1.781-.062-3.89-.11-6-.11-7.688 0-15.25.5-22.656 1.47l.875-.094c-8.375 1.125-15.97 3.172-23.11 6.094l.625-.22c-1.765.766-3.875 1.47-6.062 2.016l-.297.063c-2.219.328-3.938 2.11-4.156 4.328v.016a13.519 13.519 0 0 1 2.234 4.062l.031.094a20.44 20.44 0 0 0 1.953 4.25l-.046-.094c1.859 3.297 3.859 6.14 6.109 8.766l-.063-.078a39.897 39.897 0 0 0 7.438 7.093l.11.079a950.357 950.357 0 0 0 7.937 6.234 78.975 78.975 0 0 0 8.312 5.656l.375.203c4.438 2.719 9.594 5.313 14.969 7.485l.719.25c5.844 2.343 10.86 5.062 15.515 8.296l-.25-.171a116.944 116.944 0 0 1 9.063 5.859c3.012 2.145 5.906 4.223 8.687 6.234a20.21 20.21 0 0 1 2.985 3.735l.047.078c1.421 1.625 3.39 2.734 5.625 3.015h.046v-.75a8.069 8.069 0 0 1-2.875-4.171l-.015-.063c-.39-1.594-.969-2.984-1.75-4.265l.031.062ZM86.766 65.733c-2.02 0-3.91.063-5.672.188a20.077 20.077 0 0 0-5.047.984l.14-.047v.375h.75c1.012 1.512 2.282 3.207 3.813 5.094a96.953 96.953 0 0 1 4.156 5.484l6.047 12.47.75-.376a11.49 11.49 0 0 0 3.938-5.015l.03-.079c.813-2.171 1.282-4.703 1.282-7.328 0-.28 0-.562-.016-.843v.046a7.879 7.879 0 0 1-1.687-2.406l-.016-.047-1.265-2.843a8.135 8.135 0 0 0-3.344-3l-.047-.016a14.54 14.54 0 0 1-3.812-2.64Zm0 0"/></svg>