<svg xmlns="http://www.w3.org/2000/svg" width="500" viewBox="0 0 375 375" height="500" version="1.0"><path fill="#6a737d" d="M318.902 89.543c-.41-.047-.89-.07-1.37-.07-6.06 0-11.122 4.265-12.352 9.949l-.012.082a10.522 10.522 0 0 0 6.844 2.52c5.824 0 10.558-4.723 10.558-10.56 0-.632-.058-1.265-.164-1.862l.012.058a30.39 30.39 0 0 0-2.836-.129c-.234 0-.48 0-.715.012Zm30.223-4.3c-.27.07-.61.433-1.043 1.195-3.07 4.968-4.887 10.992-4.887 17.437v.14-.011c.035 2.39 1.172 1.312 1.184-.223.047-6.328 1.863-12.222 4.98-17.215l-.082.141c.375-.926.27-1.605-.164-1.465Zm-1.559-1.337c-.246.059-.644.375-1.125 1.114-3.914 5.308-6.62 11.753-7.582 18.75l-.023.21c-.188 2.368 1.066 1.418 1.219-.117.996-7.043 3.668-13.312 7.617-18.586l-.07.106c.468-.88.41-1.57-.036-1.465Zm-1.441-1.758c-.246.036-.668.317-1.23 1.008a49.861 49.861 0 0 0-11.133 19.559l-.094.351c-.398 2.344.937 1.512 1.195-.011 2.274-7.582 6.13-14.098 11.192-19.453l-.024.023c.54-.844.528-1.535.094-1.477Zm-1.172-1.945c-.55.129-1.02.422-1.36.82a65.864 65.864 0 0 0-14.19 20.86l-.165.433c-.726 2.274.703 1.606 1.196.141 3.55-8.086 8.343-14.977 14.214-20.789.657-.762.75-1.453.293-1.465Zm2.203-2.883c1.313 4.5 3.387 6.563 12.317 7.383-1.957 10.266-8.391 18.715-17.145 23.379l-.176.082c-8.25 4.84-15.175 10.992-20.73 18.246l-.129.176c-8.566 17.273-16.184 37.523-21.75 58.617l-.516 2.297c-5.05 22.43-16.886 41.566-33.199 55.64l-.129.106c-2.191-5.273 2.485-8.32.434-13.137-3.938 9.727-7.817 17.73-12.14 25.442l.585-1.125c-11.004 22.488-31.781 38.742-56.648 43.3l-.48.07a116.999 116.999 0 0 0 27.738-67.358l.023-.399c-5.86 1.277-6.328 17.05-15.785 22.84-.762.023-1.664.023-2.555.023-7.23 0-14.32-.644-21.2-1.898l.727.105c-8.765-1.547-18.855-2.437-29.156-2.437-16.125 0-31.734 2.168-46.57 6.246l1.23-.293c-19.336 9.645-35.109 18.656-50.367 28.43l2.156-1.29c-9.55 4.735-20.8 7.512-32.695 7.512-3.281 0-6.516-.21-9.691-.62l.375.034c-2.543-3.421 14.672-7.851 13.71-15.328-7.85-.843-12.421 1.043-19.242-2.05a10.518 10.518 0 0 1 3.235-3.493l.035-.023c12.504-8.637 48-2.05 57.504-11.379a106.563 106.563 0 0 0 13.43-17.191l.257-.446c3.95-6.21 8.567-11.531 13.864-16.101l.093-.082c2.25-1.828 5.766-4.993 8.368-6.786 9.996-6.609 21.504-12.222 33.714-16.289l1.043-.304c17.192-6.047 34.57-8.086 52.91-15.082 12.247-4.09 22.876-9.492 32.532-16.207l-.41.27a96.01 96.01 0 0 0 8.097-6.856l-.047.047c32.508-32.098 34.57-75.809 79.301-80.403 5.414-.562 9.844-.375 13.887-.504h.516c4.652 0 9.023-1.183 12.843-3.27l-.14.071Zm8.39-6.515c-5.401.187-3.831 2.625-15.526 5.507-14.368 1.16-27.575 3.446-40.348 6.82l1.594-.35c-33.2 13.91-38.579 67.71-78.13 88.523-21.784 10.488-47.179 19.242-73.698 24.996l-2.297.422c-17.168 5.777-32.016 14.168-44.918 24.832l.234-.188c-10.793 9.305-13.43 18.34-24.703 30.024-11.45 15.55-54.832 1.722-65.988 21.234 3.761 2.707 8.46 4.324 13.535 4.324 2.168 0 4.265-.293 6.246-.844l-.164.036c-2.133 4.043-15.727 9.375-13.266 15.351 4.301.68 9.258 1.067 14.309 1.067 16.969 0 32.906-4.372 46.77-12.047l-.493.246c12.973-8.238 28.008-14.79 44.04-18.82l1.066-.223h1.054c30.305 0 59.942 2.894 88.64 8.437l-2.917-.468c-6.68 11.894-13.418 22.03-20.813 31.64l.446-.61c-2.227 2.391 1.898 4.5 9.515 3.06 12.703-2.649 23.942-7.477 33.868-14.122l-.34.223c11.261-8.52 20.918-18.363 28.968-29.46l.282-.4c9.433 15.118 42.668 18.458 49.5 5.38-12.692-5.38-15.41-33.34-11.051-45.41 4.57-11.579 9.023-25.9 12.516-40.594l.457-2.286c3.75-13.617 6.046-34.394 10.511-45.035 5.344-13.218 15.715-17.355 23.508-24.363 9.27-6.035 15.317-16.348 15.317-28.078 0-.293 0-.586-.012-.867v.047c-.094-5.215-2.778-8.098-7.688-7.957Zm0 0"/></svg>