<svg xmlns="http://www.w3.org/2000/svg" width="500" viewBox="0 0 375 375" height="500" version="1.0"><path fill="#6a737d" d="M284.707 116.355a6.56 6.56 0 0 1-2.238 4.536l-.012.011a10.474 10.474 0 0 1-5.906 3.258l-.059.012a7.958 7.958 0 0 1-1.101.082h-.047a8.812 8.812 0 0 1-8.133-5.39l-.024-.06c-.351-2.59 3.868-4.546 8.215-5.156 4.348-.609 8.953.13 9.305 2.707Zm-116.133 6.024c-1.418 3.644-4.898 6.187-8.976 6.187h-.13.012c-.421 0-.82-.035-1.23-.082h.047a11.678 11.678 0 0 1-7.383-4.593l-.023-.036a6.315 6.315 0 0 1-1.547-4.148v-.012a3.258 3.258 0 0 1 1.347-2.168l.012-.011c1.781-.985 3.914-1.559 6.188-1.559.972 0 1.922.106 2.836.305l-.082-.012c4.628.645 9.41 2.836 8.953 6.129Zm129.117 89.566-1.253-1.57-.516-.645c5.355-9.914 8.496-21.714 8.496-34.23 0-5.719-.656-11.273-1.898-16.617l.093.492c-.82-5.309-1.3-11.438-1.3-17.672v-.246.012c.269-5.871.89-11.367 1.851-16.746l-.117.773c1.043-5.437 1.64-11.695 1.64-18.094 0-.597 0-1.183-.011-1.77v.095c.14-.575.222-1.22.222-1.899 0-.316-.023-.621-.046-.926v.035c-4.688-18.515-13.489-34.558-25.407-47.73l.082.094c-10.675-12.516-23.8-22.606-38.672-29.567l-.703-.293c8.157-1.746 17.532-2.742 27.141-2.742.879 0 1.758.012 2.637.024h-.13a79.321 79.321 0 0 1 1.759-.024c27.867 0 52.687 12.996 68.742 33.258l.14.188c.329.421.657.902.938 1.406l.035.058c10.594 19.852-4.043 91.899-43.734 154.36Zm-3.351-102.703a106.773 106.773 0 0 1-1.64 15.317l.093-.645c-.914 4.98-1.57 10.91-1.84 16.934l-.012.293v.656c0 6.644.493 13.172 1.454 19.547l-.094-.715c.996 4.418 1.57 9.48 1.57 14.695 0 8.942-1.687 17.496-4.77 25.336l.165-.469a47.7 47.7 0 0 1-2.625-5.308l-.13-.34c-.773-1.863-2.449-4.875-4.757-9.023-9.012-16.172-30.129-54.036-19.324-69.48 5.554-7.946 19.64-8.286 31.898-6.786Zm-8.332 135.762c-.598-12.176 3.937-13.453 8.742-14.8a35.98 35.98 0 0 0 1.98-.599c.586.516 1.23 1.02 1.899 1.465l.058.035c7.266 3.2 15.727 5.051 24.633 5.051a62.401 62.401 0 0 0 19.84-3.21l-.445.128a58.657 58.657 0 0 1-13.594 8.649l-.363.152c-7.547 3.094-16.301 5.027-25.465 5.32h-.117c-1.395.211-3 .34-4.63.34-4.523 0-8.835-.937-12.737-2.625l.21.082Zm-13.043 23.742c-.246 2.59-.527 5.508-.902 8.73l-2.133 6.422a5.123 5.123 0 0 0-.27 1.57c.012.317.012.68.012 1.044 0 4.16-.621 8.191-1.77 11.976l.07-.293c-1.359 4.559-2.296 9.844-2.613 15.293l-.011.188c-.61 19.734-15.88 35.707-35.25 37.43l-.153.011c-22.195 4.758-26.132-7.277-29.601-17.894a87.172 87.172 0 0 0-1.125-3.317c-1.875-7.64-2.953-16.418-2.953-25.441 0-4.219.234-8.38.691-12.48l-.047.503c.07-1.5.106-3.27.106-5.039 0-12.023-1.805-23.625-5.168-34.547l.222.832c.063-4.297.157-8.648.282-13.054v-.14c0-.54-.082-1.056-.235-1.548l.012.035a21.932 21.932 0 0 0-.68-3.199l.035.152c-1.652-6.105-5.812-11.027-11.297-13.64l-.128-.059c-2.063-1.031-4.5-1.64-7.09-1.64-1.219 0-2.403.129-3.54.386l.106-.023c1.5-5.508 3.047-10.008 4.828-14.39l-.304.855.773-2.074c.867-2.344 1.957-4.77 3.117-7.336 6.399-13.172 10.137-28.653 10.137-45.012 0-10.992-1.688-21.586-4.816-31.547l.199.738c-2.145-12.984-13.301-22.77-26.73-22.77-2.11 0-4.173.247-6.141.704l.187-.035c-9.328 1.218-17.765 3.96-25.441 7.992l.41-.2c-.969.493-1.926 1-2.871 1.524 1.066-25.16 10.5-47.93 25.558-65.8l-.14.163a60.065 60.065 0 0 1 4.336-3.96l.105-.083a5.274 5.274 0 0 0 2.133-.949l-.012.012c10.465-7.664 23.602-12.27 37.817-12.27 1.136 0 2.261.024 3.375.082l-.153-.011a160.24 160.24 0 0 1 17.977 1.265l-.785-.082c23.941 4.606 44.379 17.145 58.969 34.723l.128.164c8.766 10.184 15.868 22.113 20.696 35.133l.258.808c-3.012-.808-6.47-1.277-10.032-1.277-11.52 0-21.89 4.875-29.18 12.668l-.023.023c-14.531 20.778 7.957 61.114 18.762 80.497 1.98 3.55 3.691 6.62 4.23 7.921 3.047 7.043 6.88 13.102 11.485 18.48l-.082-.093c1.02 1.278 2.004 2.508 2.765 3.586-5.87 1.688-16.418 5.602-15.457 25.149-.175 2.285-.62 6.539-1.218 11.93-.633 3.152-1.149 6.995-1.442 10.898l-.023.328Zm-107.836-66.96-.774 2.062c-1.605 3.843-3.27 8.73-4.652 13.734l-.223.95c-10.464-.153-19.863-4.63-26.496-11.731l-.023-.024a43.547 43.547 0 0 1-11.953-30.047c0-2.32.176-4.593.527-6.82l-.035.246c1.137-8.437 1.793-18.176 1.793-28.078 0-5.883-.234-11.707-.68-17.473l.047.762c-.07-1.254-.14-2.355-.176-3.222 9.434-7.16 21.375-11.485 34.325-11.485 1.546 0 3.07.059 4.582.176l-.2-.012c6.493 1.512 11.38 6.89 12.153 13.512l.011.07c2.79 8.531 4.395 18.352 4.395 28.535 0 14.836-3.41 28.875-9.48 41.391l.246-.562c-1.23 2.73-2.391 5.308-3.387 7.992ZM134.46 260.19c-2.402-.609-4.512-1.5-6.434-2.66l.106.059c2.015-.856 4.394-1.57 6.855-2.027l.223-.036c18.797-3.867 21.691-6.597 28.031-14.648 1.453-1.84 3.094-3.938 5.38-6.48a5.162 5.162 0 0 0 1.065-1.864l.012-.035c2.496-2.215 3.985-1.605 6.399-.61 2.66 1.465 4.629 3.938 5.39 6.88l.012.082a7.696 7.696 0 0 1-.68 6.54l.024-.037c-7.559 10.336-19.64 16.98-33.27 16.98-4.687 0-9.199-.784-13.406-2.237l.293.082Zm-87.973-74.496c-7.629-23.261-13.84-50.86-17.508-79.265l-.246-2.332c-.714-3.774-1.113-8.121-1.113-12.551 0-21.164 9.246-40.16 23.918-53.168l.07-.059c26.895-19.02 70.875-7.922 89.45-1.91l-.141.14c-17.988 21.938-28.898 50.298-28.898 81.188 0 1.055.011 2.11.035 3.164v-.152c0 1.207.093 2.918.234 5.262.387 4.804.61 10.406.61 16.066 0 9.399-.61 18.656-1.805 27.738l.117-1.066c-.387 2.414-.598 5.203-.598 8.04 0 14.425 5.649 27.538 14.871 37.23l-.023-.024a48.323 48.323 0 0 0 3.691 3.48c-5.074 5.438-16.113 17.462-27.855 31.594-8.309 9.996-14.05 8.075-15.938 7.453-8.027-4.312-14.32-11.003-18.023-19.113l-.106-.258c-8.015-14.672-15.07-31.734-20.273-49.593l-.457-1.84Zm310.29 41.684a7.728 7.728 0 0 0-.844-1.77l.023.036c-2.039-3.856-6.984-5.004-14.754-3.399-24.21 4.992-33.586 1.922-36.984-.281 18.949-28.735 34.195-62.016 43.957-97.57l.574-2.45c3.973-15.386 11.684-51.597 1.793-69.293a23.227 23.227 0 0 0-2.25-3.492l.035.047c-18.316-22.91-46.265-37.453-77.613-37.453-.89 0-1.781.012-2.66.035h.129c-.493-.012-1.067-.012-1.653-.012-15.726 0-30.855 2.578-44.976 7.325l.996-.293a136.954 136.954 0 0 0-7.559-1.196c-5.719-1.09-12.34-1.77-19.113-1.875h-.094c-.972-.047-2.11-.07-3.258-.07-15.41 0-29.742 4.617-41.683 12.55l.281-.175C138.575 23.343 81 3.949 45.363 29.191c-17.449 14.883-28.43 36.88-28.43 61.454 0 4.746.41 9.398 1.196 13.921l-.07-.48c3.925 31.617 10.3 60.07 19.125 87.434l-.926-3.329c5.777 20.11 12.926 37.512 21.703 53.907l-.715-1.453c5.074 11.53 13.852 20.671 24.797 26.074l.305.14c1.968.575 4.23.914 6.574.914 8.695 0 16.312-4.582 20.578-11.472l.059-.106c11.73-14.11 23.285-26.742 28.476-32.32 5.883 3.27 12.856 5.285 20.285 5.52h.07l.012.058a153.497 153.497 0 0 0-3.62 4.477c-4.97 6.304-6 7.605-21.973 10.898-4.547.938-16.618 3.422-16.793 11.883v.152c0 1.723.504 3.328 1.37 4.676l-.023-.035c3.657 4.629 8.801 7.945 14.696 9.234l.175.035c4.676 1.524 10.067 2.403 15.645 2.403 12.89 0 24.68-4.664 33.797-12.399l-.07.059c-.282 4.898-.434 10.64-.434 16.418 0 20.543 2.004 40.629 5.812 60.058l-.316-1.957c4.477 16.09 18.937 27.739 36.14 27.891h.024a58.735 58.735 0 0 0 12.54-1.453l-.388.07c22.489-2.004 40.207-19.98 41.801-42.41l.012-.14c2.203-12.75 5.883-42.106 7.887-60.06a4 4 0 0 1 .843-2.003l-.011.012c.011-.012 1.02-.692 6.257.445l.645.106 3.715.328.222.011a90.83 90.83 0 0 0 3.739.082c12 0 23.46-2.343 33.926-6.609l-.598.21c9.433-4.37 26.437-15.116 23.355-24.456Zm0 0"/></svg>