<svg xmlns="http://www.w3.org/2000/svg" width="500" height="500" version="1.0" viewBox="0 0 375 375"><path fill="#6a737d" d="M313.434 25.574H61.559q-2.653-.001-5.293.262-2.637.257-5.239.777a54 54 0 0 0-10.125 3.07 53 53 0 0 0-4.789 2.266 53.953 53.953 0 0 0-12.719 9.434 54 54 0 0 0-3.558 3.926 53.923 53.923 0 0 0-8.145 13.586A53.938 53.938 0 0 0 7.586 79.55v143.93q0 2.647.258 5.289a54 54 0 0 0 2.062 10.375 54.12 54.12 0 0 0 6.773 14.32 55 55 0 0 0 3.157 4.254 53.8 53.8 0 0 0 7.48 7.48 54 54 0 0 0 18.575 9.93 54 54 0 0 0 10.375 2.062q2.64.263 5.293.262h107.945v35.98H97.539a17.592 17.592 0 0 0-3.508.348q-.866.171-1.715.43-.844.253-1.66.594a18 18 0 0 0-3.113 1.66q-.732.492-1.418 1.055c-.453.37-.89.77-1.305 1.183q-.626.628-1.187 1.309a18.5 18.5 0 0 0-1.961 2.933q-.415.78-.754 1.594a18.3 18.3 0 0 0-1.023 3.375c-.114.578-.204 1.16-.258 1.75a18 18 0 0 0-.086 1.762q-.001.884.086 1.762a17.5 17.5 0 0 0 .687 3.46c.172.563.367 1.118.594 1.664q.34.815.754 1.594a18.1 18.1 0 0 0 5.871 6.48 18.074 18.074 0 0 0 9.996 3.031l179.914.001q.884-.002 1.762-.086a18 18 0 0 0 1.746-.262 18 18 0 0 0 1.715-.43 18.074 18.074 0 0 0 4.773-2.254 18.5 18.5 0 0 0 2.727-2.238q.62-.628 1.183-1.308.564-.686 1.051-1.418a18 18 0 0 0 1.664-3.11 18.3 18.3 0 0 0 1.024-3.375c.113-.578.203-1.16.257-1.75q.09-.877.09-1.761t-.09-1.762a17.5 17.5 0 0 0-.687-3.46 18 18 0 0 0-.594-1.665 18.094 18.094 0 0 0-2.715-4.527q-.563-.68-1.183-1.309a18.513 18.513 0 0 0-2.727-2.238 18.073 18.073 0 0 0-9.996-3.031h-71.965v-35.98h107.946c1.77 0 3.53-.087 5.293-.263a53.938 53.938 0 0 0 15.363-3.848 53 53 0 0 0 4.789-2.265 53.953 53.953 0 0 0 8.797-5.879 53.7 53.7 0 0 0 7.48-7.48 53.923 53.923 0 0 0 8.145-13.586 53.938 53.938 0 0 0 3.848-15.363c.171-1.762.261-3.524.261-5.29V79.55a53.926 53.926 0 0 0-2.324-15.668 54.12 54.12 0 0 0-6.773-14.32 55 55 0 0 0-3.157-4.253 53.7 53.7 0 0 0-11.734-10.637 54 54 0 0 0-4.543-2.723 53 53 0 0 0-4.79-2.265 53.938 53.938 0 0 0-15.363-3.848 53 53 0 0 0-5.292-.262m17.992 197.906q0 .881-.086 1.762a19 19 0 0 1-.258 1.746 20 20 0 0 1-.43 1.715 18 18 0 0 1-.597 1.66 18 18 0 0 1-.754 1.598 17.98 17.98 0 0 1-5.871 6.477q-.735.49-1.516.906a17.5 17.5 0 0 1-3.258 1.351q-.844.256-1.71.43-.868.17-1.747.258-.88.086-1.765.086H61.559q-.886 0-1.766-.086a19 19 0 0 1-1.746-.258 18.3 18.3 0 0 1-3.375-1.023 18 18 0 0 1-1.594-.758 18 18 0 0 1-1.516-.906 17.935 17.935 0 0 1-2.727-2.238 17.98 17.98 0 0 1-3.898-5.836 18 18 0 0 1-.597-1.66 18.6 18.6 0 0 1-.688-3.462 18 18 0 0 1-.086-1.762V79.55a17.8 17.8 0 0 1 .348-3.51 17.558 17.558 0 0 1 1.023-3.375c.223-.544.477-1.08.754-1.599q.416-.78.907-1.511a18 18 0 0 1 3.547-3.914q.686-.558 1.417-1.051a18.573 18.573 0 0 1 3.11-1.664 18.258 18.258 0 0 1 3.375-1.023q.867-.171 1.746-.258a18 18 0 0 1 1.766-.086h251.875q.886-.001 1.765.086t1.746.257a18.3 18.3 0 0 1 3.375 1.024 18.6 18.6 0 0 1 3.11 1.664 18 18 0 0 1 5.87 6.476q.419.782.755 1.598.339.815.597 1.664.253.844.43 1.711.17.867.258 1.746.086.88.086 1.766Zm0 0"/></svg>