<svg xmlns="http://www.w3.org/2000/svg" width="500" viewBox="0 0 375 375" height="500" version="1.0"><defs><clipPath id="a"><path d="M46.14 46.14H319v282.75H46.14Zm0 0"/></clipPath></defs><g clip-path="url(#a)"><path fill="#6a737d" d="M71.39 46.918c-11.062 2.367-19.808 10.18-23.675 21.133l-1.344 3.765-.125 30.868c-.16 34.773-.121 35.34 3.2 42.175 2.085 4.313 4.788 7.743 8.394 10.676 1.36 1.13 17.578 10.442 36.043 20.692l33.539 18.656.266 40.71c.246 36.56.351 41.032 1.078 43.786 1.8 6.75 6.058 13.344 11.148 17.266 2.563 1.96 45.676 26.168 52.07 29.226 4.668 2.227 9.368 3.145 14.598 2.824 8.074-.457 15.3-3.675 20.938-9.293 3.675-3.675 6.183-7.773 7.933-12.933l1.274-3.766.16-31.328.156-31.344 33.254-20.25c18.289-11.148 34.441-21.168 35.887-22.281 3.57-2.723 6.785-6.664 8.996-11.043 3.34-6.629 3.375-7.035 3.215-38.062l-.141-27.563-1.324-3.766c-4.207-11.875-14.082-19.879-26.504-21.449-4.297-.55-9.934.086-14.031 1.57-1.61.586-14.082 7.262-27.707 14.825-13.622 7.562-24.985 13.765-25.25 13.765-.247 0-29.383-16.875-64.743-37.511-35.34-20.621-65.484-38.114-66.965-38.875-5.816-2.97-13.644-3.903-20.34-2.473m32 40.64 24.032 14.047.125 30.993c.105 28.82.07 30.957-.672 30.675-2.387-.918-51.898-28.75-52.586-29.562-.762-.899-.812-3.004-.812-29.227V76.23l1.378-1.375c.97-.992 1.82-1.378 2.934-1.363 1.184.02 7.453 3.465 25.602 14.067m80.027 46.683 26.219 15.32v29.81c0 16.398-.07 29.808-.157 29.808-.09 0-12.335-6.77-27.21-15.02l-27.055-15.02-.121-30.71-.11-30.711 1.114.62c.601.337 12.902 7.493 27.32 15.903m105.398-11.062c.758.39 1.59 1.132 1.856 1.625.316.586.496 9.418.496 25.144 0 22.422-.074 24.332-.832 25.215-.461.531-11.856 7.688-25.32 15.902-13.485 8.22-25.305 15.446-26.274 16.063l-1.77 1.113.02-29.332.016-29.347 21.258-11.77c31.308-17.352 28.148-15.848 30.55-14.613m-106.16 102.363 26.965 14.965.016 28.64c0 24.95-.086 28.84-.723 30.059-.742 1.43-2.297 2.313-4.082 2.313-1.059 0-46.508-25.036-48.414-26.7l-1.203-1.004-.121-31.613c-.074-17.387.035-31.61.226-31.61.196 0 12.493 6.731 27.336 14.95" fill-rule="evenodd"/></g></svg>