<svg xmlns="http://www.w3.org/2000/svg" width="500" viewBox="0 0 375 375" height="500" version="1.0"><path fill="#6a737d" d="M128.113 42.328c0-12.984 10.528-23.512 23.512-23.512h70.54c12.987 0 23.515 10.528 23.515 23.512v70.54c0 2.03-.258 4-.743 5.878a23.49 23.49 0 0 1 .743 5.879v58.781h29.39V136.38c0-9.738 7.895-17.633 17.633-17.633 9.742 0 17.637 7.895 17.637 17.633v47.027h47.027c9.738 0 17.633 7.895 17.633 17.633 0 9.742-7.895 17.637-17.633 17.637h-47.726c-3.47 42.758-19.657 76.883-45.317 101.02-28.894 27.179-68.066 40.058-109.758 40.058-38.07 0-74.02-10.727-102.015-33.309-28.2-22.75-47.008-56.484-52.258-99.804-3.012-24.848 17.602-43.235 39.648-43.235h5.88v-58.781c0-12.988 10.523-23.516 23.511-23.516h58.781Zm0 94.05H81.086v47.028h47.027Zm-88.172 82.298c-1.691 0-3.039.691-3.832 1.512-.703.73-.898 1.421-.8 2.21 4.25 35.082 18.996 60.145 39.386 76.594 20.602 16.617 48.285 25.492 79.871 25.492 34.598 0 64.496-10.632 85.594-30.48 17.922-16.856 30.774-41.55 34.074-75.328Zm123.442-35.27h47.027V136.38h-47.027Zm0-82.297h47.027V54.086h-47.027Zm0 0"/></svg>