<svg xmlns="http://www.w3.org/2000/svg" width="500" height="500" version="1.0" viewBox="0 0 375 375"><path fill="#6a737d" d="M359.52 156.645c-7.184-4.735-16.008-7.56-25.489-7.56q-1.635 0-3.234.106l.14-.011a90 90 0 0 0-15.304 1.347l.539-.082c-2.754-15.902-12.012-29.238-24.867-37.394l-.223-.13-5.027-2.905-3.305 4.78c-3.937 6-7.02 12.985-8.86 20.45l-.093.457c-1.043 3.797-1.64 8.156-1.64 12.656a49.24 49.24 0 0 0 7.663 26.461l-.117-.199c-7.465 3.504-16.183 5.719-25.36 6.14H22.994c-6.048.012-10.946 4.9-10.97 10.934-.011.657-.011 1.442-.011 2.227 0 20.52 3.715 40.172 10.511 58.324l-.375-1.148c6.54 19.136 18.891 34.863 34.922 45.48l.328.2c20.438 10.581 44.625 16.78 70.254 16.78 2.426 0 4.828-.058 7.23-.163l-.339.011h.703c14.906 0 29.473-1.418 43.594-4.125l-1.442.235c21.036-3.938 39.786-11.004 56.778-20.778l-.867.457c14.73-8.613 27.316-18.996 38.027-31.078l.14-.164c15.528-18.281 28.16-39.621 36.856-62.871l.48-1.465h3.235a60 60 0 0 0 2.144.047c14.368 0 27.422-5.637 37.067-14.824l-.024.023a42.8 42.8 0 0 0 10.23-15.011l.106-.282 1.43-4.207ZM44.414 174.012h31.008a2.713 2.713 0 0 0 2.695-2.707v-27.61a2.713 2.713 0 0 0-2.695-2.707H44.414a2.713 2.713 0 0 0-2.695 2.707v27.621a2.696 2.696 0 0 0 2.695 2.696h.012Zm42.703 0h30.985a2.71 2.71 0 0 0 2.707-2.707v-27.61a2.713 2.713 0 0 0-2.696-2.707H87.105a2.72 2.72 0 0 0-2.718 2.719v27.598a2.72 2.72 0 0 0 2.718 2.707Zm43.336 0h31.008a2.713 2.713 0 0 0 2.695-2.707v-27.61a2.713 2.713 0 0 0-2.695-2.707h-31.008a2.713 2.713 0 0 0-2.695 2.707v27.61a2.71 2.71 0 0 0 2.707 2.707Zm42.844 0h30.973c1.5 0 2.707-1.207 2.718-2.707v-27.598a2.72 2.72 0 0 0-2.718-2.719h-30.973a2.71 2.71 0 0 0-2.707 2.707v27.621a2.696 2.696 0 0 0 2.695 2.696zm-86.18-39.703h30.985a2.72 2.72 0 0 0 2.707-2.72v-27.597a2.71 2.71 0 0 0-2.707-2.707H87.117a2.72 2.72 0 0 0-2.719 2.707v27.598a2.736 2.736 0 0 0 2.72 2.719m43.336 0h31.008a2.723 2.723 0 0 0 2.695-2.72v-27.597a2.71 2.71 0 0 0-2.707-2.707h-30.972a2.71 2.71 0 0 0-2.707 2.707v27.598a2.726 2.726 0 0 0 2.707 2.719Zm42.844 0h30.973a2.736 2.736 0 0 0 2.718-2.72v-27.597a2.72 2.72 0 0 0-2.718-2.707h-30.973a2.71 2.71 0 0 0-2.707 2.707v27.598c0 1.5 1.207 2.707 2.707 2.719m0-39.704h30.973a2.72 2.72 0 0 0 2.718-2.718v-27.61a2.72 2.72 0 0 0-2.718-2.707h-30.973a2.71 2.71 0 0 0-2.707 2.707v27.621a2.696 2.696 0 0 0 2.695 2.696h.012Zm43.207 79.407h30.984c1.5 0 2.707-1.207 2.719-2.707v-27.598a2.72 2.72 0 0 0-2.719-2.719h-30.984a2.7 2.7 0 0 0-2.707 2.707v27.61a2.71 2.71 0 0 0 2.707 2.707m0 0"/></svg>