<svg xmlns="http://www.w3.org/2000/svg" width="500" viewBox="0 0 375 375" height="500" version="1.0"><path fill="#6a737d" d="M88.324 56.172c6.188-15.559 28.48-14.746 33.524 1.223l23.785 75.312h83.734l23.785-75.312c5.043-15.97 27.336-16.782 33.528-1.223l33.886 85.172 13.102 32.922a27.394 27.394 0 0 1-7.188 30.543l-129.847 116.18a13.697 13.697 0 0 1-18.266 0L48.52 204.808a27.394 27.394 0 0 1-7.188-30.543l13.102-32.922ZM220.72 160.105H154.28L187.5 265.293Zm-61.332 107.141-33.832-107.14H76.453l-9.664 24.289ZM87.355 132.707h29.547l-13.074-41.402Zm128.258 134.54 33.832-107.142h49.102l9.664 24.29Zm72.035-134.54h-29.55l13.074-41.402Zm0 0" fill-rule="evenodd"/></svg>