<svg xmlns="http://www.w3.org/2000/svg" width="500" viewBox="0 0 375 375" height="500" version="1.0"><defs><clipPath id="a"><path d="M88 60.402h199v254.25H88Zm0 0"/></clipPath></defs><g clip-path="url(#a)"><path fill="#6a737d" d="M88.203 60.402V219.27h87.379c1.3 0 2.598-.032 3.898-.094a80.874 80.874 0 0 0 7.758-.766 84.75 84.75 0 0 0 3.84-.664 79.78 79.78 0 0 0 11.266-3.117 82.154 82.154 0 0 0 7.199-2.984 78.493 78.493 0 0 0 6.875-3.676 78.053 78.053 0 0 0 6.484-4.332 78.99 78.99 0 0 0 3.07-2.399 73.405 73.405 0 0 0 2.954-2.547 73.33 73.33 0 0 0 2.824-2.687 76.46 76.46 0 0 0 2.688-2.824 76.106 76.106 0 0 0 2.546-2.95 80.84 80.84 0 0 0 4.645-6.262 80.4 80.4 0 0 0 4.008-6.688 78.293 78.293 0 0 0 3.332-7.047c.5-1.202.965-2.413 1.402-3.635a78.97 78.97 0 0 0 1.227-3.703 82.161 82.161 0 0 0 1.039-3.758c.316-1.262.601-2.528.851-3.805.254-1.273.477-2.555.668-3.84a80.872 80.872 0 0 0 .766-7.758 81.137 81.137 0 0 0 0-7.797 80.872 80.872 0 0 0-.766-7.757 79.646 79.646 0 0 0-.668-3.84 74.291 74.291 0 0 0-.851-3.805 77.49 77.49 0 0 0-2.266-7.46 80.403 80.403 0 0 0-2.98-7.203 82.824 82.824 0 0 0-1.754-3.481A78.015 78.015 0 0 0 243.715 99a78.053 78.053 0 0 0-4.332-6.484 82.196 82.196 0 0 0-2.399-3.075 76.105 76.105 0 0 0-2.547-2.949 76.46 76.46 0 0 0-2.687-2.824 76.565 76.565 0 0 0-5.777-5.234 79.089 79.089 0 0 0-3.07-2.403 85.076 85.076 0 0 0-3.188-2.242 80.4 80.4 0 0 0-6.688-4.008 78.493 78.493 0 0 0-7.047-3.332 77.575 77.575 0 0 0-7.34-2.629 79.782 79.782 0 0 0-7.563-1.895 79.621 79.621 0 0 0-7.71-1.14 76.139 76.139 0 0 0-3.887-.289 81.137 81.137 0 0 0-3.898-.094Zm180.223 123.97c-16.64 34.538-52.004 58.433-92.844 58.433H88.203v71.789h119.152a79.283 79.283 0 0 0 16.735-1.785 81.764 81.764 0 0 0 5.45-1.38c1.8-.523 3.577-1.109 5.335-1.761a78.049 78.049 0 0 0 5.2-2.133 76.303 76.303 0 0 0 5.034-2.496 79.649 79.649 0 0 0 9.48-6.023 77.361 77.361 0 0 0 4.395-3.5 79.38 79.38 0 0 0 4.141-3.801 79.123 79.123 0 0 0 7.418-8.434 78.918 78.918 0 0 0 6.156-9.395 80.39 80.39 0 0 0 2.567-5 79.557 79.557 0 0 0 7.23-27.008c.156-1.866.25-3.737.277-5.612a79.038 79.038 0 0 0-.64-11.215 79.436 79.436 0 0 0-3.895-16.371 78.967 78.967 0 0 0-2.062-5.23 78.162 78.162 0 0 0-2.422-5.067 77.106 77.106 0 0 0-2.777-4.887 77.785 77.785 0 0 0-3.114-4.68 80.236 80.236 0 0 0-3.437-4.445Zm0 0"/></g></svg>