<svg xmlns="http://www.w3.org/2000/svg" width="500" viewBox="0 0 375 375" height="500" version="1.0"><path fill="#6a737d" d="m317.5 254.926-61.66-14.422-16.375-31.3 80.648-70.657c23.914 9.062 39.86 31.996 39.86 57.664 0 26.414-17.418 50.434-42.473 58.715m-46.355 72.906c-9.606 0-19.016-3.223-26.704-9.133l12.192-63.512 56.008 13.106c1.78 4.832 2.68 9.992 2.68 15.367 0 24.36-19.813 44.172-44.176 44.172m-41.082-9.133a92.097 92.097 0 0 1-23.574 23.914 92.323 92.323 0 0 1-9.602 5.867 91.893 91.893 0 0 1-20.977 8.02 92.241 92.241 0 0 1-22.293 2.715c-51.015 0-92.523-41.504-92.523-92.516a93.6 93.6 0 0 1 1.808-18.414l80.48-72.738 82.122 37.43 18.184 34.742ZM15.054 178.797c0-26.406 17.414-50.414 42.46-58.715l61.524 14.531 14.441 30.856-78.652 71.09c-23.867-9.09-39.773-32.051-39.773-57.762m88.824-131.625c2.41-.004 4.8.191 7.18.582 2.375.39 4.707.969 6.988 1.738a44.777 44.777 0 0 1 6.613 2.852 44.02 44.02 0 0 1 6.063 3.886l-12.282 63.735-56.058-13.235c-1.781-4.835-2.676-9.996-2.676-15.375 0-24.363 19.813-44.183 44.172-44.183m41.453 9.18c17.258-25.13 45.645-40.118 76.082-40.118 50.879 0 92.266 41.395 92.266 92.274 0 6.222-.586 12.172-1.782 18.137l-82.53 72.312-81.798-37.289-15.968-34.098Zm229.094 140.03c0-31.327-19.426-58.718-48.656-69.378a104.13 104.13 0 0 0 1.953-20.086c0-58.238-47.383-105.625-105.633-105.625-34.024 0-65.676 16.316-85.563 43.812a55.888 55.888 0 0 0-16.18-8.734c-2.917-1-5.902-1.75-8.945-2.254a55.338 55.338 0 0 0-9.191-.754c-30.918 0-56.07 25.153-56.07 56.067a55.873 55.873 0 0 0 3.507 19.539C20.586 119.453.602 147.489.602 178.62c0 31.492 19.52 59.004 48.886 69.59a106.547 106.547 0 0 0-1.925 20.078c0 58.106 47.265 105.375 105.374 105.375 34.11 0 65.743-16.383 85.52-43.992 9.844 7.73 21.879 11.973 34.363 11.973 30.914 0 56.067-25.141 56.067-56.06a56.003 56.003 0 0 0-3.504-19.546c29.062-10.48 49.047-38.52 49.047-69.656"/></svg>