<svg xmlns="http://www.w3.org/2000/svg" width="500" viewBox="0 0 375 375" height="500" version="1.0"><path fill="#6a737d" d="M41.375 182.469c-16.219-28.281-19.516-54.75-7.984-74.703 15.437-26.75 54.187-36.094 103.187-27.172.336.047.664.125.984.238a4.95 4.95 0 0 1 1.735 1.035 4.986 4.986 0 0 1 1.183 1.633c.141.309.25.629.325.96a5.11 5.11 0 0 1 .047 2.016c-.063.337-.157.66-.282.977a5.186 5.186 0 0 1-.472.899 4.767 4.767 0 0 1-.641.785c-.238.242-.5.453-.785.64a5.186 5.186 0 0 1-.899.473c-.316.125-.64.219-.976.281a5.11 5.11 0 0 1-2.016-.047c-45.312-8.25-79.86.079-92.687 22.313-9.453 16.36-6.61 39.203 8 64.687a5.068 5.068 0 0 1 .727 1.887 5.2 5.2 0 0 1 .062 1.016c-.012.34-.059.675-.14 1.008a5.164 5.164 0 0 1-.34.957 4.988 4.988 0 0 1-2.043 2.207 4.823 4.823 0 0 1-.93.414 4.79 4.79 0 0 1-.992.218c-.34.043-.676.047-1.016.016a4.855 4.855 0 0 1-1-.187 5.075 5.075 0 0 1-.942-.387 5.08 5.08 0 0 1-1.554-1.293 5.153 5.153 0 0 1-.551-.856ZM274.5 87.64c28.672.375 49.313 9.312 58.61 25.406 12.812 22.172 2.812 56.172-26.844 91.203-.239.246-.45.516-.633.809-.18.289-.332.593-.453.918-.121.32-.207.652-.258.992-.055.34-.07.68-.055 1.023a4.996 4.996 0 0 0 .516 1.973 4.97 4.97 0 0 0 1.254 1.605 4.987 4.987 0 0 0 2.797 1.176c.34.031.683.027 1.023-.012.34-.035.676-.109 1-.214a5.044 5.044 0 0 0 2.465-1.77c32.094-37.906 43.297-76.031 27.89-102.734-11.343-19.641-35.312-30-67.171-30.422a4.95 4.95 0 0 0-2.012.277 5.011 5.011 0 0 0-2.414 1.813c-.2.277-.367.57-.508.882a5.242 5.242 0 0 0-.316.973 4.9 4.9 0 0 0-.118 1.012 4.95 4.95 0 0 0 .387 1.992c.13.316.293.617.485.898a5.006 5.006 0 0 0 1.457 1.414c.285.184.59.336.91.461.32.121.648.207.984.262.34.055.68.078 1.02.063ZM245.531 325.75a4.76 4.76 0 0 0-.89-.422 4.775 4.775 0 0 0-.957-.242c-.329-.05-.657-.066-.985-.05a4.832 4.832 0 0 0-.976.144c-.32.078-.633.187-.93.328a5.094 5.094 0 0 0-1.578 1.168 5.286 5.286 0 0 0-.59.793c-14.594 24.265-32.5 37.484-50.938 37.484-25.656 0-50.125-25.734-65.625-69.031a5.23 5.23 0 0 0-.402-.922 5.482 5.482 0 0 0-.578-.824 5.315 5.315 0 0 0-.73-.692 5.056 5.056 0 0 0-2.793-1.04 5.073 5.073 0 0 0-1.98.286 4.828 4.828 0 0 0-.907.434c-.29.172-.559.375-.805.602-.25.23-.472.48-.668.754a4.973 4.973 0 0 0-.953 2.82 5.069 5.069 0 0 0 .348 1.973C129.359 346.156 156.813 375 187.656 375c22.5 0 43.328-15.344 59.578-42.344a4.76 4.76 0 0 0 .422-.89c.114-.313.196-.63.242-.957.051-.329.067-.657.051-.985a4.832 4.832 0 0 0-.144-.976 4.867 4.867 0 0 0-.328-.93 5.02 5.02 0 0 0-1.168-1.578 5.094 5.094 0 0 0-.793-.59Zm114.938-40.531c0 1.101-.078 2.195-.23 3.281a24.469 24.469 0 0 1-.676 3.223 24.063 24.063 0 0 1-4.54 8.7 23.358 23.358 0 0 1-2.253 2.397 24.09 24.09 0 0 1-2.56 2.07 24.034 24.034 0 0 1-5.844 2.996 24.133 24.133 0 0 1-6.432 1.31 24.38 24.38 0 0 1-6.551-.485 24.149 24.149 0 0 1-8.977-3.961c-38.36 22.578-111.656 11.094-180.625-28.75-29.375-16.953-55.11-37.375-74.922-59.14a4.917 4.917 0 0 1-.632-.79 5.005 5.005 0 0 1-.813-2.879c.008-.34.05-.675.129-1.004a4.992 4.992 0 0 1 .836-1.828 4.98 4.98 0 0 1 1.492-1.355 4.88 4.88 0 0 1 1.899-.664 5.148 5.148 0 0 1 2.007.137c.328.09.641.21.946.363a5.065 5.065 0 0 1 1.574 1.254c19.094 20.984 44.016 40.765 72.5 57.203 65.11 37.594 133.64 48.75 168.703 29.781a24.095 24.095 0 0 1-2.816-15.953 24.202 24.202 0 0 1 1.535-5.273c.355-.848.758-1.672 1.21-2.473.45-.8.942-1.574 1.481-2.32a25.243 25.243 0 0 1 1.738-2.133c.622-.68 1.278-1.32 1.973-1.922a23.93 23.93 0 0 1 4.531-3.106 23.67 23.67 0 0 1 5.118-2 24.48 24.48 0 0 1 2.699-.55 23.993 23.993 0 0 1 8.215.234 24.064 24.064 0 0 1 17.898 15.535 23.772 23.772 0 0 1 1.234 5.356c.106.91.157 1.828.153 2.746Zm-297.844 0a23.663 23.663 0 0 1-.363 4.199 23.963 23.963 0 0 1-2.871 7.89 23.772 23.772 0 0 1-2.418 3.45 24.168 24.168 0 0 1-2.989 2.976 23.806 23.806 0 0 1-3.46 2.407 24.112 24.112 0 0 1-7.902 2.84 24.016 24.016 0 0 1-8.395-.051 24.112 24.112 0 0 1-4.067-1.118 24.076 24.076 0 0 1-14.305-14.59 24.055 24.055 0 0 1-1.351-8.284c.016-1.41.16-2.81.426-4.196a24.081 24.081 0 0 1 1.148-4.055 24.071 24.071 0 0 1 1.844-3.789 23.807 23.807 0 0 1 2.473-3.414 24.111 24.111 0 0 1 6.527-5.28c-3.64-44.954 43.594-105.22 115-146.438 29.656-17.125 60.531-29.282 89.547-35.485a5.053 5.053 0 0 1 3.582.856c.258.18.5.383.719.61.218.226.417.468.593.733.172.262.32.536.446.829a5.102 5.102 0 0 1 .39 1.832 5 5 0 0 1-.3 1.851c-.11.293-.247.578-.407.848-.16.27-.347.523-.554.762a5.08 5.08 0 0 1-2.36 1.492c-27.969 6-57.86 17.765-86.64 34.375-67.25 38.828-111.688 94.797-110.125 134.797.593-.047 1.171-.094 1.765-.094 13.281 0 24.063 10.781 24.063 24.062Zm101-261.156c.027-.77.094-1.536.195-2.301a23.617 23.617 0 0 1 1.04-4.489c.245-.73.523-1.445.84-2.148a23.7 23.7 0 0 1 2.273-4.012 24.41 24.41 0 0 1 1.41-1.824 26.796 26.796 0 0 1 1.582-1.68 24.81 24.81 0 0 1 1.738-1.52 25.52 25.52 0 0 1 1.871-1.347 24.794 24.794 0 0 1 1.996-1.16A23.993 23.993 0 0 1 189.976.977c.766.074 1.528.183 2.286.332a23.993 23.993 0 0 1 6.512 2.273c.683.356 1.347.742 1.996 1.16a24.81 24.81 0 0 1 3.61 2.867c.55.536 1.077 1.098 1.58 1.68a24.41 24.41 0 0 1 2.645 3.774c.38.671.727 1.359 1.04 2.062.316.703.593 1.418.84 2.148a23.617 23.617 0 0 1 1.04 4.488c.1.766.166 1.532.194 2.302 0 .359-.031.703-.047 1.046 39.828 20.578 67.5 90.782 67.5 171.922 0 33.36-4.656 65.375-13.344 93.125a4.877 4.877 0 0 1-.355.95 5.126 5.126 0 0 1-.54.859c-.21.27-.44.515-.703.734a5.127 5.127 0 0 1-.832.582 5.048 5.048 0 0 1-4.87 0 5.587 5.587 0 0 1-.837-.578 5.174 5.174 0 0 1-.699-.734 5.009 5.009 0 0 1-.895-1.813 5.122 5.122 0 0 1-.16-1.004 5.054 5.054 0 0 1 .297-1.996c8.375-26.75 12.891-57.765 12.891-90.125 0-76.406-25.406-142.11-60.11-161.922a23.608 23.608 0 0 1-2.124 3.391c-.801 1.07-1.688 2.07-2.657 2.992a23.905 23.905 0 0 1-6.605 4.469 24.049 24.049 0 0 1-26.156-4.098 24.2 24.2 0 0 1-4.922-6.273 23.674 23.674 0 0 1-1.613-3.66 23.717 23.717 0 0 1-.985-3.88 23.925 23.925 0 0 1-.328-3.988ZM184 180.016a17.156 17.156 0 0 0-3.25 1.043 17.449 17.449 0 0 0-2.988 1.656 17.307 17.307 0 0 0-2.602 2.207 16.751 16.751 0 0 0-2.125 2.672 17.396 17.396 0 0 0-1.563 3.035 19.7 19.7 0 0 0-.55 1.617 17.687 17.687 0 0 0-.61 3.36c-.046.57-.066 1.136-.058 1.707a17.804 17.804 0 0 0 .39 3.394c.122.555.27 1.106.442 1.648a16.891 16.891 0 0 0 1.36 3.133 17.331 17.331 0 0 0 3.109 4.055c.41.398.84.773 1.285 1.129a17.968 17.968 0 0 0 2.871 1.848c.508.261 1.023.496 1.555.703a17.137 17.137 0 0 0 3.285.938 17.491 17.491 0 0 0 3.402.276c.57-.007 1.137-.046 1.703-.113a16.51 16.51 0 0 0 1.688-.277c.558-.121 1.105-.27 1.648-.442a16.77 16.77 0 0 0 1.598-.605 17.263 17.263 0 0 0 2.98-1.656c.47-.324.922-.672 1.356-1.04a17.62 17.62 0 0 0 1.246-1.167c.394-.41.77-.84 1.125-1.285a16.876 16.876 0 0 0 1.848-2.867c.261-.508.496-1.024.707-1.555a18.3 18.3 0 0 0 .546-1.618 17.572 17.572 0 0 0 .668-5.063 17.723 17.723 0 0 0-.39-3.386 17.156 17.156 0 0 0-1.043-3.25 17.378 17.378 0 0 0-2.696-4.336 16.756 16.756 0 0 0-1.167-1.246 16.751 16.751 0 0 0-2.668-2.12c-.48-.31-.973-.595-1.48-.856a16.907 16.907 0 0 0-1.556-.707 17.331 17.331 0 0 0-4.973-1.16 17.722 17.722 0 0 0-1.702-.06 17.8 17.8 0 0 0-1.707.11c-.567.067-1.125.157-1.684.278Zm0 0"/></svg>