<svg xmlns="http://www.w3.org/2000/svg" width="500" viewBox="0 0 375 375" height="500" version="1.0"><defs><clipPath id="a"><path d="M35.27 111h304.5v152H35.27Zm0 0"/></clipPath></defs><g clip-path="url(#a)"><path fill="#6a737d" d="M35.27 187.152c0-20.605 7.378-38.285 22.132-53.039 14.758-14.758 32.438-22.136 53.04-22.136 20.605 0 38.285 7.378 53.038 22.136l24.223 22.969 24.223-23.387c14.48-14.48 32.02-21.718 52.62-21.718 20.329 0 37.938 7.378 52.833 22.136 14.894 14.754 22.344 32.434 22.344 53.04 0 20.6-7.45 38.28-22.344 53.038-14.895 14.754-32.504 22.133-52.832 22.133-20.602 0-38.281-7.379-53.04-22.133l-23.804-22.972-24.64 23.39c-14.477 14.477-32.016 21.715-52.622 21.715-20.601 0-38.28-7.379-53.039-22.133-14.754-14.757-22.132-32.437-22.132-53.039Zm75.171-31.742c-8.629 0-16.078 3.133-22.343 9.399-6.262 6.261-9.395 13.71-9.395 22.343 0 8.907 3.063 16.426 9.188 22.551s13.644 9.188 22.55 9.188c8.91 0 16.43-3.063 22.555-9.188l22.969-22.55-22.969-22.137c-6.406-6.403-13.922-9.606-22.555-9.606Zm176.66 54.293c6.126-6.125 9.188-13.644 9.188-22.55 0-8.91-3.062-16.43-9.187-22.555s-13.575-9.188-22.344-9.188c-8.77 0-16.219 3.063-22.344 9.188l-23.387 22.554 22.97 22.133c6.124 6.125 13.644 9.258 22.55 9.399 8.91.136 16.43-2.856 22.555-8.98Zm0 0"/></g></svg>