<svg xmlns="http://www.w3.org/2000/svg" width="500" viewBox="0 0 375 375" height="500" version="1.0"><defs><clipPath id="a"><path d="M56.305 72h262.5v228h-262.5Zm0 0"/></clipPath></defs><g clip-path="url(#a)"><path fill="#6a737d" d="M249.125 72.715h-21.918a12.311 12.311 0 0 0-10.352 5.648l-29.3 45.575-29.297-45.575a12.44 12.44 0 0 0-1.965-2.351 12.205 12.205 0 0 0-2.488-1.793 12.31 12.31 0 0 0-5.899-1.508H68.613a12.31 12.31 0 0 0-11.902 9.176 12.25 12.25 0 0 0-.402 3.195A12.264 12.264 0 0 0 58 91.246l118.945 202.649a12.353 12.353 0 0 0 1.957 2.52c.762.753 1.61 1.394 2.54 1.929.93.531 1.913.937 2.953 1.21a12.296 12.296 0 0 0 13.773-5.66L317.113 91.247a12.258 12.258 0 0 0 1.692-6.164 12.25 12.25 0 0 0-1.625-6.18 12.355 12.355 0 0 0-1.953-2.562 12.255 12.255 0 0 0-5.531-3.203 12.226 12.226 0 0 0-3.196-.422ZM118.812 97.32l68.743 117.848 68.742-117.844h28.715L187.555 263.36 90.102 97.324Zm0 0"/></g></svg>