<svg xmlns="http://www.w3.org/2000/svg" width="500" viewBox="0 0 375 375" height="500" version="1.0"><path fill="#6a737d" d="M175 3.121a41.016 41.016 0 0 1 25 0l123.047 39.375c16.988 5.438 28.515 21.23 28.515 39.066v82.5c0 36.704-7.48 74.586-30.542 109.739-23.043 35.12-60.59 65.922-117.934 90.344a39.834 39.834 0 0 1-31.172 0C114.57 339.723 77.024 308.922 53.98 273.8c-23.062-35.153-30.542-73.035-30.542-109.738v-82.5c0-17.836 11.527-33.63 28.515-39.067Zm14.285 33.484a5.864 5.864 0 0 0-3.57 0L62.668 75.98a5.861 5.861 0 0 0-4.074 5.582v82.5c0 31.836 6.437 62.493 24.781 90.454 18.367 27.992 49.71 54.879 102.316 77.285a4.684 4.684 0 0 0 3.618 0c52.605-22.406 83.953-49.293 102.316-77.285 18.344-27.961 24.781-58.618 24.781-90.453v-82.5a5.861 5.861 0 0 0-4.074-5.583ZM187.5 76.172a17.574 17.574 0 0 1 16.32 11.05l58.594 146.485c3.606 9.012-.777 19.242-9.793 22.848-9.012 3.605-19.242-.778-22.848-9.793l-7.3-18.246h-69.946l-7.3 18.246c-3.606 9.015-13.836 13.398-22.848 9.793-9.016-3.606-13.399-13.836-9.793-22.848L171.18 87.223a17.574 17.574 0 0 1 16.32-11.051Zm-20.91 117.187h41.82l-20.91-52.277Zm0 0"/></svg>