<svg xmlns="http://www.w3.org/2000/svg" width="500" viewBox="0 0 375 375" height="500" version="1.0"><defs><clipPath id="a"><path d="M29.48 125h315.75v145H29.48Zm0 0"/></clipPath></defs><path fill="#6a737d" d="M125.273 76.332c-4.953 2.86-10.171 10.754-10.777 27.965-.285 8.176-7.148 14.574-15.324 14.285-8.176-.289-14.57-7.148-14.285-15.324.742-21.106 7.418-42.102 25.574-52.586 18.21-10.512 39.8-5.738 58.492 4.234 7.219 3.852 9.95 12.824 6.098 20.043-3.852 7.219-12.824 9.95-20.043 6.098-15.278-8.149-24.762-7.586-29.735-4.715Zm79.434 25.695c6.3-5.222 15.64-4.343 20.86 1.957 10.949 13.215 21.453 28.286 30.988 44.801 20.547 35.59 33.218 72.05 36.632 102.633 1.704 15.266 1.184 29.793-2.382 42.254-3.594 12.555-10.59 23.918-22.328 30.691-14.2 8.2-30.594 7.035-45.602 1.57-15.059-5.48-30.559-15.863-45.336-29.351-6.043-5.516-6.469-14.887-.953-20.93 5.516-6.043 14.883-6.468 20.926-.953 13.02 11.883 25.254 19.664 35.5 23.395 10.297 3.75 16.777 2.847 20.652.613 3.246-1.875 6.512-5.695 8.656-13.187 2.172-7.586 2.856-17.973 1.422-30.817-2.863-25.64-13.847-58.2-32.844-91.101-8.738-15.137-18.3-28.832-28.148-40.72-5.219-6.296-4.344-15.636 1.957-20.855Zm0 0"/><g clip-path="url(#a)"><path fill="#6a737d" d="M315.883 191.555c0-5.723-4.227-14.184-18.832-23.317-6.934-4.336-9.043-13.476-4.707-20.414 4.34-6.937 13.476-9.043 20.414-4.707 17.906 11.196 32.754 27.473 32.754 48.438 0 21.027-14.93 37.336-32.914 48.539-6.946 4.328-16.082 2.207-20.407-4.739-4.324-6.945-2.203-16.082 4.743-20.406 14.695-9.156 18.949-17.652 18.949-23.394ZM253.914 247.5c1.371 8.066-4.059 15.715-12.125 17.086-16.918 2.875-35.223 4.434-54.293 4.434-41.094 0-79.004-7.258-107.195-19.59-14.074-6.157-26.395-13.875-35.403-23.192-9.078-9.386-15.418-21.129-15.418-34.683 0-16.395 9.207-30.012 21.442-40.278 12.277-10.3 29.02-18.53 48.09-24.586 7.797-2.472 16.125 1.84 18.601 9.641 2.473 7.797-1.84 16.125-9.64 18.602-16.801 5.332-29.657 12.035-38.012 19.043-8.395 7.043-10.852 13.105-10.852 17.578 0 3.75 1.672 8.488 7.09 14.09 5.485 5.675 14.137 11.46 25.977 16.64 23.636 10.34 57.324 17.106 95.32 17.106 17.477 0 34.117-1.43 49.332-4.016 8.067-1.367 15.719 4.059 17.086 12.125Zm0 0"/></g><path fill="#6a737d" d="M125.71 298.707c4.958 2.86 14.4 3.43 29.61-4.652 7.223-3.84 16.192-1.094 20.032 6.129 3.84 7.226 1.093 16.195-6.13 20.035-18.648 9.906-40.167 14.629-58.327 4.144-18.207-10.511-24.868-31.597-25.579-52.773-.273-8.176 6.133-15.027 14.309-15.3 8.176-.278 15.027 6.128 15.305 14.308.578 17.304 5.808 25.238 10.78 28.109Zm-17.464-81.64c-7.668-2.848-11.582-11.372-8.734-19.044 5.972-16.09 13.77-32.722 23.304-49.238 20.547-35.586 45.79-64.789 70.567-83.039 12.37-9.11 25.21-15.922 37.785-19.062 12.668-3.168 26.008-2.786 37.742 3.988 14.2 8.2 21.395 22.98 24.164 38.707 2.781 15.785 1.54 34.398-2.754 53.941-1.754 7.989-9.656 13.043-17.644 11.29-7.992-1.755-13.047-9.657-11.293-17.65 3.781-17.214 4.402-31.702 2.515-42.44-1.902-10.793-5.925-15.95-9.8-18.188-3.246-1.875-8.188-2.797-15.746-.906-7.657 1.914-16.993 6.511-27.399 14.176-20.773 15.3-43.48 41.093-62.476 74-8.739 15.132-15.817 30.261-21.188 44.73-2.848 7.672-11.371 11.582-19.043 8.734Zm0 0"/><path fill="#6a737d" d="M216.32 188.805c0 14.828-12.023 26.847-26.851 26.847s-26.852-12.02-26.852-26.847c0-14.832 12.024-26.852 26.852-26.852 14.828 0 26.851 12.02 26.851 26.852Zm0 0"/></svg>