<svg xmlns="http://www.w3.org/2000/svg" width="500" viewBox="0 0 375 375" height="500" version="1.0"><path fill="#6a737d" d="M102.629 88.484c0-7.812 6.332-14.144 14.144-14.144 7.813 0 14.145 6.332 14.145 14.144 0 7.813-6.332 14.145-14.145 14.145-7.812 0-14.144-6.332-14.144-14.145Zm28.289 40.02c16.48-5.824 28.289-21.543 28.289-40.02 0-23.433-19-42.433-42.434-42.433-23.433 0-42.433 19-42.433 42.433 0 18.477 11.808 34.196 28.289 40.02v117.984c-16.48 5.825-28.29 21.543-28.29 40.02 0 23.437 19 42.433 42.434 42.433 23.434 0 42.434-18.996 42.434-42.433 0-17.914-11.102-33.238-26.805-39.461 4.907-18.016 21.38-31.262 40.95-31.262h28.289c46.87 0 84.867-37.996 84.867-84.867v-2.414c16.48-5.824 28.289-21.543 28.289-40.02 0-23.433-18.996-42.433-42.434-42.433-23.437 0-42.433 19-42.433 42.433 0 18.477 11.808 34.196 28.289 40.02v2.414c0 31.246-25.332 56.578-56.578 56.578h-28.29c-15.921 0-30.613 5.262-42.433 14.14Zm141.445-25.875c7.813 0 14.145-6.332 14.145-14.145 0-7.812-6.332-14.144-14.145-14.144-7.812 0-14.144 6.332-14.144 14.144 0 7.813 6.332 14.145 14.144 14.145ZM102.63 286.508c0-7.813 6.332-14.145 14.144-14.145 7.813 0 14.145 6.332 14.145 14.145 0 7.812-6.332 14.144-14.145 14.144-7.812 0-14.144-6.332-14.144-14.144Zm0 0" fill-rule="evenodd"/></svg>