<svg xmlns="http://www.w3.org/2000/svg" width="500" viewBox="0 0 375 375" height="500" version="1.0"><defs><clipPath id="a"><path d="M58 34.902h259V338H58Zm0 0"/></clipPath></defs><g clip-path="url(#a)"><path fill="#6a737d" d="M92.125 63.516a4.768 4.768 0 0 0-4.77 4.765V250.45c0 1.703.91 3.278 2.387 4.13l92.68 53.456a4.772 4.772 0 0 0 4.672.055l98.066-53.738a4.777 4.777 0 0 0 2.48-4.184V68.281a4.768 4.768 0 0 0-4.769-4.765ZM58.746 68.28c0-18.433 14.945-33.379 33.379-33.379h190.746c18.434 0 33.379 14.946 33.379 33.38v181.886a33.384 33.384 0 0 1-17.34 29.273l-98.066 53.739a33.385 33.385 0 0 1-32.719-.36l-92.68-53.457a33.382 33.382 0 0 1-16.699-28.914Zm71.527 47.688c0-7.903 6.407-14.305 14.309-14.305h88.035c7.899 0 14.305 6.402 14.305 14.305 0 7.902-6.406 14.304-14.305 14.304h-73.73v32.649h73.73c7.899 0 14.305 6.402 14.305 14.305v55.023a14.315 14.315 0 0 1-7.906 12.797l-44.02 22.008a14.322 14.322 0 0 1-12.797 0l-44.015-22.008a14.311 14.311 0 0 1-7.91-12.797v-11.004c0-7.902 6.406-14.309 14.308-14.309 7.898 0 14.305 6.407 14.305 14.31v2.16l29.71 14.859 29.712-14.86v-31.875h-73.727c-7.902 0-14.309-6.402-14.309-14.304Zm0 0"/></g></svg>