<svg xmlns="http://www.w3.org/2000/svg" width="500" viewBox="0 0 375 375" height="500" version="1.0"><path fill="#6a737d" d="M105.594 73.695h48.129v134.91c0 60.793-29.141 82.016-75.692 82.016-11.394 0-25.972-1.898-35.469-5.066l5.395-38.957c6.645 2.218 15.203 3.8 24.7 3.8 20.273 0 32.937-9.191 32.937-42.117Zm89.922 164.047c12.664 6.649 32.937 13.309 53.52 13.309 22.171 0 33.886-9.188 33.886-23.43 0-12.988-10.137-20.902-35.79-29.77-35.46-12.663-58.894-32.296-58.894-63.656 0-36.418 30.719-63.965 80.75-63.965 24.38 0 41.805 4.75 54.469 10.766l-10.766 38.633c-8.238-4.117-23.75-10.133-44.332-10.133-20.902 0-31.039 9.817-31.039 20.578 0 13.617 11.715 19.633 39.586 30.399C314.59 174.406 332 194.043 332 224.437c0 35.79-27.227 66.184-85.813 66.184-24.378 0-48.453-6.644-60.488-13.305l9.817-39.586Zm0 0"/></svg>