<svg xmlns="http://www.w3.org/2000/svg" width="500" viewBox="0 0 375 375" height="500" version="1.0"><defs><clipPath id="a"><path d="M45.152 50H330v275H45.152Zm0 0"/></clipPath></defs><g clip-path="url(#a)"><path fill="#6a737d" d="M322.7 247.895s-35.34 95.296-156.997 73.109c-1.914-.356-3.75-1.02-5.61-1.582-.437-.129-.874-.266-1.308-.39a176.6 176.6 0 0 1-5.433-1.778c-.207-.074-.403-.14-.61-.215a175.862 175.862 0 0 1-4.87-1.805c-.423-.164-.84-.32-1.263-.492a144.843 144.843 0 0 1-5.156-2.148c-.316-.137-.617-.278-.937-.418a163.182 163.182 0 0 1-4.426-2.047 43.653 43.653 0 0 0-1.14-.55c-.208-.106-.434-.208-.645-.313-.946-.473-1.864-.965-2.793-1.45-.719-.37-1.446-.73-2.16-1.113a199.733 199.733 0 0 1-3.903-2.187c-.476-.274-.96-.54-1.433-.813a188.453 188.453 0 0 1-5.2-3.183c-.48-.313-.96-.641-1.437-.957a143.522 143.522 0 0 1-3.32-2.2c-.114-.078-.227-.16-.34-.242-.422-.285-.824-.582-1.246-.887-1.149-.8-2.29-1.617-3.418-2.449-.547-.41-1.09-.824-1.63-1.238a194.48 194.48 0 0 1-3.05-2.383c-.5-.402-1.008-.8-1.512-1.207a183.567 183.567 0 0 1-3.652-3.086c-.23-.2-.469-.39-.7-.601-.023-.008-.038-.028-.066-.047a154.618 154.618 0 0 1-4.023-3.664c-.399-.368-.797-.758-1.2-1.141-.988-.953-1.968-1.91-2.933-2.879a56.359 56.359 0 0 1-1.18-1.191 171.926 171.926 0 0 1-3.68-3.875c-.042-.059-.085-.094-.14-.153a172.092 172.092 0 0 1-3.691-4.207c-.328-.39-.66-.789-.989-1.187a181.662 181.662 0 0 1-2.597-3.192c-.356-.445-.707-.898-1.059-1.347a145.708 145.708 0 0 1-2.812-3.735c-.168-.238-.352-.468-.516-.699a155.624 155.624 0 0 1-3.172-4.57c-.312-.457-.605-.93-.906-1.403a119.805 119.805 0 0 1-2.129-3.328c-.36-.574-.703-1.148-1.05-1.726a142.477 142.477 0 0 1-1.833-3.14c-.34-.599-.676-1.18-1.004-1.794-.183-.324-.383-.66-.558-.996-.313-.566-.594-1.156-.899-1.73-.472-.907-.953-1.813-1.406-2.735-19.215-38.418-22.352-85.457 2.805-121.613l19.636-24.906c-22.152 42.82-12.199 94.957 15.516 132.758a189.36 189.36 0 0 0 3.074 4.09c.324.41.649.82.973 1.214.871 1.11 1.762 2.207 2.66 3.29.324.382.64.757.973 1.148a139.445 139.445 0 0 0 3.695 4.207 169.619 169.619 0 0 0 3.824 4.047c.383.386.774.773 1.164 1.16.973.992 1.961 1.953 2.973 2.91.379.379.762.746 1.16 1.121 1.36 1.27 2.734 2.527 4.133 3.758.144.129.297.246.43.363a200.39 200.39 0 0 0 3.933 3.317c.461.375.934.75 1.406 1.125 1.043.84 2.098 1.656 3.16 2.468a89.12 89.12 0 0 0 1.551 1.172c1.153.856 2.32 1.7 3.496 2.531.399.27.79.563 1.192.836 1.219.84 2.457 1.66 3.7 2.461.468.309.929.633 1.401.934a185.144 185.144 0 0 0 5.204 3.187c.449.258.902.5 1.347.75 1.32.766 2.645 1.52 3.996 2.243.73.406 1.48.773 2.223 1.164 1.105.57 2.21 1.148 3.328 1.691.422.207.836.402 1.25.602 1.426.683 2.856 1.347 4.305 2.003.344.149.676.301 1.02.45 1.687.738 3.39 1.445 5.109 2.12.441.177.882.348 1.324.524 1.562.606 3.14 1.192 4.73 1.754.25.09.496.18.739.266 1.773.613 3.562 1.195 5.363 1.742.46.144.918.285 1.39.422 1.844.547 3.68 1.137 5.57 1.562 49.919 11.364 102.599 1.16 132.278-37.507Zm-176.106-61.09c2.726 3.906 5.746 8.554 9.367 11.691a104.114 104.114 0 0 0 4.082 4.238c.352.36.71.707 1.074 1.063a122.797 122.797 0 0 0 4.168 3.875c.059.043.113.105.172.144.016.02.031.024.043.043a134.396 134.396 0 0 0 4.867 4.028c.367.281.735.574 1.106.863a120.66 120.66 0 0 0 5.097 3.719c.055.035.094.074.149.113.765.531 1.547 1.023 2.32 1.535.375.238.73.496 1.102.723 1.246.8 2.5 1.574 3.78 2.32.18.11.356.203.532.305 1.098.637 2.223 1.262 3.34 1.867.387.219.785.41 1.184.621.773.402 1.55.817 2.335 1.207.118.055.243.11.356.156 1.602.79 3.219 1.555 4.871 2.27.352.156.715.297 1.074.445 1.32.559 2.653 1.106 3.992 1.621.567.215 1.145.418 1.708.625 1.218.453 2.437.868 3.667 1.278.56.175 1.102.36 1.66.53 1.75.544 3.477 1.231 5.301 1.532C307.875 249.18 329.56 176.86 329.56 176.86c-19.551 28.153-57.407 41.586-97.805 31.102-1.79-.473-3.559-.988-5.313-1.54-.543-.163-1.07-.339-1.605-.515a116.343 116.343 0 0 1-3.723-1.285c-.562-.207-1.125-.41-1.675-.625a120.537 120.537 0 0 1-4.004-1.613c-.364-.156-.727-.297-1.079-.457-1.66-.723-3.292-1.48-4.902-2.278-.828-.406-1.64-.832-2.46-1.253l-1.419-.727c-1.043-.57-2.082-1.16-3.11-1.754-.241-.14-.495-.273-.741-.422a127.365 127.365 0 0 1-3.766-2.297c-.383-.246-.75-.511-1.133-.761a131.84 131.84 0 0 1-2.441-1.614c-1.73-1.191-3.414-2.445-5.078-3.71-.383-.305-.762-.598-1.145-.9-17.68-13.964-31.691-33.042-38.36-54.675-6.98-22.437-5.476-47.62 6.622-68.058l-14.863 20.98c-18.192 26.18-17.204 61.227-3.012 88.914a116.555 116.555 0 0 0 8.047 13.434Zm99.004-32.39c.777.288 1.547.546 2.332.812.34.101.683.222 1.027.324 1.106.347 2.203.75 3.348.965 51.867 10.023 65.933-26.618 69.68-32.008-12.325 17.742-33.032 22.004-58.446 15.836-2.004-.489-4.21-1.215-6.148-1.899a75.773 75.773 0 0 1-7.297-3.035 75.513 75.513 0 0 1-12.801-7.808c-22.738-17.254-36.86-50.165-22.027-76.97L207.238 61.7c-10.722 15.785-11.777 35.383-4.336 52.817 7.848 18.504 23.93 33.02 42.696 39.898Zm0 0"/></g></svg>