<svg xmlns="http://www.w3.org/2000/svg" width="500" viewBox="0 0 375 375" height="500" version="1.0"><path fill="#6a737d" d="M138.871 317.11a20.399 20.399 0 0 1-16.184-7.981l-60.253-77.25a21.381 21.381 0 0 1-4.055-8.602 20.938 20.938 0 0 1-.488-4.757 21.16 21.16 0 0 1 .582-4.75l21.57-96.415c1.371-6.39 5.52-11.535 11.203-14.37l87.305-42.958c2.777-1.445 5.87-2.148 8.98-2.148 3.11 0 6.203.703 8.98 2.129l87.27 42.793c5.703 2.832 9.848 8 11.219 14.386l21.57 96.415c1.371 6.39 0 12.96-3.96 18.109l-60.31 77.363c-3.96 4.961-9.995 8.035-16.198 8.035Zm142.91-108.044.574.149a5.71 5.71 0 0 1 2.204.777c.336.207.648.446.937.715a5.755 5.755 0 0 1 1.344 1.914 5.833 5.833 0 0 1 .46 2.293 5.576 5.576 0 0 1-.51 2.29 5.652 5.652 0 0 1-3.457 3.047 5.782 5.782 0 0 1-1.157.233 5.702 5.702 0 0 1-1.184-.015 5.556 5.556 0 0 1-1.156-.254h-.074l-.11-.04-.558-.128-.926-.188a47.571 47.571 0 0 1-5.074-1.96 52.906 52.906 0 0 0-9.867-2.887c-1.215-.043-2.27.347-3.168 1.164a98.214 98.214 0 0 0-2.426-.426 73.237 73.237 0 0 1-5.207 12.316 73.33 73.33 0 0 1-7.352 11.172 73.775 73.775 0 0 1-9.254 9.653 73.261 73.261 0 0 1-10.847 7.816c.277.781.59 1.54.941 2.277-.598 1.055-.738 2.164-.426 3.336a52.079 52.079 0 0 0 5.02 8.961 45.87 45.87 0 0 1 3.035 4.52l.52 1.054.222.461a5.69 5.69 0 0 1 .668 1.645c.137.582.176 1.172.125 1.766a5.575 5.575 0 0 1-.426 1.722c-.23.551-.543 1.051-.933 1.504a5.658 5.658 0 0 1-1.356 1.14 5.521 5.521 0 0 1-1.644.669 5.596 5.596 0 0 1-1.766.129 5.687 5.687 0 0 1-1.723-.426 5.64 5.64 0 0 1-1.945-1.328 5.618 5.618 0 0 1-1.238-2.004c-.063-.125-.125-.25-.188-.371l-.515-1.075a46.448 46.448 0 0 1-1.649-5.183 52.462 52.462 0 0 0-3.89-9.48c-.723-.981-1.688-1.567-2.887-1.762-.188-.325-.371-.653-.555-.98l-.648-1.184a73.444 73.444 0 0 1-12.863 3.562 73.294 73.294 0 0 1-13.293 1.18 73.253 73.253 0 0 1-13.29-1.246 73.274 73.274 0 0 1-12.847-3.625l-1.277 2.312a4.5 4.5 0 0 0-2.442 1.188 39.425 39.425 0 0 0-4.39 10.144 46.093 46.093 0 0 1-1.63 5.184l-.46.926-.243.5v.02a5.894 5.894 0 0 1-.515 1.058 5.779 5.779 0 0 1-1.625 1.691 5.9 5.9 0 0 1-1.04.555 5.497 5.497 0 0 1-1.128.332 5.41 5.41 0 0 1-1.176.094 5.87 5.87 0 0 1-1.168-.153 5.767 5.767 0 0 1-2.121-1 5.78 5.78 0 0 1-.86-.804 5.867 5.867 0 0 1-.675-.965 5.776 5.776 0 0 1-.692-2.242 5.634 5.634 0 0 1 .016-1.176c.047-.395.129-.778.258-1.153.125-.37.285-.73.488-1.07l.258-.555.48-.964a43.035 43.035 0 0 1 3.04-4.516c2-2.89 3.703-5.965 5.128-9.184a5.51 5.51 0 0 0-.52-3.207l1.036-2.46a73.384 73.384 0 0 1-20.055-17.34 73.395 73.395 0 0 1-12.605-23.32l-2.48.425a6.155 6.155 0 0 0-3.262-1.148 52.906 52.906 0 0 0-9.867 2.886 50.609 50.609 0 0 1-5.075 1.946l-.925.203-.555.129h-.059l-.035.039h-.094a5.556 5.556 0 0 1-.71.176 5.105 5.105 0 0 1-.731.085 5.12 5.12 0 0 1-.734-.007 5.607 5.607 0 0 1-1.438-.297 6.034 6.034 0 0 1-.676-.285 6.137 6.137 0 0 1-.636-.371 6.417 6.417 0 0 1-.582-.45 5.928 5.928 0 0 1-.52-.52 5.878 5.878 0 0 1-.816-1.218 5.575 5.575 0 0 1-.582-2.113 5.75 5.75 0 0 1-.012-.735c.015-.246.043-.488.086-.73a5.702 5.702 0 0 1 .605-1.656c.285-.52.645-.985 1.078-1.391a5.712 5.712 0 0 1 3.153-1.488l.074-.02h.055l.109-.035c.445-.113 1-.262 1.41-.336a49.3 49.3 0 0 1 5.422-.426 54.955 54.955 0 0 0 10.168-1.664 7.775 7.775 0 0 0 2.426-2.465l2.367-.683a72.917 72.917 0 0 1 5.188-39.234 72.669 72.669 0 0 1 6.367-11.723l-1.793-1.61a6.198 6.198 0 0 0-1.149-3.261 52.994 52.994 0 0 0-8.426-5.907 47.423 47.423 0 0 1-4.703-2.738c-.402-.297-.789-.605-1.168-.926l-.074-.074a6.143 6.143 0 0 1-.883-.77 5.71 5.71 0 0 1-.715-.929 5.806 5.806 0 0 1-.519-1.047 5.964 5.964 0 0 1 .71-5.586 5.35 5.35 0 0 1 2.024-1.531 5.42 5.42 0 0 1 2.496-.453 6.585 6.585 0 0 1 3.942 1.484l.41.313c.293.242.629.48.852.687a50.156 50.156 0 0 1 3.738 3.942 52.945 52.945 0 0 0 7.629 6.89 4.459 4.459 0 0 0 3.37.332L134 143.02a72.962 72.962 0 0 1 34.066-20.383 72.959 72.959 0 0 1 13.188-2.282l.129-2.39a5.998 5.998 0 0 0 1.851-2.906 52.42 52.42 0 0 0-.629-10.258 47.811 47.811 0 0 1-.777-5.371v-1.59a5.64 5.64 0 0 1 .25-2.352c.121-.379.285-.742.484-1.086.2-.343.434-.664.7-.96a5.67 5.67 0 0 1 .886-.79c.325-.234.668-.43 1.032-.593a5.742 5.742 0 0 1 3.492-.355c.387.085.762.206 1.125.366s.703.36 1.027.59c.32.23.613.496.88.79.269.292.503.612.702.952.2.344.364.703.489 1.078.125.375.21.762.253 1.157.047.394.051.789.012 1.183v1.61a47.006 47.006 0 0 1-.758 5.37 52.536 52.536 0 0 0-.648 10.24c.23 1.194.848 2.14 1.851 2.835v.129l.13 2.406a74.272 74.272 0 0 1 47.03 22.645l2.15-1.535a6.188 6.188 0 0 0 3.444-.372 52.152 52.152 0 0 0 7.63-6.906 46.306 46.306 0 0 1 3.738-3.945l.945-.738.312-.262a5.688 5.688 0 0 1 3.719-1.547 5.68 5.68 0 0 1 2.027.3c.657.223 1.25.555 1.786.993a5.673 5.673 0 0 1 2.008 3.492 5.55 5.55 0 0 1-.04 2.047 5.645 5.645 0 0 1-.757 1.898 5.567 5.567 0 0 1-1.668 1.668 2.743 2.743 0 0 0-.461.372l-.797.609a47.457 47.457 0 0 1-4.703 2.742c-3 1.7-5.809 3.676-8.426 5.926-.793.914-1.149 1.976-1.074 3.183-.305.274-.614.547-.926.817l-1.074.98a73.265 73.265 0 0 1 11.797 50.828l2.277.665a6.331 6.331 0 0 0 2.441 2.445 52.908 52.908 0 0 0 10.188 1.668c1.793.054 3.61.183 5.406.441Zm-53.234-57.402-24.223 17.129-.074-.035a4.925 4.925 0 0 1-2.488.953 4.915 4.915 0 0 1-2.63-.465 4.937 4.937 0 0 1-2.015-1.75 4.939 4.939 0 0 1-.828-2.535v-.02l-1.684-29.59c3.176.395 6.301 1.044 9.375 1.946a58.49 58.49 0 0 1 8.934 3.437c2.887 1.387 5.64 3 8.262 4.836a59.32 59.32 0 0 1 7.37 6.114Zm-45.606 32.461h9.11l5.664 7.055-2.035 8.812-8.184 3.906-8.203-3.941-2.04-8.797 5.688-7.055Zm-8.593-47.734c1.98-.446 4-.797 6.035-1.04l-1.664 29.63-.149.07c-.015.34-.062.672-.144.996a4.952 4.952 0 0 1-2.371 3.125c-.293.164-.598.3-.922.402-.32.106-.649.176-.98.211-.337.035-.673.04-1.008.008a4.908 4.908 0 0 1-2.5-.926l-.036.02-24.37-17.223a58.626 58.626 0 0 1 28.109-15.273Zm-36.922 26.347 22.238 19.832-.02.13a4.853 4.853 0 0 1 1.461 2.214c.286.871.325 1.754.118 2.649a4.877 4.877 0 0 1-1.262 2.335 4.898 4.898 0 0 1-2.277 1.356l-.02.094-28.516 8.199a57.82 57.82 0 0 1-.257-9.59 57.67 57.67 0 0 1 1.32-9.504 58.163 58.163 0 0 1 7.215-17.715Zm29.773 52.7-11.332 27.292a58.293 58.293 0 0 1-7.613-5.792 58.64 58.64 0 0 1-11.918-14.879 59.05 59.05 0 0 1-3.984-8.696l29.218-4.945.059.055a4.77 4.77 0 0 1 3.332.539 4.997 4.997 0 0 1 2.289 2.742 4.96 4.96 0 0 1-.125 3.57Zm33.442 35.105a59.01 59.01 0 0 1-31.957-1.629l14.386-25.922h.016a4.934 4.934 0 0 1 1.836-1.922 4.916 4.916 0 0 1 2.558-.71c.918 0 1.77.23 2.563.699a4.897 4.897 0 0 1 1.84 1.914h.11l14.425 25.96a61.426 61.426 0 0 1-5.777 1.61Zm18.59-7.703-11.442-27.57.02-.055a4.927 4.927 0 0 1-.356-2.63 4.91 4.91 0 0 1 1.047-2.437 4.938 4.938 0 0 1 2.148-1.554 4.87 4.87 0 0 1 2.641-.23l.055-.075 29.496 4.98a58.188 58.188 0 0 1-3.973 8.766 58.294 58.294 0 0 1-19.637 20.805Zm26.703-43.383-28.63-8.242-.034-.11a5.061 5.061 0 0 1-.938-.363 5.23 5.23 0 0 1-.848-.547 5.017 5.017 0 0 1-1.852-4.457 4.915 4.915 0 0 1 1.691-3.207l-.053-.035 22.125-19.758a59.143 59.143 0 0 1 8.52 36.719Zm0 0" fill-rule="evenodd"/></svg>