<svg xmlns="http://www.w3.org/2000/svg" width="500" viewBox="0 0 375 375" height="500" version="1.0"><defs><clipPath id="a"><path d="M89 29.902h197v315H89Zm0 0"/></clipPath></defs><g clip-path="url(#a)"><path fill="#6a737d" d="M156.918 57.922c-3.469-3.488-8.313-5.64-13.7-5.64-5.363 0-10.167 2.152-13.6 5.64h-.098c-3.461 3.473-5.618 8.32-5.618 13.683 0 5.387 2.157 10.192 5.618 13.641l.097.078c3.434 3.473 8.238 5.61 13.602 5.61 5.386 0 10.23-2.137 13.699-5.61l.05-.078c3.481-3.45 5.614-8.254 5.614-13.64 0-5.364-2.133-10.211-5.613-13.684Zm-13.7 264.543c5.387 0 10.231-2.192 13.7-5.621l.05-.102c3.481-3.426 5.614-8.273 5.614-13.597 0-5.387-2.133-10.211-5.613-13.7h-.051c-3.469-3.53-8.313-5.664-13.7-5.664-5.363 0-10.167 2.133-13.6 5.664h-.098c-3.461 3.489-5.618 8.313-5.618 13.7 0 5.324 2.157 10.171 5.618 13.597l.097.102a19.204 19.204 0 0 0 13.602 5.62Zm105.298-58.547c4.789-1.258 9.125-4.332 11.77-8.977l.359-.675c2.351-4.41 2.777-9.496 1.523-14-1.266-4.828-4.379-9.098-9.012-11.77l-.27-.18a19.386 19.386 0 0 0-14.39-1.734c-4.809 1.2-9.121 4.406-11.754 9.016-2.664 4.566-3.222 9.832-1.945 14.675 1.316 4.766 4.394 9.075 9 11.77h.031c4.617 2.648 9.844 3.129 14.688 1.875ZM163.05 167.57c-5.078-5.066-12.074-8.238-19.832-8.238-7.727 0-14.707 3.172-19.774 8.238-5.047 5.047-8.156 12.028-8.156 19.762 0 7.758 3.11 14.762 8.156 19.867 5.067 5.024 12.047 8.176 19.774 8.176 7.758 0 14.754-3.152 19.832-8.176 5.054-5.105 8.168-12.11 8.168-19.867 0-7.734-3.114-14.715-8.168-19.762Zm-11.149-32.941a53.123 53.123 0 0 1 29.067 15.012h.062a55.229 55.229 0 0 1 3.528 3.93l19.296-11.165c-2.593-7.84-2.71-16.035-.628-23.715 2.753-10.293 9.425-19.504 19.425-25.289l.328-.195c9.891-5.61 21.137-6.766 31.29-4.012a41.612 41.612 0 0 1 25.328 19.446v.02c5.746 9.933 6.914 21.339 4.168 31.589a41.378 41.378 0 0 1-19.422 25.305l-2.637 1.558h-.27c-9.238 4.403-19.402 5.086-28.734 2.63-7.668-2.036-14.7-6.302-20.203-12.384l-19.262 11.13a53.167 53.167 0 0 1 3.438 18.843c0 6.64-1.227 13.043-3.438 18.945l19.262 11.09c5.504-6.16 12.535-10.351 20.203-12.387 10.277-2.808 21.676-1.613 31.64 4.192l.637.3v.04c9.625 5.82 16.086 14.836 18.786 25.008a41.521 41.521 0 0 1-4.168 31.55l-.348.7-.04-.063c-5.772 9.594-14.866 16.098-24.91 18.848-10.3 2.71-21.698 1.554-31.648-4.168v-.082c-10-5.782-16.672-15.016-19.425-25.285a40.969 40.969 0 0 1 .628-23.692l-19.296-11.133c-1.106 1.36-2.301 2.637-3.528 3.871l-.062.059c-7.715 7.738-17.828 13.125-29.067 14.918v22.297c8.008 1.676 15.188 5.683 20.813 11.308l.027.059a41.445 41.445 0 0 1 12.207 29.438c0 11.449-4.668 21.832-12.207 29.37l-.027.122c-7.59 7.539-18.008 12.207-29.496 12.207-11.426 0-21.86-4.668-29.426-12.207h-.027v-.121c-7.551-7.54-12.227-17.922-12.227-29.371a41.413 41.413 0 0 1 12.227-29.438v-.059h.027c5.613-5.625 12.805-9.632 20.793-11.308v-22.297c-11.25-1.793-21.332-7.18-29.04-14.918l-.081-.059c-9.633-9.671-15.653-22.972-15.653-37.734 0-14.715 6.02-28.016 15.653-37.691h.082c7.707-7.778 17.789-13.16 29.039-15.012v-22.2a42.207 42.207 0 0 1-20.793-11.327h-.027v-.063c-7.551-7.574-12.227-17.945-12.227-29.434 0-11.43 4.676-21.898 12.227-29.437l.027-.04c7.566-7.558 18-12.226 29.426-12.226 11.488 0 21.906 4.668 29.496 12.227v.039h.027c7.54 7.539 12.207 18.008 12.207 29.437 0 11.489-4.668 21.86-12.207 29.434l-.027.063a42.234 42.234 0 0 1-20.813 11.328Zm108.383-14.8-.16-.24c-2.664-4.487-6.914-7.48-11.61-8.776-4.843-1.278-10.07-.735-14.718 1.917h.031c-4.637 2.63-7.734 6.938-9.031 11.766a19.317 19.317 0 0 0 1.945 14.676l.09.121a19.067 19.067 0 0 0 11.664 8.832 18.96 18.96 0 0 0 14.66-1.895l.246-.117c4.508-2.695 7.508-6.941 8.766-11.61 1.277-4.804.77-10.07-1.883-14.675Zm0 0"/></g></svg>