<svg xmlns="http://www.w3.org/2000/svg" width="500" viewBox="0 0 375 375" height="500" version="1.0"><defs><clipPath id="a"><path d="M55 48.258h265v278.25H55Zm0 0"/></clipPath></defs><g clip-path="url(#a)"><path fill="#6a737d" d="M305.848 161.262h-82.266c-6.582-.79-11.594-6.582-11.594-13.403V61.531c.012-7.355-5.965-13.273-13.261-13.273H169.94c-7.37 0-13.289 5.976-13.289 13.285v87.234c-.359 6.578-5.789 11.88-12.308 12.485h-21.547c-6.336-.778-11.23-6.094-11.649-12.496V61.543c0-7.367-5.976-13.285-13.273-13.285h-28.8c-7.356 0-13.274 5.976-13.274 13.285v251.902c0 7.368 5.976 13.285 13.273 13.285h236.828c7.371 0 13.274-5.976 13.274-13.285V174.547c-.043-7.367-5.961-13.285-13.328-13.285Zm-37.899 95.258c0 7.37-5.972 13.289-13.273 13.289H225.89c-7.371 0-13.274-5.977-13.274-13.29v-27.16c0-7.367 5.973-13.285 13.274-13.285h28.785c7.367 0 13.273 5.973 13.273 13.285Zm0 0"/></g></svg>