<svg xmlns="http://www.w3.org/2000/svg" width="500" viewBox="0 0 375 375" height="500" version="1.0"><defs><clipPath id="a"><path d="M58 40.352h259v294H58Zm0 0"/></clipPath></defs><g clip-path="url(#a)"><path fill="#6a737d" d="M180.512 42.23a13.934 13.934 0 0 1 13.972 0l114.887 66.676a13.782 13.782 0 0 1 6.879 11.918v133.352c0 4.906-2.617 9.441-6.879 11.914l-114.887 66.676a13.916 13.916 0 0 1-13.972 0L65.625 266.09a13.775 13.775 0 0 1-6.879-11.914V120.824c0-4.906 2.617-9.445 6.879-11.918Zm-94.035 86.516V246.25L187.5 304.879l101.02-58.629V128.746L187.5 70.117Zm45.535-4.574a13.914 13.914 0 0 1 15.11 2.992l78.015 77.613v-67.859c0-7.621 6.207-13.797 13.863-13.797s13.863 6.176 13.863 13.797v101.164c0 5.578-3.375 10.606-8.558 12.742a13.912 13.912 0 0 1-15.11-2.988l-78.011-77.613v67.859c0 7.617-6.207 13.793-13.868 13.793-7.656 0-13.863-6.176-13.863-13.793V136.918c0-5.582 3.379-10.61 8.559-12.746Zm0 0"/></g></svg>