<svg xmlns="http://www.w3.org/2000/svg" width="500" viewBox="0 0 375 375" height="500" version="1.0"><defs><clipPath id="a"><path d="M38 19.457h299v336H38Zm0 0"/></clipPath></defs><g clip-path="url(#a)"><path fill="#6a737d" d="m95.527 119.156-15.789-9.043a3.243 3.243 0 0 1-1.61-2.785V88.09c0-1.145-.608-2.207-1.6-2.778l-6.723-3.87a3.12 3.12 0 0 0-1.598-.434c-.559 0-1.11.14-1.61.433l-6.722 3.871a3.196 3.196 0 0 0-1.602 2.778v19.238c0 1.145-.609 2.195-1.605 2.785l-15.797 9.043c-.488.301-1.098.301-1.594 0-.5-.277-.8-.812-.8-1.383l-.059-41.18c0-1.156.617-2.214 1.605-2.788l26.575-15.293c.457-.266.96-.399 1.465-.422h.277a3.158 3.158 0 0 1 1.465.422l26.57 15.293a3.2 3.2 0 0 1 1.605 2.789l-.05 41.18c0 .57-.309 1.105-.801 1.382-.488.301-1.106.301-1.602 0Zm102.223-11.039V77.43a3.21 3.21 0 0 1 1.602-2.782l26.585-15.34a3.21 3.21 0 0 1 3.208-.003l6.656 3.836c.347.203.777.203 1.125 0 .344-.2.558-.57.558-.973V21.387c0-.57.305-1.094.793-1.383a1.608 1.608 0 0 1 1.598-.016l15.816 8.828a3.205 3.205 0 0 1 1.649 2.801v76.5a3.214 3.214 0 0 1-1.606 2.781l-26.586 15.352a3.196 3.196 0 0 1-3.214 0l-26.582-15.352a3.21 3.21 0 0 1-1.602-2.78Zm19.797-10.082c0 .285.152.55.402.695l9.125 5.258c.25.14.555.14.801 0l9.129-5.258a.804.804 0 0 0 .402-.695V87.496a.794.794 0 0 0-.402-.695l-9.125-5.274a.82.82 0 0 0-.805 0l-9.129 5.274a.799.799 0 0 0-.398.695Zm117.43-23.8-26.41-15.34a3.196 3.196 0 0 0-3.215 0l-26.579 15.34a3.204 3.204 0 0 0-1.601 2.777v30.68c0 1.156.621 2.218 1.621 2.792l26.406 15.043a3.206 3.206 0 0 0 3.149.02l15.972-8.875c.504-.285.82-.817.825-1.395a1.609 1.609 0 0 0-.805-1.402l-26.742-15.352a1.606 1.606 0 0 1-.805-1.39V87.52c0-.575.305-1.106.8-1.395l8.325-4.797a1.606 1.606 0 0 1 1.602 0l8.328 4.797c.496.29.8.82.8 1.395v7.566c0 .57.309 1.102.805 1.387.5.285 1.11.285 1.61 0l15.914-9.254a3.205 3.205 0 0 0 1.597-2.778v-7.433a3.194 3.194 0 0 0-1.597-2.774Zm-215.23 36.093 26.57 15.352a3.208 3.208 0 0 0 3.21 0l26.582-15.352a3.212 3.212 0 0 0 1.606-2.777V76.848a3.214 3.214 0 0 0-1.61-2.782L149.527 58.73a3.208 3.208 0 0 0-3.21 0l-26.57 15.336a3.214 3.214 0 0 0-1.61 2.782v30.703c0 1.148.613 2.203 1.61 2.777Zm158.3 70.817-81.945-47.352c-5.141-2.934-12.036-2.934-17.22 0l-81.945 47.352c-5.308 3.058-8.597 8.792-8.597 14.937v94.57c0 6.141 3.285 11.883 8.597 14.946l21.485 12.375c10.41 5.125 14.144 5.125 18.879 5.125 15.41 0 24.265-9.32 24.265-25.578v-93.368a2.369 2.369 0 0 0-2.375-2.363h-10.394a2.357 2.357 0 0 0-2.379 2.363v93.368c0 7.207-7.457 14.378-19.637 8.296l-22.449-12.976a2.508 2.508 0 0 1-1.293-2.188v-94.57c0-.898.504-1.793 1.297-2.246l81.898-47.274a2.57 2.57 0 0 1 2.524 0l81.914 47.258a2.643 2.643 0 0 1 1.27 2.262v94.57c0 .907-.489 1.778-1.25 2.211l-81.95 47.301c-.699.43-1.777.43-2.539 0l-21.02-12.48c-.624-.36-1.425-.497-2.03-.149-5.821 3.3-6.923 3.735-12.372 5.63-1.347.468-3.34 1.276.742 3.554l27.36 16.191a17.204 17.204 0 0 0 8.594 2.3c3.035 0 6.007-.78 8.628-2.3l81.942-47.312c5.308-3.09 8.61-8.805 8.61-14.946v-94.57c-.005-6.144-3.305-11.867-8.61-14.937Zm-62.031 100.488c-24.453 0-29.832-6.145-31.633-18.305a2.688 2.688 0 0 0-2.656-2.27h-11.95a2.662 2.662 0 0 0-2.668 2.672c0 15.563 8.473 34.125 48.907 34.125 29.28 0 46.07-11.527 46.07-31.66 0-19.965-13.492-25.273-41.887-29.035-28.695-3.797-31.613-5.754-31.613-12.476 0-5.54 2.473-12.942 23.726-12.942 18.981 0 25.981 4.09 28.856 16.88.254 1.206 1.352 2.085 2.594 2.085h11.992a2.71 2.71 0 0 0 1.957-.852c.504-.558.777-1.289.703-2.054-1.855-22.043-16.504-32.313-46.101-32.313-26.348 0-42.063 11.117-42.063 29.754 0 20.227 15.637 25.82 40.918 28.317 30.254 2.968 32.602 7.386 32.602 13.34 0 10.331-8.286 14.734-27.754 14.734ZM307.18 85.78a.614.614 0 0 0-.614 0l-5.097 2.946a.604.604 0 0 0-.309.53v5.895c0 .22.113.422.309.532l5.097 2.941c.188.11.422.11.614 0l5.101-2.941a.612.612 0 0 0 .309-.532v-5.894a.612.612 0 0 0-.309-.531Zm0 0" fill-rule="evenodd"/></g></svg>