<svg xmlns="http://www.w3.org/2000/svg" width="500" viewBox="0 0 375 375" height="500" version="1.0"><path fill="#6a737d" d="m154.02 276.387 122.578-69.961-55.688-32.063-122.496 70.535Zm128.214-143.098-55.746-32.062v63.48l55.758 32.074Zm5.567-73.781L232.066 91.57l55.735 32.063 55.722-32.074ZM116.145 221.812l32.343-18.62V63.34L92.73 95.426v139.851ZM87.152 21.632 31.418 53.708l55.734 32.074 55.7-32.074Zm-61.324 41.72v216.234l122.625 70.57v-64.113l-64.125-36.281c-.21-.153-.375-.317-.598-.457-.164-.153-.351-.27-.515-.399l-.012-.035a3.076 3.076 0 0 1-.457-.574l-.012-.012a2.274 2.274 0 0 1-.41-.527l-.011-.012h-.036a7.016 7.016 0 0 1-.28-.644l-.013-.047c-.082-.176-.175-.375-.257-.598l-.012-.035a7.257 7.257 0 0 1-.117-.82v-.024a7.157 7.157 0 0 1-.094-.598V95.45L49.195 76.815Zm256.418 216.222v-63.539l-122.625 70.008v64.102Zm66.844-114.867v-63.48L293.355 133.3v63.48Zm10.969-74.59c.128.445.21.95.21 1.477v76.324a5.545 5.545 0 0 1-2.777 4.816l-.023.012-64.078 36.902v73.137a5.588 5.588 0 0 1-2.766 4.817l-.023.011-133.782 76.992c-.28.153-.61.293-.949.387l-.035.012-.352.152c-.422.13-.914.2-1.418.2a5.09 5.09 0 0 1-1.464-.211l.035.011a1.78 1.78 0 0 1-.457-.187l.011.011a9.623 9.623 0 0 1-.96-.386l.046.023-133.746-76.992c-1.687-.984-2.8-2.777-2.8-4.828V53.719c0-.516.082-1.02.222-1.489l-.012.036c.047-.176.153-.293.211-.47.106-.339.223-.62.352-.89l-.012.035c.094-.187.211-.351.34-.492l.492-.668.551-.398c.21-.176.398-.352.61-.504h.011l66.89-38.496a5.496 5.496 0 0 1 2.778-.75c1.02 0 1.98.281 2.8.762l-.023-.012 66.914 38.496c.223.152.41.316.598.492l.563.399c.187.21.293.445.492.667.14.141.258.305.363.481l.012.012c.117.234.234.515.34.808l.011.047.188.469c.129.41.21.89.21 1.383V196.77l55.735-32.075v-73.16c0-.504.07-.996.2-1.465l-.012.035c.047-.152.152-.293.187-.468.117-.352.235-.633.375-.914l-.023.047c.105-.176.27-.293.375-.493.176-.222.316-.445.492-.632.164-.153.34-.293.527-.41l.012-.012c.21-.153.387-.34.61-.47h.011l66.89-38.507a5.496 5.496 0 0 1 2.778-.75c1.02 0 1.98.281 2.8.762l-.023-.012 66.891 38.508c.234.152.398.316.621.457.176.152.375.27.54.41.187.211.327.445.503.656.129.141.246.305.352.47l.011.01c.141.259.258.552.352.856l.012.035c.093.141.164.293.222.457v.012Zm0 0"/></svg>