<svg xmlns="http://www.w3.org/2000/svg" width="500" viewBox="0 0 375 375" height="500" version="1.0"><path fill="#6a737d" d="M180.094 21.133c12.203 19.726-3.883 45.828-16.727 60.418-12.46 14.144-27.613 25.969-41.379 38.816-14.91 13.567-28.39 28.133-40.55 43.766l-.575.773c-19.414 23.008-31.218 52.985-31.218 85.723 0 9.894 1.078 19.547 3.128 28.832l-.168-.887c12.461 38.805 44.852 67.793 84.825 75.156l.675.102c-21.32-9.176-36.44-29.066-38.66-52.707l-.023-.254c1.441-24.805 14.82-46.203 34.422-58.683l.3-.18c-1.296 3.027-2.05 6.547-2.05 10.238a26.508 26.508 0 0 0 4.258 14.457l-.067-.101c4.227 5.746 10.961 9.43 18.563 9.43 12.68 0 22.96-10.282 22.96-22.962 0-7.257-3.359-13.722-8.617-17.93l-.046-.03c-11.97-9.544-19.579-24.118-19.579-40.473 0-2.239.145-4.446.422-6.61l-.023.254c2.672-9.96 8.133-18.414 15.476-24.715l.067-.054c-5.68 14.941 10.46 29.664 21.11 37.015 21.487 12.672 39.66 24.973 57.042 38.266l-1.363-1c17.383 13.379 28.476 34.203 28.476 57.621 0 1.363-.03 2.707-.109 4.047l.012-.188c-4.66 25.926-23.11 46.618-47.34 54.426l-.496.133c50.207-11.094 102.105-50.043 103.137-105.734 1.285-42.032-26.383-79.25-71.512-102.36a12.146 12.146 0 0 1 1.433 5.746c0 2.641-.832 5.094-2.265 7.102l.023-.035c-4.402 6.832-11.969 11.293-20.59 11.293-7.5 0-14.21-3.383-18.68-8.707l-.034-.035c-16.707-21.454.343-44.586 2.73-67.305.02-.754.031-1.629.031-2.52 0-29.02-14.554-54.644-36.761-69.965l-.29-.187Zm0 0"/></svg>