<svg xmlns="http://www.w3.org/2000/svg" width="500" viewBox="0 0 375 375" height="500" version="1.0"><path fill="#6a737d" d="M34.184 68.875h52.968c.27 0 .5.098.692.29.195.19.289.42.289.694v237.758a.932.932 0 0 1-.29.695.944.944 0 0 1-.69.29h-52.97a.953.953 0 0 1-.695-.29.943.943 0 0 1-.285-.695V69.86c0-.273.094-.504.285-.695a.953.953 0 0 1 .696-.289ZM191.598 68.898h53.187c.235 0 .434.082.602.25.164.165.25.368.25.602v238.02a.835.835 0 0 1-.25.605.829.829 0 0 1-.602.246h-53.187a.829.829 0 0 1-.602-.246.835.835 0 0 1-.25-.605V69.75c0-.234.086-.438.25-.602a.817.817 0 0 1 .602-.25ZM270.195 68.855h72.793c.203 0 .38.07.524.215.144.149.218.32.218.528v49.254a.71.71 0 0 1-.218.523.702.702 0 0 1-.524.219h-72.793a.702.702 0 0 1-.523-.219.71.71 0 0 1-.219-.523V69.598c0-.207.074-.38.219-.528a.714.714 0 0 1 .523-.215ZM113.414 163.262h52.05a1.453 1.453 0 0 1 1.46 1.46l.002 47.641a1.452 1.452 0 0 1-.903 1.352c-.18.074-.363.11-.558.11h-52.05c-.192 0-.38-.036-.56-.11a1.389 1.389 0 0 1-.472-.32 1.389 1.389 0 0 1-.32-.473 1.452 1.452 0 0 1-.11-.559v-47.64a1.438 1.438 0 0 1 .43-1.036 1.436 1.436 0 0 1 1.031-.425ZM270.875 163.262h52.047c.187 0 .371.035.543.105a1.426 1.426 0 0 1 .879 1.313v47.726c0 .188-.04.367-.11.543a1.406 1.406 0 0 1-.77.766c-.171.074-.355.11-.542.11h-52.047a1.35 1.35 0 0 1-.543-.11 1.406 1.406 0 0 1-.77-.766 1.449 1.449 0 0 1-.109-.543V164.68a1.434 1.434 0 0 1 .418-1.004c.133-.133.285-.235.461-.309.172-.07.352-.105.543-.105Zm0 0"/></svg>