<svg xmlns="http://www.w3.org/2000/svg" xmlns:xlink="http://www.w3.org/1999/xlink" width="500" zoomAndPan="magnify" viewBox="0 0 375 374.999991" height="500" preserveAspectRatio="xMidYMid meet" version="1.0"><path fill="#6a737d" d="M 187.5 343.75 C 158.039062 343.75 143.304688 343.75 134.152344 334.597656 C 125 325.445312 125 310.710938 125 281.25 C 125 251.789062 125 237.054688 134.152344 227.902344 C 143.304688 218.75 158.039062 218.75 187.5 218.75 C 216.960938 218.75 231.695312 218.75 240.847656 227.902344 C 250 237.054688 250 251.789062 250 281.25 C 250 310.710938 250 325.445312 240.847656 334.597656 C 231.695312 343.75 216.960938 343.75 187.5 343.75 Z M 201.8125 253.894531 C 205.878906 249.824219 205.878906 243.230469 201.8125 239.164062 C 197.742188 235.09375 191.148438 235.09375 187.078125 239.164062 L 152.355469 273.882812 C 149.378906 276.863281 148.488281 281.34375 150.097656 285.234375 C 151.710938 289.128906 155.507812 291.667969 159.722656 291.667969 L 190.128906 291.667969 L 173.191406 308.605469 C 169.121094 312.675781 169.121094 319.269531 173.191406 323.335938 C 177.257812 327.40625 183.851562 327.40625 187.921875 323.335938 L 222.644531 288.617188 C 225.625 285.636719 226.515625 281.15625 224.902344 277.265625 C 223.289062 273.371094 219.492188 270.832031 215.277344 270.832031 L 184.871094 270.832031 Z M 201.8125 253.894531 " fill-opacity="1" fill-rule="evenodd"/><path fill="#6a737d" d="M 101.5625 279.851562 L 101.5625 281.25 L 98.214844 281.25 C 61.230469 281.25 31.25 251.621094 31.25 215.074219 C 31.25 178.523438 61.230469 148.898438 98.214844 148.898438 C 102.652344 148.898438 106.992188 149.324219 111.191406 150.136719 C 107.609375 140.589844 105.65625 130.261719 105.65625 119.484375 C 105.65625 70.753906 145.628906 31.25 194.941406 31.25 C 240.875 31.25 278.703125 65.527344 283.671875 109.609375 C 318.640625 121.566406 343.75 154.394531 343.75 193.015625 C 343.75 235.3125 313.632812 270.65625 273.4375 279.253906 C 273.4375 265.960938 273.421875 253.777344 272.085938 243.835938 C 270.589844 232.726562 267.078125 220.988281 257.421875 211.328125 C 247.761719 201.671875 236.023438 198.160156 224.914062 196.664062 C 214.824219 195.308594 202.421875 195.3125 188.898438 195.3125 L 186.101562 195.3125 C 172.578125 195.3125 160.175781 195.308594 150.085938 196.664062 C 138.976562 198.160156 127.238281 201.671875 117.582031 211.328125 C 107.921875 220.988281 104.410156 232.726562 102.914062 243.835938 C 101.558594 253.925781 101.5625 266.328125 101.5625 279.851562 Z M 101.5625 279.851562 " fill-opacity="1" fill-rule="nonzero"/></svg>