<svg xmlns="http://www.w3.org/2000/svg" width="500" viewBox="0 0 375 375" height="500" version="1.0"><path fill="#6a737d" d="M293.742 164.063c2.719 3.015 3.363 8.187 1.942 15.519-1.485 7.637-4.348 13.082-8.586 16.348-4.243 3.265-10.696 4.898-19.36 4.898h-13.074l8.027-41.285h14.723c8.168 0 13.606 1.508 16.328 4.52Zm-184.058-4.52H94.96l-8.027 41.285h13.07c8.664 0 15.117-1.633 19.36-4.898 4.241-3.266 7.1-8.711 8.585-16.348 1.426-7.332.778-12.504-1.941-15.52-2.719-3.011-8.16-4.519-16.324-4.519ZM374.633 187.5c0 54.367-83.781 98.441-187.133 98.441S.367 241.867.367 187.5c0-54.367 83.781-98.441 187.133-98.441s187.133 44.074 187.133 98.441Zm-229.215 6.8c2.227-3.988 3.809-8.394 4.746-13.21 2.274-11.695.559-20.8-5.144-27.328-5.7-6.528-14.77-9.79-27.2-9.79H76.496l-19.172 98.65h21.489l5.097-26.224h18.41c8.118 0 14.801-.851 20.047-2.562 5.242-1.703 10.012-4.563 14.301-8.582 3.602-3.313 6.516-6.961 8.75-10.953Zm75.637 22.098 8.922-45.91c1.816-9.336.453-16.09-4.082-20.261-4.536-4.165-12.778-6.254-24.73-6.254h-18.997l5.102-26.227h-21.325l-19.175 98.652h21.32l10.984-56.52h17.043c5.453 0 9.02.903 10.696 2.712 1.675 1.805 2.03 5.191 1.066 10.156l-8.484 43.652Zm91.699-62.636c-5.7-6.524-14.77-9.785-27.2-9.785h-41.327l-19.172 98.648h21.492l5.094-26.227h18.41c8.12 0 14.8-.851 20.047-2.562 5.246-1.703 10.011-4.563 14.3-8.582 3.606-3.313 6.516-6.957 8.75-10.953 2.23-3.988 3.809-8.395 4.747-13.211 2.273-11.695.558-20.8-5.141-27.328Zm0 0"/></svg>