<svg xmlns="http://www.w3.org/2000/svg" xmlns:xlink="http://www.w3.org/1999/xlink" width="500" zoomAndPan="magnify" viewBox="0 0 375 374.999991" height="500" preserveAspectRatio="xMidYMid meet" version="1.0"><path fill="#6a737d" d="M 93.71875 25.109375 L 0 187.5 L 93.71875 349.890625 L 281.28125 349.890625 L 375 187.5 L 281.28125 25.109375 Z M 155.703125 111.25 L 197.8125 154.6875 L 222.78125 179.609375 L 222.8125 179.578125 L 260.46875 216.5 C 257.34375 218.6875 254.4375 220.4375 251.671875 221.875 C 249.171875 223.191406 246.585938 224.320312 243.921875 225.265625 C 241.753906 226.023438 239.542969 226.601562 237.28125 227 C 235.234375 227.359375 233.375 227.53125 231.6875 227.53125 C 229.65625 227.53125 227.90625 227.3125 226.40625 227 C 225.121094 226.746094 223.871094 226.371094 222.65625 225.875 C 221.542969 225.414062 220.5 224.824219 219.53125 224.109375 L 202.9375 207.046875 L 155.453125 159.53125 L 138.265625 175.984375 L 90.296875 223.984375 C 89.324219 224.6875 88.28125 225.265625 87.171875 225.71875 C 85.976562 226.21875 84.742188 226.601562 83.46875 226.859375 C 81.726562 227.210938 79.964844 227.382812 78.1875 227.375 C 76.5 227.375 74.640625 227.234375 72.59375 226.890625 C 70.332031 226.476562 68.117188 225.882812 65.953125 225.109375 C 63.289062 224.167969 60.703125 223.035156 58.203125 221.71875 C 55.15625 220.117188 52.226562 218.332031 49.40625 216.359375 Z M 229.453125 123.515625 L 301 195.359375 L 322.59375 216.5 C 319.769531 218.476562 316.832031 220.269531 313.78125 221.875 C 311.289062 223.191406 308.71875 224.320312 306.0625 225.265625 C 303.890625 226.027344 301.671875 226.605469 299.40625 227 C 297.375 227.359375 295.484375 227.53125 293.78125 227.53125 C 291.765625 227.53125 290.015625 227.3125 288.515625 227 C 286.386719 226.566406 284.382812 225.804688 282.5 224.71875 C 282.195312 224.550781 281.917969 224.339844 281.671875 224.09375 L 262.421875 205.0625 L 229.4375 172.078125 L 224.21875 177.296875 L 199.84375 153.125 L 229.46875 123.484375 Z M 136.234375 187.890625 L 136.234375 227.40625 C 134.363281 227.378906 132.511719 227.199219 130.671875 226.859375 C 128.425781 226.429688 126.226562 225.824219 124.078125 225.046875 C 121.457031 224.117188 118.914062 223 116.453125 221.703125 C 113.453125 220.113281 110.5625 218.34375 107.78125 216.390625 L 136.21875 187.875 Z M 136.234375 187.890625 " fill-opacity="1" fill-rule="nonzero"/></svg>