<svg xmlns="http://www.w3.org/2000/svg" width="500" viewBox="0 0 375 375" height="500" version="1.0"><path fill="#6a737d" d="m187.5 31.25 67.063 67.063L271.14 81.75 251.89 62.5H312.5v60.61l-19.266-19.266-16.562 16.578L343.75 187.5l-67.063 67.078 16.547 16.547 19.266-19.234V312.5h-60.625l19.25-19.266-16.547-16.562L187.5 343.75l-67.078-67.078-16.578 16.562 19.265 19.266H62.5v-60.625l19.234 19.25 16.579-16.563L31.25 187.5l67.078-67.078-16.594-16.578L62.5 123.109V62.5h60.61l-19.266 19.219 16.594 16.594Zm0 178.328-45 44.984 45 45 44.984-45-44.984-45ZM120.422 142.5l-44.984 45 44.968 44.969 45-45-44.984-44.953Zm134.14 0-44.953 44.969 44.97 44.984 44.983-44.953-45-44.984ZM187.5 75.437l-44.969 44.985 44.985 44.969 44.953-44.985Zm0 0"/></svg>