<svg xmlns="http://www.w3.org/2000/svg" width="500" viewBox="0 0 375 375" height="500" version="1.0"><path fill="#6a737d" d="M46.559 126.035c.996-3.176 2.004-7.312 2.812-11.531l.117-.774c-5.12 6.446-2.484 7.758-2.93 12.153Zm9.234-38.965c1.02 8.344-6.293 11.72 1.605 6.153 4.395-9.668-1.605-2.637-1.464-6.153Zm138.293-73.547c3.832-.726 8.601-1.347 13.43-1.722l.48-.035c-5.414.445-10.84.738-16.113 1.464l2.191.293Zm126.75 156.75-1.02 2.192c-1.699 12.082-5.25 23.004-10.37 32.976l.269-.574c5.531-10.008 9.41-21.703 10.933-34.125l.047-.469ZM160.559 205.16a30.47 30.47 0 0 1-4.465-7.418l-.082-.199c1.57 4.91 3.703 9.187 6.398 13.043l-.105-.152-1.758-5.274Zm-9.082.445-.727 4.102c3.492 5.59 7.36 10.43 11.719 14.79-3.516-6.88-6.153-9.669-10.98-19.044Zm144.726-41.917c-.328 8.05-2.344 15.562-5.707 22.277l.14-.317-5.12 2.649c-4.102 7.91.445 5.121-2.485 11.426a149.083 149.083 0 0 1-23.156 18.703l-.563.351c-2.94 0 2.051-3.656 2.778-4.98-8.66 5.86-7.043 8.789-20.074 12.445l-.446-.879c-5.484 1.875-11.812 2.965-18.386 2.965-32.332 0-58.547-26.215-58.547-58.547v-.715.036c-.434 2.484-1.02 1.898-1.758 2.93a50.417 50.417 0 0 1-.188-4.384c0-20.53 11.895-38.296 29.18-46.746l.305-.14c6.445-3.317 14.062-5.25 22.125-5.25a48.992 48.992 0 0 1 32.578 12.328l-.047-.047c-9.035-11.637-23.027-19.055-38.742-19.055-.387 0-.774 0-1.16.012h.058c-16.605.152-31.043 9.281-38.707 22.77l-.117.222c-8.789 5.567-9.809 21.528-13.617 24.328-.797 3.95-1.254 8.485-1.254 13.125 0 26.075 14.437 48.762 35.754 60.528l.351.175c3.95 2.778 1.172 3.07 1.758 5.122-8.812-4.243-16.265-9.961-22.336-16.91l-.07-.083c3.281 5.145 7.16 9.54 11.625 13.254l.094.07c-8.051-2.636-18.598-19.042-21.668-19.769 13.617 24.305 55.36 42.773 77.039 33.68a90.16 90.16 0 0 1-6.41.222c-9.903 0-19.43-1.582-28.348-4.511l.645.187c-4.829-2.344-11.274-7.465-10.254-8.344 9.726 4.207 21.047 6.645 32.941 6.645 20.344 0 39.012-7.149 53.637-19.066l-.153.117c6.446-5.121 13.618-13.77 15.668-13.91-2.93 4.687.586 2.343-1.757 6.445 6.445-10.547-2.93-4.395 6.738-18.164l3.515 4.828c-1.312-8.79 10.84-19.348 9.668-33.129 2.778-4.394 2.93 4.395 0 14.203 4.243-10.84 1.172-12.445 2.192-21.375 1.172 2.52 2.32 5.578 3.246 8.73l.129.493a39.597 39.597 0 0 1-.27-4.746 42.01 42.01 0 0 1 4.477-18.926l-.106.246c-1.312-.727-4.101 4.395-4.687-7.758 0-5.414 1.465-2.93 2.05-4.101a23.618 23.618 0 0 1-5.554-12.493l-.012-.117c1.172-1.898 3.223 4.828 4.98 4.98-1.3-4.523-2.343-9.902-2.894-15.421l-.035-.399c-4.98-9.96-1.758 1.465-5.86-4.394-4.98-15.973 4.395-3.656 4.981-10.84 6.246 10.371 11.203 22.395 14.203 35.18l.164.855c-1.77-9.808-4.254-18.457-7.5-26.719l.329.95c2.343 1.02-3.81-18.176 3.07-5.414-9.434-27.844-28.453-50.332-53.04-64.032l-.585-.293c2.637 2.485 6.152 5.707 4.828 6.153-10.98-6.586-9.082-7.032-10.688-9.809-8.93-3.656-9.515.293-15.527 0-10.137-5.262-21.996-10.008-34.371-13.57l-1.395-.34.727 3.363c-11.273-3.656-13.184 1.465-25.336 0-.738-.586 3.95-2.05 7.758-2.636-10.852 1.464-10.266-2.051-20.953.445a72.18 72.18 0 0 1 7.64-4.5l.41-.188c-8.788.586-21.081 5.121-17.285 1.02-20.812 7.523-38.847 17.379-55.043 29.531l.54-.387-.422-3.222c-6.586 7.91-28.7 23.59-30.457 33.844l-1.922.433c-3.364 5.86-5.567 12.445-8.344 18.469-4.395 7.617-6.586 2.93-5.86 4.101-6.257 12.727-12.035 27.809-16.5 43.454l-.48 1.98c.867 8.098 1.36 17.496 1.36 27.012 0 4.71-.118 9.398-.364 14.05l.024-.656c-.035 1.301-.059 2.836-.059 4.383 0 79.066 50.637 146.309 121.254 171.059l1.266.386c9.504 2.38 20.425 3.75 31.664 3.75 1.687 0 3.375-.035 5.039-.093l-.246.011c-14.496-4.101-16.407-2.191-30.457-7.171-10.254-4.688-12.446-10.254-19.63-16.547l2.93 5.12c-14.214-4.98-8.343-6.152-19.933-9.808l3.07-3.95c-6.082-2.214-11.016-6.386-14.133-11.73l-.07-.128-4.98.14c-6-7.336-9.223-12.75-8.93-17.004l-1.63 2.93c-1.898-3.07-22.253-27.844-11.718-22.125-3.023-2.098-5.496-4.793-7.265-7.934l-.06-.117 2.052-2.484a40.932 40.932 0 0 1-9.024-17.297l-.058-.281c1.535 2.32 3.82 4.043 6.504 4.816l.082.024c-12.891-31.805-13.618-1.758-23.45-32.25l2.192-.293a67.27 67.27 0 0 1-3.621-7.02l-.188-.457.88-8.79c-9.224-10.839-2.638-45.421-1.313-64.464 3.96-11.297 8.308-20.871 13.382-29.988l-.503.972-3.07-.585c5.859-10.395 34.277-42.06 47.46-40.43 6.293-8.051-1.312 0-2.637-2.051 14.063-14.508 18.457-10.254 27.844-12.89 10.254-5.872-8.789 2.343-3.949-2.215 17.578-4.395 12.445-10.254 35.45-12.446 2.343 1.465-5.708 2.051-7.618 3.809 8.426-2.707 18.105-4.278 28.16-4.278 13.992 0 27.281 3.036 39.246 8.473l-.597-.246c28.03 14.941 47.707 42.387 51.656 74.684l.047.468 1.172.293c.28 3.328.445 7.207.445 11.121a141.43 141.43 0 0 1-3.094 29.497l.164-.926 2.93-6.153ZM199.22 18.07l-2.192.434 2.051-.14v-.294Zm-6.153-1.758c2.93.586 6.586 1.02 6.153 1.758 3.363-.726 4.101-1.465-6.293-1.758Zm64.758 143.438c.727-10.559-2.05-7.336-2.93-3.234 1.02.586 1.899 7.324 2.93 3.222Zm-11.437 30.023a40.4 40.4 0 0 0 6.832-15.257l.047-.27c-1.16 4.066-2.813 7.617-4.922 10.84l.094-.152c-10.981 6.879-1.02-3.95 0-8.204-11.72 14.79-1.606 8.79-2.051 13.032Zm-31.36 7.758c-5.859 0 1.172 2.93 8.801 4.102a61.114 61.114 0 0 0 5.73-4.852l-.023.024c-2.836.656-6.094 1.02-9.433 1.02a43.64 43.64 0 0 1-5.274-.317l.211.023Zm0 0"/></svg>