<svg xmlns="http://www.w3.org/2000/svg" width="500" viewBox="0 0 375 375" height="500" version="1.0"><path fill="#6a737d" d="M176.555 107.043c-.254.73-1.434.617-2.102.832-.601.316-1.086.863-1.777.863-.633 0-1.649-.254-1.727-.863-.125-.832 1.117-1.688 1.899-1.688a3.998 3.998 0 0 1 1.714-.374c.57 0 1.11.113 1.598.324l-.031-.008c.223.09.387.305.387.558 0 .028 0 .051-.012.079v.254h.039Zm6.988 0v-.277c-.082-.254.164-.528.367-.63a4.016 4.016 0 0 1 1.594-.323c.621 0 1.21.14 1.726.386l-.02-.011c.802 0 2.032.855 1.9 1.718-.07.617-1.075.832-1.715.832-.704 0-1.168-.547-1.79-.863-.66-.234-1.847-.102-2.07-.824Zm13.734 20.094c-5.402 3.422-11.793 5.828-18.64 6.761l-.242.032c-6.157-.356-11.754-2.52-16.325-5.973l.07.05c-1.949-1.695-3.554-3.402-4.734-4.253-2.082-1.7-1.828-4.227-.933-4.227 1.382.203 1.636 1.696 2.527 2.54 1.219.831 2.734 2.538 4.574 4.226a26.205 26.205 0 0 0 14.727 5.922l.094.008c6.644-.578 12.687-2.711 17.91-6.012l-.164.102c2.476-1.72 5.648-4.239 8.226-5.934 1.98-1.727 1.89-3.39 3.547-3.39 1.625.202.438 1.695-1.871 4.214a100.065 100.065 0 0 1-8.309 5.688l-.445.254ZM106.402 242.32h.121c.7 0 1.391.07 2.063.192l-.07-.008c5.523 1.422 10.074 4.855 12.93 9.457l.05.09 11.55 21.12.04.04c4.644 7.851 9.633 14.648 15.207 20.918l-.11-.133a34.796 34.796 0 0 1 9.235 19.766l.02.164v.082c-.122 8.3-6.227 15.144-14.18 16.414l-.094.012c-2.031.316-4.387.488-6.773.488-8.707 0-16.856-2.367-23.844-6.504l.215.125c-10.7-4.48-23.11-7.254-36.114-7.64h-.152a12.321 12.321 0 0 1-9.152-5.04l-.02-.031c-.55-1.766-.863-3.797-.863-5.91 0-3.555.89-6.899 2.477-9.813l-.051.11v-.051l.031-.04c.414-1.91.66-4.112.66-6.37 0-2.781-.367-5.473-1.058-8.035l.05.214a19.708 19.708 0 0 1-.66-5.097c0-2.461.438-4.809 1.25-6.98l-.039.14c2.031-4.234 5.027-5.078 8.758-6.766 4.45-1.347 8.316-3.39 11.691-6.023l-.082.062h.02v-.03c3.25-3.403 5.648-7.63 8.484-10.638 1.98-2.527 4.996-4.164 8.399-4.265h.02Zm137.278-.62c-.008.175-.008.386-.008.6 0 7.548 4.558 14.028 11.082 16.84l.121.051c.488.032 1.059.051 1.625.051 8.441 0 16-3.765 21.078-9.719l.031-.043 2.684-.12c.539-.083 1.156-.122 1.785-.122a13.1 13.1 0 0 1 8.973 3.535l-.012-.011.04.043a22.846 22.846 0 0 1 4.948 10.988l.02.133c.558 5.133 2.418 9.754 5.254 13.613l-.051-.082c4.223 3.617 7.16 8.637 8.055 14.336l.02.129.038-.09v.223l-.039-.153c-.191 3.32-2.347 5.028-6.316 7.559-12.031 5.047-22.36 11.762-31.258 19.992l.07-.062c-6.175 8.046-15.25 13.601-25.629 15.097l-.214.02c-.75.101-1.625.16-2.508.16-7.801 0-14.508-4.711-17.434-11.438l-.05-.12-.06-.04c-.945-2.906-1.484-6.25-1.484-9.715 0-4.222.801-8.257 2.278-11.964l-.082.222c2.375-6.785 4.418-14.89 5.77-23.242l.109-.844a132.769 132.769 0 0 1 2.62-23.87l-.14.843a18.4 18.4 0 0 1 8.066-12.445l.07-.04.571-.273Zm-27.743-113.712c6.098 21.809 13.602 40.653 22.829 58.48l-.805-1.695c6.226 11.07 11.074 23.922 13.848 37.536l.14.851h.317c2.203 0 4.336.297 6.367.856l-.172-.043c1.117-4.012 1.758-8.614 1.758-13.368 0-14.484-5.961-27.59-15.574-36.964l-.008-.012c-2.793-2.54-2.946-4.254-1.567-4.254 9.864 9.242 17.16 21.105 20.774 34.477l.125.515c.902 3.344 1.422 7.184 1.422 11.145 0 3.566-.418 7.039-1.211 10.363l.062-.305c.75.383 1.625.68 2.551.84l.059.012c13.105 6.777 17.941 11.906 15.613 19.516v-.551c-.762-.04-1.524 0-2.285 0h-.203c1.921-5.93-2.305-10.473-13.52-15.543-11.613-5.078-20.898-4.266-22.473 5.902-.109.5-.191 1.078-.222 1.676v.031c-.742.305-1.625.59-2.54.793l-.113.02c-5.16 3.414-8.836 8.726-10.043 14.922l-.023.144c-1.504 7.059-2.445 15.238-2.598 23.598v.164c-.925 6.469-2.34 12.258-4.246 17.804l.203-.668c-9.988 8.165-22.867 13.102-36.918 13.102-11.476 0-22.183-3.3-31.214-9.008l.242.14a33.876 33.876 0 0 0-5.11-6.776l.012.011a18.554 18.554 0 0 0-3.476-4.215l-.02-.011a20.81 20.81 0 0 0 6.055-.895l-.153.043a7.908 7.908 0 0 0 3.973-4.187l.02-.051c.183-.942.296-2.02.296-3.13 0-4.519-1.78-8.612-4.683-11.64l.008.012c-6.286-7.73-13.805-14.172-22.305-19.098l-.387-.203c-6.816-3.941-11.976-10.11-14.527-17.492l-.07-.223c-.946-3.23-1.497-6.949-1.497-10.789 0-3.586.48-7.062 1.364-10.37l-.063.273c3.832-13.348 9.356-25 16.457-35.516l-.285.438c1.363-.82.469 1.718-5.18 12.363-4.816 7.242-7.691 16.152-7.691 25.73a46.704 46.704 0 0 0 6.258 23.426l-.121-.223c.527-13.296 3.504-25.773 8.472-37.171l-.254.66c10.72-19.32 18.833-41.758 23.11-65.54l.203-1.331c.61.457 2.754 1.718 3.668 2.562 2.762 1.684 4.824 4.223 7.488 5.899a15.018 15.018 0 0 0 10.512 4.27c.215 0 .426 0 .64-.013h-.03c.5.04.956.082 1.394.082 4.66-.093 9.008-1.34 12.789-3.476l-.133.074c3.676-1.7 6.602-4.238 9.395-5.082h.062c5.434-1.473 9.984-4.61 13.207-8.824l.04-.063Zm-35.542-27.195h.09a25.673 25.673 0 0 1 15.41 5.11l-.07-.051c3.84 2.378 8.269 4.398 12.952 5.832l.407.101h.039c2.5 1.117 4.562 2.856 6.035 5.02l.031.05v-1.668c.469.938.75 2.043.75 3.211 0 .997-.203 1.942-.559 2.805l.024-.05c-2.926 5.148-7.672 8.98-13.34 10.644l-.164.043v.02c-3.402 1.714-6.36 4.226-9.832 5.902-3.555 2.133-7.832 3.39-12.414 3.39h-.457.02a14.284 14.284 0 0 1-5.79-.883l.102.032a45.745 45.745 0 0 1-4.234-2.613l.14.101a72.55 72.55 0 0 0-7.508-5.738l-.261-.16v-.063h-.063c-3.808-2.023-6.805-5.121-8.656-8.898l-.05-.121a6.227 6.227 0 0 1-.427-2.297 6.36 6.36 0 0 1 2.856-5.305l.02-.008c2.843-1.719 4.824-3.445 6.136-4.265 1.32-.938 1.816-1.293 2.234-1.668h.02v-.04c2.723-3.445 6.328-6.085 10.484-7.578l.164-.05c1.766-.508 3.797-.805 5.899-.825h.012Zm-17.391-21.656h.457a8.87 8.87 0 0 1 5.09 1.726l-.02-.02a17.542 17.542 0 0 1 4.317 5.79l.039.113c1.148 2.488 1.86 5.383 1.941 8.43v.082a19.364 19.364 0 0 1-.031 3.453l.012-.082v1.016c-.375.093-.711.226-1.059.304a34.922 34.922 0 0 0-5.129 2.621l.14-.078c.083-.558.126-1.199.126-1.851 0-.54-.032-1.075-.094-1.606l.012.063v-.192c-.184-1.566-.551-3-1.086-4.347l.039.109a7.862 7.862 0 0 0-2.102-3.383 3.143 3.143 0 0 0-2.125-.82c-.07 0-.14 0-.21.008h.007-.262a2.984 2.984 0 0 0-2.359 1.656l-.008.02a7.026 7.026 0 0 0-1.523 3.394v.039c-.235.875-.356 1.879-.356 2.918 0 .445.02.89.07 1.328v-.05.195c.16 1.562.528 3.004 1.055 4.347l-.039-.113a8.052 8.052 0 0 0 2.102 3.402c.12.121.265.223.426.305h.011c-.843.54-1.574 1.11-2.246 1.738l.012-.011a3.75 3.75 0 0 1-1.637.855l-.031.008a32.932 32.932 0 0 1-3.402-4.934l-.082-.164c-1.145-2.488-1.86-5.375-1.97-8.43v-.042a19.2 19.2 0 0 1-.062-1.637c0-2.445.399-4.805 1.118-7.008l-.04.164c.75-2.621 1.98-4.887 3.618-6.816l-.02.031a7.122 7.122 0 0 1 5.3-2.543h.013Zm37.605-.75H200.813c2.792 0 5.355.941 7.406 2.527l-.031-.02a19.545 19.545 0 0 1 5.507 6.653l.051.113c1.227 2.703 1.988 5.84 2.102 9.153v.039c0-.254.07-.508.07-.762v1.332l-.05-.266-.052-.304a22.865 22.865 0 0 1-1.96 9.113l.062-.14c-.629 1.652-1.543 3.077-2.703 4.253a7.79 7.79 0 0 0-1.055-.508l-.062-.02a14.272 14.272 0 0 1-3.657-1.718l.051.031a16.21 16.21 0 0 0-2.683-.82l-.11-.023c.82-.77 1.582-1.594 2.285-2.465l.04-.051c.64-1.504 1.035-3.242 1.117-5.07V98.895a15.2 15.2 0 0 0-.813-4.926l.031.11a18.853 18.853 0 0 0-2.355-4.274l.039.05a5.798 5.798 0 0 0-3.363-1.68h-.274c-1.34 0-2.539.665-3.27 1.669l-.011.011a10.065 10.065 0 0 0-2.578 4.165l-.024.07a14.668 14.668 0 0 0-1.136 5.039v.273c.02 1.22.113 2.399.273 3.547l-.02-.152c-2.449-.856-5.554-1.719-7.71-2.563a18.42 18.42 0 0 1-.223-2.507v-.286c-.008-.203-.008-.437-.008-.668 0-3.293.7-6.41 1.969-9.226l-.063.144c1.079-2.836 2.977-5.16 5.407-6.738l.05-.027a12.37 12.37 0 0 1 7.54-2.54Zm-6.714-43.227c-1.97 0-4 .102-6.094.266-53.649 4.226-39.414 61.02-40.238 79.945-.508 14.484-5.426 27.723-13.461 38.52l.132-.184a188.848 188.848 0 0 0-34.039 56.106l-.437 1.289c-2.621 6.96-4.145 14.996-4.145 23.386 0 2.895.184 5.75.528 8.543l-.032-.336a5.428 5.428 0 0 0-1.379 1.688l-.011.031c-3.301 3.402-5.707 7.617-8.422 10.645a30.532 30.532 0 0 1-9.902 5.02l-.215.05c-4.711 1.41-8.551 4.488-10.918 8.543l-.051.09c-1.059 2.152-1.676 4.683-1.676 7.363v.297-.012a35.64 35.64 0 0 0 .738 7.04l-.039-.231c.57 2.222.895 4.785.895 7.414 0 1.726-.145 3.422-.418 5.078l.02-.18c-1.696 3.176-2.68 6.957-2.68 10.969 0 2.824.488 5.527 1.39 8.035l-.05-.164c2.773 3.942 6.968 6.727 11.824 7.61l.113.019c12.942 1.09 24.899 3.79 36.172 7.926l-.953-.305c7.09 4.215 15.633 6.703 24.746 6.703 2.984 0 5.91-.262 8.754-.781l-.293.039c6.777-1.531 12.3-5.953 15.277-11.875l.063-.129c7.457-.043 15.613-3.414 28.687-4.238 8.867-.73 19.98 3.394 32.707 2.539a21.566 21.566 0 0 0 1.504 4.36l-.058-.134.039.043c3.902 8.164 12.09 13.711 21.578 13.711.82 0 1.633-.039 2.437-.12l-.101.011c11.691-1.727 21.726-7.805 28.574-16.488l.07-.09a102.955 102.955 0 0 1 29.512-18.824l.68-.254c4.386-1.942 7.539-5.946 8.226-10.758l.012-.07a25.49 25.49 0 0 0-9.02-17.434l-.043-.031v-1.227l-.039-.043c-2.175-3.351-3.699-7.332-4.277-11.601l-.02-.153c-.539-5.21-2.824-9.812-6.246-13.277h-.043c-.75-.68-1.562-.852-2.386-1.715a4.493 4.493 0 0 0-2.407-.812h-.011c1.98-6.118 3.129-13.145 3.129-20.45 0-9.546-1.961-18.64-5.496-26.89l.171.449c-7.148-16.984-16.445-31.602-27.75-44.383l.141.172c-11.223-10.988-18.57-25.914-19.789-42.531l-.008-.215c.336-27.313 2.996-77.852-44.992-77.922Zm0 0"/></svg>