<svg xmlns="http://www.w3.org/2000/svg" width="500" viewBox="0 0 375 375" height="500" version="1.0"><path fill="#6a737d" d="M281.25 246.094V105.469h-23.438V269.53h93.75v-23.437ZM210.938 105.469h-46.875a23.672 23.672 0 0 0-4.575.449 24.49 24.49 0 0 0-2.23.559c-.735.222-1.457.484-2.164.777-.711.293-1.403.621-2.078.98a23.318 23.318 0 0 0-3.82 2.555c-.594.488-1.165 1-1.708 1.543a23.665 23.665 0 0 0-4.097 5.527c-.36.676-.688 1.368-.98 2.079-.294.707-.556 1.43-.778 2.164a24.49 24.49 0 0 0-.559 2.23 23.524 23.524 0 0 0-.449 4.574v117.188a23.672 23.672 0 0 0 .45 4.574c.152.75.335 1.496.558 2.23.222.735.484 1.457.777 2.165.293.71.621 1.402.98 2.078a23.318 23.318 0 0 0 2.555 3.82c.489.594 1 1.164 1.543 1.707a23.665 23.665 0 0 0 5.528 4.098c.675.359 1.367.687 2.078.98.707.293 1.43.555 2.164.777.734.223 1.48.407 2.23.559a23.524 23.524 0 0 0 4.575.45h11.718v23.437a23.672 23.672 0 0 0 .45 4.574c.152.75.335 1.496.558 2.23.223.735.484 1.457.777 2.164.293.711.621 1.403.98 2.079a23.318 23.318 0 0 0 2.556 3.82c.488.594 1 1.164 1.543 1.707a23.665 23.665 0 0 0 5.527 4.098c.676.359 1.367.687 2.078.98.707.293 1.43.555 2.164.777.734.223 1.48.407 2.23.559a23.524 23.524 0 0 0 4.575.45h23.437v-23.438H199.22V269.53h11.719a23.672 23.672 0 0 0 4.574-.449 24.49 24.49 0 0 0 2.23-.559 23.385 23.385 0 0 0 2.164-.777c.711-.293 1.403-.621 2.078-.98a23.318 23.318 0 0 0 3.82-2.555c.594-.488 1.165-1 1.708-1.543a23.665 23.665 0 0 0 4.097-5.527c.36-.676.688-1.368.98-2.079.294-.707.556-1.43.778-2.164.223-.734.406-1.48.559-2.23a23.524 23.524 0 0 0 .449-4.574V128.906a23.672 23.672 0 0 0-.45-4.574 24.49 24.49 0 0 0-.558-2.23 23.385 23.385 0 0 0-.777-2.165 23.318 23.318 0 0 0-3.535-5.898c-.489-.594-1-1.164-1.543-1.707a23.665 23.665 0 0 0-5.528-4.098 23.462 23.462 0 0 0-2.078-.98 23.385 23.385 0 0 0-2.164-.777 24.49 24.49 0 0 0-2.23-.559 23.524 23.524 0 0 0-4.575-.45Zm-46.875 140.625V128.906h46.875v117.188ZM93.75 269.531H23.437v-23.437H93.75v-46.875H46.875a23.672 23.672 0 0 1-4.574-.45 24.49 24.49 0 0 1-2.23-.558 23.385 23.385 0 0 1-2.165-.777 23.318 23.318 0 0 1-5.898-3.535c-.594-.489-1.164-1-1.707-1.544a23.665 23.665 0 0 1-4.098-5.527 23.462 23.462 0 0 1-.98-2.078 23.385 23.385 0 0 1-.778-2.164 24.49 24.49 0 0 1-.558-2.23 23.524 23.524 0 0 1-.45-4.575v-46.875a23.672 23.672 0 0 1 .45-4.574c.152-.75.336-1.496.558-2.23.223-.735.485-1.457.778-2.165.293-.71.62-1.402.98-2.078a23.318 23.318 0 0 1 2.555-3.82c.488-.594 1-1.164 1.543-1.707a23.665 23.665 0 0 1 5.527-4.098c.676-.359 1.367-.687 2.078-.98.707-.293 1.43-.555 2.164-.777a24.49 24.49 0 0 1 2.23-.559 23.524 23.524 0 0 1 4.575-.45h70.313v23.438H46.874v46.875H93.75a23.672 23.672 0 0 1 4.574.45c.75.152 1.496.335 2.23.558.735.223 1.458.484 2.165.777.71.293 1.402.621 2.078.98a23.318 23.318 0 0 1 3.82 2.556c.594.488 1.164 1 1.707 1.543a23.665 23.665 0 0 1 4.098 5.527c.36.676.687 1.367.98 2.078.293.707.555 1.43.778 2.164a23.524 23.524 0 0 1 1.008 6.805v46.875a23.672 23.672 0 0 1-.45 4.574 24.49 24.49 0 0 1-.558 2.23 23.385 23.385 0 0 1-.778 2.165c-.293.71-.62 1.402-.98 2.078a23.318 23.318 0 0 1-2.555 3.82c-.488.594-1 1.164-1.543 1.707a23.665 23.665 0 0 1-5.527 4.098c-.676.359-1.367.687-2.078.98-.707.293-1.43.555-2.164.777a24.49 24.49 0 0 1-2.23.559 23.524 23.524 0 0 1-4.575.45Zm0 0"/></svg>