<svg xmlns="http://www.w3.org/2000/svg" width="500" viewBox="0 0 375 375" height="500" version="1.0"><path fill="#6a737d" d="M187.5 35.156c-84 0-152.344 68.344-152.344 152.344S103.5 339.844 187.5 339.844 339.844 271.5 339.844 187.5 271.5 35.156 187.5 35.156Zm0 23.438c71.074 0 128.906 57.832 128.906 128.906 0 71.074-57.832 128.906-128.906 128.906-71.074 0-128.906-57.832-128.906-128.906 0-71.074 57.832-128.906 128.906-128.906Zm50.055 59.488c-.856.023-29.45-1.578-46.23 47.629-4.548-3.738-26.087-29.418-49.923-11.652-8.554 6.398-14.203 21.648-1.347 35.98 7.652 8.191 12.062 11.441 10.047 17.992-4.137 13.453-25.09 7.285-23.028.617.61-1.992 1.586-2.027 2.84-5.906 3.492-11.437-12.246-17.031-15.633-6.133-1.945 6.352 1.07 17.828 17.324 22.844 19.032 5.848 35.137-4.527 37.422-18.039 1.453-8.46-2.375-14.742-9.382-22.84l-5.7-6.316c-3.457-3.48-4.648-9.36-1.074-13.871 3.012-3.82 7.309-5.434 14.352-3.524 10.277 2.79 14.855 9.922 22.496 15.676-.551 1.805-4.512 14.594-8.215 37.012-5.461 28.664-9.645 44.398-20.484 53.422-2.18 1.582-5.305 3.91-10.004 4.074-.88.035-6.375-1.274-.914-5.656 6.878-3.762 3.148-15.696-6.73-15.356-4.454.14-11.224 4.317-10.966 11.992.258 7.922 7.637 13.868 18.77 13.48 5.953-.198 19.23-2.609 32.32-18.171 17.988-21.094 21.41-46.145 26.274-73.016 23.332 2.766 34.878-8.05 35.042-16.113.247-10.969-12.66-10.582-14.464-2.379-.868 3.984 6.078 7.574.664 11.078-3.832 2.485-10.715 4.235-20.395 2.817 4.653-25.664 8.633-50.825 26.598-51.41 1.23-.07 5.707.07 5.812 3.023.059 2.437-3.07 4.367-2.953 8.516.176 4.71 3.746 7.785 8.926 7.597 6.926-.246 8.906-6.969 8.79-10.437-.294-8.157-8.88-13.293-20.235-12.93Zm0 0"/></svg>