<svg xmlns="http://www.w3.org/2000/svg" width="500" viewBox="0 0 375 375" height="500" version="1.0"><defs><clipPath id="a"><path d="M32.926 84h309v207h-309Zm0 0"/></clipPath></defs><g clip-path="url(#a)"><path fill="#6a737d" d="M187.426 84.426c-21.133 0-39.305 5.703-53.567 17.93-14.16 12.136-23.422 29.808-28.562 51.828a10.252 10.252 0 0 0 .156 5.27c.168.57.383 1.12.649 1.651a10.294 10.294 0 0 0 2.09 2.852 10.362 10.362 0 0 0 4.613 2.555 10.218 10.218 0 0 0 3.523.265 10.501 10.501 0 0 0 1.746-.324 10.38 10.38 0 0 0 3.196-1.516 10.25 10.25 0 0 0 1.355-1.144c.418-.422.8-.875 1.14-1.36 6.52-9.32 13.036-14.917 19.294-17.792 6.058-2.782 12.59-3.348 20.07-1.34 7.555 2.02 13.398 7.945 22.574 17.926l.297.32c6.918 7.527 15.355 16.703 26.898 23.824 11.973 7.387 26.875 12.356 46.63 12.356 21.132 0 39.304-5.704 53.566-17.93 14.16-12.137 23.422-29.809 28.566-51.832a10.388 10.388 0 0 0 .2-3.531c-.07-.59-.188-1.168-.356-1.739a10.66 10.66 0 0 0-.649-1.652 10.553 10.553 0 0 0-.925-1.516 10.21 10.21 0 0 0-2.55-2.445 10.194 10.194 0 0 0-4.982-1.727 10.255 10.255 0 0 0-3.52.344 10.201 10.201 0 0 0-3.195 1.516c-.484.34-.937.722-1.355 1.144-.418.418-.797.875-1.14 1.36-6.524 9.32-13.036 14.918-19.293 17.789-6.06 2.781-12.59 3.347-20.075 1.344-7.547-2.02-13.394-7.95-22.57-17.926l-.297-.324c-6.918-7.524-15.355-16.704-26.898-23.825-11.973-7.39-26.875-12.351-46.63-12.351Zm-72.102 92.699c-21.133 0-39.304 5.703-53.566 17.93-14.156 12.136-23.422 29.808-28.563 51.832a10.343 10.343 0 0 0 .156 5.266 10.378 10.378 0 0 0 2.743 4.5c.43.413.89.784 1.383 1.113a10.194 10.194 0 0 0 4.98 1.726c.59.047 1.184.04 1.773-.02a9.78 9.78 0 0 0 1.743-.324 10.006 10.006 0 0 0 1.664-.617 9.988 9.988 0 0 0 1.531-.894c.488-.344.937-.723 1.36-1.145.417-.422.796-.875 1.136-1.36 6.523-9.32 13.035-14.917 19.293-17.792 6.059-2.781 12.594-3.344 20.074-1.34 7.551 2.02 13.395 7.945 22.57 17.926l.297.32c6.918 7.527 15.36 16.703 26.899 23.824 11.976 7.39 26.879 12.356 46.629 12.356 21.137 0 39.308-5.703 53.57-17.934 14.156-12.133 23.422-29.805 28.563-51.828.136-.578.218-1.164.253-1.754a10.344 10.344 0 0 0-.41-3.512 10.32 10.32 0 0 0-2.742-4.504 10.233 10.233 0 0 0-2.933-1.976 10.619 10.619 0 0 0-1.676-.578 9.85 9.85 0 0 0-1.75-.285 10.001 10.001 0 0 0-1.778.02 10.366 10.366 0 0 0-3.406.941 10.34 10.34 0 0 0-1.531.898c-.488.34-.938.723-1.36 1.145-.417.421-.796.875-1.136 1.359-6.524 9.32-13.035 14.918-19.293 17.793-6.063 2.777-12.594 3.344-20.078 1.34-7.551-2.02-13.39-7.946-22.567-17.926l-.3-.324c-6.918-7.524-15.352-16.703-26.895-23.82-11.977-7.391-26.879-12.356-46.633-12.356Zm0 0"/></g></svg>