<svg xmlns="http://www.w3.org/2000/svg" width="500" viewBox="0 0 375 375" height="500" version="1.0"><defs><clipPath id="a"><path d="M45.293 80h284.25v219H45.293Zm0 0"/></clipPath></defs><g clip-path="url(#a)"><path fill="#6a737d" d="M134.777 85.008c5.555-5.551 14.559-5.551 20.114 0l75.265 75.265 75.266-75.265c5.55-5.551 14.555-5.551 20.11 0 5.554 5.555 5.554 14.558 0 20.113l-85.321 85.32c-5.555 5.551-14.559 5.551-20.11 0l-75.265-75.265L69.57 190.44c-5.554 5.551-14.558 5.551-20.113 0-5.55-5.554-5.55-14.558 0-20.113ZM73.734 270.445v-23.699c0-7.855-6.367-14.223-14.218-14.223-7.856 0-14.223 6.368-14.223 14.223v52.14h284.402v-52.14c0-7.855-6.367-14.223-14.218-14.223-7.856 0-14.223 6.368-14.223 14.223v23.7h-56.879v-23.7c0-7.855-6.367-14.223-14.219-14.223-7.855 0-14.222 6.368-14.222 14.223v23.7h-56.88v-23.7c0-7.855-6.367-14.223-14.218-14.223-7.856 0-14.223 6.368-14.223 14.223v23.7Zm0 0" fill-rule="evenodd"/></g></svg>