<svg xmlns="http://www.w3.org/2000/svg" width="500" viewBox="0 0 375 375" height="500" version="1.0"><defs><clipPath id="a"><path d="M57.578 57.578h259.5v259.5h-259.5Zm0 0"/></clipPath></defs><g clip-path="url(#a)"><path fill="#6a737d" d="M57.578 70.344c0-7.051 5.453-12.766 12.18-12.766h94.273c6.727 0 12.18 5.715 12.18 12.766v51.058c0 6.903-5.23 12.528-11.766 12.758v22.418l32.106-30.266a13.264 13.264 0 0 1-.934-4.91V70.344c0-7.051 5.453-12.766 12.18-12.766h97.441c6.727 0 12.18 5.715 12.18 12.766v51.058c0 3.547-1.41 6.938-3.89 9.352L125.25 314.004c-2.25 2.195-5.21 3.414-8.285 3.414H93.43c-2.407 0-4.758-.746-6.758-2.145l-11.766-8.222c-3.39-2.367-5.426-6.352-5.426-10.621V134.164c-6.597-.156-11.902-5.809-11.902-12.762Zm24.36 38.297c6.597.152 11.906 5.808 11.906 12.761v168.196l3.273 2.289h15.063l180.879-176.051v-32.73h-73.082v25.53c5.043 0 9.566 3.259 11.375 8.196 1.804 4.934.52 10.523-3.23 14.059l-67.712 63.824c-3.578 3.37-8.71 4.222-13.101 2.172-4.395-2.055-7.223-6.621-7.223-11.66v-63.825c0-6.906 5.23-12.53 11.766-12.757v-25.54H81.937Zm0 0"/></g></svg>