<svg xmlns="http://www.w3.org/2000/svg" width="500" viewBox="0 0 375 375" height="500" version="1.0"><defs><clipPath id="a"><path d="M52.07 56h270.75v263H52.07Zm0 0"/></clipPath></defs><g clip-path="url(#a)"><path fill="#6a737d" d="M247.984 56.727c-1.117.32-2.574.878-3.234 1.234-.66.355-23.41 19.84-50.547 43.305-27.152 23.445-49.668 42.625-50.043 42.625-.37 0-11.238-7.922-24.156-17.606-12.899-9.668-24.172-17.894-25.055-18.25-2.539-1.066-7.922-.844-10.375.406-2.812 1.457-29.304 27.848-30.914 30.813-2.2 4.062-1.93 9.375.68 12.965.695.965 9.734 9.43 20.058 18.793 10.344 9.36 18.743 17.18 18.657 17.367-.067.203-8.38 7.48-18.47 16.2-10.089 8.702-18.991 16.608-19.772 17.538-2.997 3.621-3.489 9.344-1.168 13.61 1.625 2.964 28.085 29.355 30.93 30.828 2.808 1.472 8.413 1.507 11.054.086.996-.528 11.848-8.5 24.105-17.707l22.313-16.727 1.844 1.691c1.015.934 21.82 19.774 46.214 41.864 31.25 28.289 45.133 40.562 46.926 41.527l2.54 1.356h22.82L290 304.863c25.395-12.664 27.762-13.933 29.59-15.945 3.605-4.012 3.336 4.078 3.336-97.137 0-98.539.152-92.566-2.555-96.476-.984-1.422-6.941-5.602-27.664-19.434-14.504-9.683-27.305-18.027-28.437-18.535-1.692-.762-3.168-.95-8.16-1.066-4.012-.086-6.79.066-8.126.457m28.762 39.02 20.871 13.882.02 81.594.015 81.593-20.398 10.16-20.383 10.157h-9.633l-48.566-43.945c-26.715-24.176-49.297-44.286-50.16-44.711-3.367-1.59-8.465-1.707-11.188-.235-.578.305-11.023 8.04-23.226 17.18-12.207 9.16-22.38 16.64-22.602 16.64-.508 0-8.074-7.582-7.805-7.82 11.395-9.765 35.18-30.367 36.942-32.012 1.453-1.37 2.86-3.25 3.555-4.738.964-2.152 1.097-2.945.914-5.808-.172-2.672-.477-3.774-1.543-5.485-.895-1.457-7.684-7.887-20.805-19.754L83.285 144.84l3.914-3.945c2.149-2.184 4.094-3.961 4.332-3.961.219 0 10.903 7.87 23.7 17.488 25.324 19.008 26.019 19.433 30.64 18.89 1.32-.152 3.25-.675 4.285-1.167 1.047-.493 8.512-6.602 16.57-13.579 8.075-6.972 17.118-14.793 20.094-17.367 2.98-2.574 19.637-16.96 37.024-31.996 17.367-15.016 31.691-27.32 31.808-27.32.137-.02 9.618 6.23 21.094 13.863m-27.629 28.39c-.488.102-1.707.489-2.707.864-1 .355-18.265 12.492-38.379 26.965-39.71 28.594-38.816 27.863-39.984 33.062-.438 1.946-.438 2.996 0 4.942 1.152 5.199.289 4.469 39.984 33.062 20.114 14.473 37.48 26.68 38.598 27.102 5.875 2.254 12.578-.488 15.726-6.434l1.204-2.25V133.547l-1.204-2.25c-1.507-2.844-3.62-4.895-6.246-6.027-2.148-.95-5.484-1.489-6.992-1.133m-11.172 76.175-.117 12.817-17.707-12.695c-9.734-6.993-17.707-12.817-17.707-12.934 0-.121 7.973-5.945 17.707-12.934l17.707-12.699.117 12.817c.067 7.043.067 18.586 0 25.629" fill-rule="evenodd"/></g></svg>