<svg xmlns="http://www.w3.org/2000/svg" width="500" viewBox="0 0 375 375" height="500" version="1.0"><path fill="#6a737d" d="M108.215 129.836c17.824-24.465 46.7-40.367 79.285-40.367 29.969 0 56.8 13.453 74.781 34.648-16.039-5.453-33.515 9.723-27.836 27.63l7.535 23.745-20.378 50.371-21.793-54.199-7.543-18.766h6.765c6.371 0 11.531-5.16 11.531-11.53 0-6.368-5.16-11.532-11.53-11.532h-34.598c-6.371 0-11.536 5.164-11.536 11.531 0 6.371 5.165 11.531 11.536 11.531h2.968l9.239 22.973-21.434 51.04-31.086-74.013h5.715c6.367 0 11.531-5.16 11.531-11.53 0-6.368-5.164-11.532-11.531-11.532Zm-10.82 18.992c-5.102 11.863-7.926 24.938-7.926 38.672 0 54.137 43.89 98.027 98.031 98.027 54.137 0 98.027-43.89 98.027-98.027 0-14.059-2.96-27.426-8.289-39.512a21.93 21.93 0 0 1-1.414 5.356l-10.902 26.945-32.66 80.73c-1.766 4.36-6 7.211-10.703 7.208a11.522 11.522 0 0 1-10.688-7.23l-21.996-54.692-23.035 54.855a11.53 11.53 0 0 1-10.633 7.067 11.53 11.53 0 0 1-10.633-7.067ZM187.5 66.406c-66.879 0-121.094 54.215-121.094 121.094 0 66.875 54.215 121.094 121.094 121.094 66.875 0 121.094-54.219 121.094-121.094 0-66.879-54.219-121.094-121.094-121.094Zm0 0" fill-rule="evenodd"/></svg>