<svg xmlns="http://www.w3.org/2000/svg" width="500" viewBox="0 0 375 375" height="500" version="1.0"><path fill="#6a737d" d="m144.754 159.625 87.516 39.871 88.25-77.371a92.188 92.188 0 0 0 1.859-19.43c0-2.61-.102-5.218-.305-7.82a98.805 98.805 0 0 0-7.34-30.32 100.877 100.877 0 0 0-3.308-7.098 98.958 98.958 0 0 0-3.86-6.809 97.282 97.282 0 0 0-4.39-6.484A97.975 97.975 0 0 0 292.93 32.34a97.943 97.943 0 0 0-11.992-10.05 99.093 99.093 0 0 0-13.43-8.031 99.048 99.048 0 0 0-14.531-5.802 98.901 98.901 0 0 0-7.563-2.02 99.208 99.208 0 0 0-15.492-2.207 96.812 96.812 0 0 0-7.824-.175 96.65 96.65 0 0 0-7.817.445 97.672 97.672 0 0 0-7.758 1.066 98.47 98.47 0 0 0-36.199 14.239 98.765 98.765 0 0 0-6.406 4.504 98.645 98.645 0 0 0-21.469 22.633l-14.754 76.199ZM54.2 252.21a95.29 95.29 0 0 0-1.86 19.759c.004 2.62.113 5.242.324 7.855.211 2.613.527 5.215.945 7.801a97.53 97.53 0 0 0 1.563 7.707 97.44 97.44 0 0 0 2.168 7.555 97.548 97.548 0 0 0 2.762 7.36 97.439 97.439 0 0 0 3.336 7.116 96.688 96.688 0 0 0 3.89 6.832 99.042 99.042 0 0 0 20.563 23.621 101.068 101.068 0 0 0 6.23 4.793 100.18 100.18 0 0 0 6.594 4.286 98.199 98.199 0 0 0 6.91 3.746 99.864 99.864 0 0 0 7.184 3.187 99.303 99.303 0 0 0 22.75 6.016c2.597.367 5.203.625 7.824.785 2.617.156 5.234.21 7.86.156a97.455 97.455 0 0 0 7.843-.465 98.87 98.87 0 0 0 22.977-5.09 97.959 97.959 0 0 0 7.308-2.894 96.653 96.653 0 0 0 7.055-3.465 97.998 97.998 0 0 0 13.18-8.55 97.616 97.616 0 0 0 6.039-5.032 99.476 99.476 0 0 0 10.789-11.418 99.918 99.918 0 0 0 4.68-6.316l14.488-75.86-19.352-37.156-87.855-40.043ZM53.7 100.828l59.956 14.145 13.172-68.086a47.409 47.409 0 0 0-3.117-2.18 49.334 49.334 0 0 0-3.281-1.926 48.438 48.438 0 0 0-3.426-1.652 47.586 47.586 0 0 0-3.55-1.371 47.044 47.044 0 0 0-11.141-2.36 47.508 47.508 0 0 0-3.801-.183 47.448 47.448 0 0 0-18.547 3.633 48.428 48.428 0 0 0-3.45 1.601 48.408 48.408 0 0 0-3.312 1.875 46.366 46.366 0 0 0-3.148 2.133 47.089 47.089 0 0 0-2.97 2.379 46.022 46.022 0 0 0-2.769 2.61 48.494 48.494 0 0 0-2.55 2.824 49.396 49.396 0 0 0-2.313 3.02 50.057 50.057 0 0 0-2.066 3.194 49.311 49.311 0 0 0-1.801 3.352 47.49 47.49 0 0 0-2.766 7.082 47.009 47.009 0 0 0-1.598 7.434 47.236 47.236 0 0 0 1.313 18.851 47.7 47.7 0 0 0 1.164 3.625M48.457 115.195c-1.61.532-3.2 1.121-4.762 1.774a64.699 64.699 0 0 0-4.61 2.129 63.898 63.898 0 0 0-4.433 2.48 66.134 66.134 0 0 0-4.23 2.809 67.117 67.117 0 0 0-4 3.129 64.757 64.757 0 0 0-3.746 3.425 66.169 66.169 0 0 0-3.477 3.704 66.685 66.685 0 0 0-6.047 8.152 65.54 65.54 0 0 0-2.535 4.402 64.833 64.833 0 0 0-2.191 4.582 68.088 68.088 0 0 0-1.832 4.735 67.59 67.59 0 0 0-1.461 4.863 65.998 65.998 0 0 0-2.098 15.063 66.628 66.628 0 0 0 .078 5.074c.09 1.695.246 3.379.469 5.058.219 1.68.504 3.348.856 5.008a67.231 67.231 0 0 0 1.234 4.926A66.869 66.869 0 0 0 9.262 206a64.768 64.768 0 0 0 2.332 4.512 64.485 64.485 0 0 0 2.668 4.32 65.488 65.488 0 0 0 6.293 7.961 67.72 67.72 0 0 0 3.586 3.598 66.17 66.17 0 0 0 3.855 3.308 65.503 65.503 0 0 0 8.406 5.684 67.442 67.442 0 0 0 4.508 2.34 65.468 65.468 0 0 0 4.672 1.988l84.145-76-15.372-32.93ZM248.324 327.555a48.749 48.749 0 0 0 3.113 2.172 47.498 47.498 0 0 0 6.703 3.566 47.369 47.369 0 0 0 7.184 2.445 47.867 47.867 0 0 0 7.48 1.266c1.266.11 2.528.168 3.798.176a46.853 46.853 0 0 0 7.566-.559 46.163 46.163 0 0 0 3.727-.73 47.455 47.455 0 0 0 13.964-5.825 48.775 48.775 0 0 0 3.145-2.128 49.288 49.288 0 0 0 2.96-2.38c.954-.831 1.876-1.699 2.763-2.605a49.734 49.734 0 0 0 2.543-2.82 49.253 49.253 0 0 0 2.308-3.016 48.788 48.788 0 0 0 2.059-3.191 46.656 46.656 0 0 0 1.797-3.348 46.594 46.594 0 0 0 2.757-7.066 46.502 46.502 0 0 0 1.594-7.422 47.043 47.043 0 0 0 .387-7.578 47.233 47.233 0 0 0-.832-7.543 46.187 46.187 0 0 0-.867-3.7 48.6 48.6 0 0 0-1.16-3.613l-59.817-14.031ZM260.484 243.926l65.86 15.37c1.61-.526 3.199-1.112 4.765-1.765a64.837 64.837 0 0 0 4.618-2.125 66.65 66.65 0 0 0 8.68-5.285 65.639 65.639 0 0 0 7.761-6.55 64.974 64.974 0 0 0 6.668-7.665 65.76 65.76 0 0 0 5.414-8.597 66.611 66.611 0 0 0 2.2-4.582 66.406 66.406 0 0 0 3.3-9.61 65.384 65.384 0 0 0 1.793-10 66.734 66.734 0 0 0 .238-10.156 64.825 64.825 0 0 0-.469-5.063 64.228 64.228 0 0 0-.855-5.011 65.422 65.422 0 0 0-1.238-4.93 65.186 65.186 0 0 0-1.614-4.82 65.627 65.627 0 0 0-1.976-4.684 67.58 67.58 0 0 0-2.336-4.516 66.273 66.273 0 0 0-2.672-4.324 66.862 66.862 0 0 0-3-4.105 66.349 66.349 0 0 0-6.895-7.457 67.636 67.636 0 0 0-3.859-3.313 66.29 66.29 0 0 0-12.934-8.023 67.46 67.46 0 0 0-4.68-1.985l-86.155 75.516Zm0 0"/></svg>