<svg xmlns="http://www.w3.org/2000/svg" xmlns:xlink="http://www.w3.org/1999/xlink" width="500" zoomAndPan="magnify" viewBox="0 0 375 374.999991" height="500" preserveAspectRatio="xMidYMid meet" version="1.0"><defs><clipPath id="43103f34b6"><path d="M 0 0 L 62.25 0 L 62.25 375 L 0 375 Z M 0 0 " clip-rule="nonzero"/></clipPath><clipPath id="f1c43976d3"><path d="M 0 312.75 L 375 312.75 L 375 375 L 0 375 Z M 0 312.75 " clip-rule="nonzero"/></clipPath><clipPath id="6582a004f0"><path d="M 0 0 L 375 0 L 375 62.25 L 0 62.25 Z M 0 0 " clip-rule="nonzero"/></clipPath><clipPath id="6cc3dc2391"><path d="M 312.746094 0 L 374.996094 0 L 374.996094 375 L 312.746094 375 Z M 312.746094 0 " clip-rule="nonzero"/></clipPath><clipPath id="4f907402ec"><path d="M 55.855469 58.988281 L 313.105469 58.988281 L 313.105469 316.238281 L 55.855469 316.238281 Z M 55.855469 58.988281 " clip-rule="nonzero"/></clipPath><clipPath id="793a5d3a5b"><path d="M 55.855469 89 L 313.105469 89 L 313.105469 316.238281 L 55.855469 316.238281 Z M 55.855469 89 " clip-rule="nonzero"/></clipPath></defs><g clip-path="url(#43103f34b6)"><path fill="#ffffff" d="M 324.429688 -0.203125 C 352.738281 -0.203125 375.6875 22.746094 375.6875 51.054688 L 375.6875 324.429688 C 375.6875 352.738281 352.738281 375.6875 324.429688 375.6875 L 51.054688 375.6875 C 22.746094 375.6875 -0.203125 352.738281 -0.203125 324.429688 L -0.203125 51.054688 C -0.203125 22.746094 22.746094 -0.203125 51.054688 -0.203125 Z M 324.429688 33.96875 C 333.867188 33.96875 341.515625 41.617188 341.515625 51.054688 L 341.515625 324.429688 C 341.515625 333.867188 333.867188 341.515625 324.429688 341.515625 L 51.054688 341.515625 C 41.617188 341.515625 33.96875 333.867188 33.96875 324.429688 L 33.96875 51.054688 C 33.96875 41.617188 41.617188 33.96875 51.054688 33.96875 Z M 324.429688 33.96875 " fill-opacity="1" fill-rule="evenodd"/></g><g clip-path="url(#f1c43976d3)"><path fill="#ffffff" d="M -0.203125 50.570312 C -0.203125 22.261719 22.746094 -0.6875 51.054688 -0.6875 L 324.429688 -0.6875 C 352.738281 -0.6875 375.6875 22.261719 375.6875 50.570312 L 375.6875 323.945312 C 375.6875 352.253906 352.738281 375.203125 324.429688 375.203125 L 51.054688 375.203125 C 22.746094 375.203125 -0.203125 352.25 -0.203125 323.945312 Z M 33.96875 50.570312 C 33.96875 41.132812 41.617188 33.484375 51.054688 33.484375 L 324.429688 33.484375 C 333.867188 33.484375 341.515625 41.132812 341.515625 50.570312 L 341.515625 323.945312 C 341.515625 333.382812 333.867188 341.03125 324.429688 341.03125 L 51.054688 341.03125 C 41.617188 341.03125 33.96875 333.382812 33.96875 323.945312 Z M 33.96875 50.570312 " fill-opacity="1" fill-rule="evenodd"/></g><g clip-path="url(#6582a004f0)"><path fill="#ffffff" d="M 375.203125 324.429688 C 375.203125 352.738281 352.25 375.6875 323.945312 375.6875 L 50.570312 375.6875 C 22.261719 375.6875 -0.6875 352.738281 -0.6875 324.429688 L -0.6875 51.054688 C -0.6875 22.746094 22.261719 -0.203125 50.570312 -0.203125 L 323.945312 -0.203125 C 352.253906 -0.203125 375.203125 22.75 375.203125 51.054688 Z M 341.03125 324.429688 C 341.03125 333.867188 333.382812 341.515625 323.945312 341.515625 L 50.570312 341.515625 C 41.132812 341.515625 33.484375 333.867188 33.484375 324.429688 L 33.484375 51.054688 C 33.484375 41.617188 41.132812 33.96875 50.570312 33.96875 L 323.945312 33.96875 C 333.382812 33.96875 341.03125 41.617188 341.03125 51.054688 Z M 341.03125 324.429688 " fill-opacity="1" fill-rule="evenodd"/></g><g clip-path="url(#6cc3dc2391)"><path fill="#ffffff" d="M 50.566406 375.203125 C 22.257812 375.203125 -0.6875 352.253906 -0.6875 323.945312 L -0.6875 50.570312 C -0.6875 22.261719 22.257812 -0.6875 50.566406 -0.6875 L 323.941406 -0.6875 C 352.25 -0.6875 375.199219 22.261719 375.199219 50.570312 L 375.199219 323.945312 C 375.199219 352.253906 352.25 375.203125 323.941406 375.203125 Z M 50.566406 341.03125 C 41.128906 341.03125 33.480469 333.382812 33.480469 323.945312 L 33.480469 50.570312 C 33.480469 41.132812 41.128906 33.484375 50.566406 33.484375 L 323.941406 33.484375 C 333.378906 33.484375 341.027344 41.132812 341.027344 50.570312 L 341.027344 323.945312 C 341.027344 333.382812 333.378906 341.03125 323.941406 341.03125 Z M 50.566406 341.03125 " fill-opacity="1" fill-rule="evenodd"/></g><g clip-path="url(#4f907402ec)"><path fill="#ffffff" d="M 30.128906 33.265625 L 338.828125 33.265625 L 338.828125 341.964844 L 30.128906 341.964844 Z M 30.128906 33.265625 " fill-opacity="0.01" fill-rule="nonzero"/><path stroke-linecap="round" transform="matrix(6.077527, 0, 0, 6.077534, 46.900309, 41.619559)" fill="none" stroke-linejoin="miter" d="M 29.345123 30.476865 C 31.748315 29.976816 33.929121 29.111051 35.625303 27.839077 C 38.52019 25.667914 39.99977 22.314118 39.99977 19.000171 C 39.99977 16.676038 39.11922 14.506161 37.59272 12.667936 C 36.743023 11.644058 39.229128 4.001284 37.020042 5.030304 C 34.810313 6.059967 31.570277 8.337824 29.87281 7.835204 C 27.955526 7.273453 25.99775 6.995148 24.000124 7.00029 C 22.199819 7.00029 20.468286 7.22332 18.851803 7.634028 C 16.505171 8.231772 14.260092 6.000193 12.000229 5.030304 C 9.739724 4.059773 10.973779 11.96414 10.302762 12.795198 C 8.839893 14.605142 7.999836 16.730028 7.999836 19.000171 C 7.999836 22.314118 9.789858 25.667914 12.68603 27.839719 C 14.616168 29.285875 17.034144 30.208201 19.740065 30.661973 M 19.740065 30.661973 C 18.581854 31.937161 18.002105 33.148076 18.002105 34.294074 L 18.002105 43.01086 " stroke="#ffffff" stroke-width="4" stroke-opacity="1" stroke-miterlimit="4"/></g><g clip-path="url(#793a5d3a5b)"><path stroke-linecap="round" transform="matrix(6.077527, 0, 0, 6.077534, 46.900309, 41.619559)" fill="none" stroke-linejoin="miter" d="M 29.343837 30.476865 C 30.442274 31.917236 30.991172 33.211064 30.991172 34.357062 L 30.991172 43.01086 M 6.000282 31.216011 C 6.898828 31.325919 7.564703 31.739199 7.999836 32.455849 C 8.652214 33.529861 11.074046 37.518038 13.824959 37.518038 L 18.002105 37.518038 " stroke="#ffffff" stroke-width="4" stroke-opacity="1" stroke-miterlimit="4"/></g></svg>