<svg xmlns="http://www.w3.org/2000/svg" xmlns:xlink="http://www.w3.org/1999/xlink" width="500" zoomAndPan="magnify" viewBox="0 0 375 374.999991" height="500" preserveAspectRatio="xMidYMid meet" version="1.0"><defs><clipPath id="50fae9262f"><path d="M 45 44.730469 L 330 44.730469 L 330 330.480469 L 45 330.480469 Z M 45 44.730469 " clip-rule="nonzero"/></clipPath></defs><g clip-path="url(#50fae9262f)"><path fill="#6a737d" d="M 166.082031 44.730469 L 166.082031 121.539062 L 187.5 150.949219 L 208.914062 121.539062 L 208.914062 44.730469 Z M 208.914062 121.539062 L 208.914062 158.089844 L 243.464844 146.667969 L 288.863281 84.703125 L 254.027344 59.292969 Z M 243.464844 146.667969 L 222.046875 176.363281 L 256.882812 187.5 L 329.980469 163.796875 L 316.5625 122.964844 Z M 256.882812 187.5 L 222.046875 198.632812 L 243.464844 228.332031 L 316.5625 252.03125 L 329.984375 211.199219 Z M 243.464844 228.332031 L 208.914062 216.910156 L 208.914062 253.457031 L 254.027344 315.707031 L 288.863281 290.292969 Z M 208.914062 253.457031 L 187.5 224.046875 L 166.082031 253.457031 L 166.082031 330.269531 L 208.914062 330.269531 Z M 166.082031 253.457031 L 166.082031 216.910156 L 131.53125 228.332031 L 86.132812 290.292969 L 120.96875 315.707031 Z M 131.53125 228.332031 L 152.949219 198.632812 L 118.113281 187.5 L 45.015625 211.199219 L 58.433594 252.03125 Z M 118.113281 187.5 L 152.949219 176.363281 L 131.53125 146.667969 L 58.433594 122.964844 L 45.015625 163.796875 Z M 131.53125 146.667969 L 166.082031 158.089844 L 166.082031 121.539062 L 120.96875 59.292969 L 86.132812 84.703125 Z M 131.53125 146.667969 " fill-opacity="1" fill-rule="nonzero"/></g></svg>