<svg xmlns="http://www.w3.org/2000/svg" xmlns:xlink="http://www.w3.org/1999/xlink" width="500" zoomAndPan="magnify" viewBox="0 0 375 374.999991" height="500" preserveAspectRatio="xMidYMid meet" version="1.0"><path fill="#6a737d" d="M 195.375 0 L 195.375 15.984375 L 195.21875 15.75 L 99.8125 70.84375 L 53.390625 70.84375 L 53.390625 82.578125 L 137.125 82.578125 L 137.125 139.421875 L 167.46875 139.421875 L 167.46875 82.5625 L 195.375 82.5625 L 195.375 245.3125 C 195.796875 245.3125 203.8125 245.15625 207.109375 246.734375 L 207.109375 82.578125 L 215.40625 82.578125 L 215.40625 248.328125 C 219.984375 250.625 224 253.203125 227.140625 256.765625 L 227.140625 82.59375 L 321.609375 82.59375 L 321.609375 70.875 L 301.8125 70.875 L 207.109375 16.1875 L 207.109375 0 Z M 195.375 29.21875 L 195.375 70.84375 L 123.265625 70.84375 Z M 207.109375 29.703125 L 278.359375 70.84375 L 207.109375 70.84375 Z M 142.84375 82.578125 L 161.75 82.578125 L 161.75 108.921875 L 142.84375 108.921875 Z M 68.84375 125.234375 L 68.84375 155.71875 L 99.1875 155.71875 L 99.1875 125.25 Z M 103.0625 125.234375 L 103.0625 155.71875 L 133.390625 155.71875 L 133.390625 125.25 Z M 68.84375 159.15625 L 68.84375 189.640625 L 99.1875 189.640625 L 99.1875 159.171875 Z M 103.0625 159.15625 L 103.0625 189.640625 L 133.390625 189.640625 L 133.390625 159.171875 Z M 137.125 159.15625 L 137.125 189.640625 L 167.46875 189.640625 L 167.46875 159.171875 Z M 68.125 194.21875 C 65.601562 198.621094 63.683594 203.273438 62.378906 208.175781 C 61.070312 213.078125 60.410156 218.066406 60.40625 223.140625 C 60.40625 242.3125 69.84375 259.203125 84.15625 269.796875 C 87.890625 268.796875 91.609375 268.234375 95.46875 268.078125 C 97.03125 268.078125 98.046875 268.234375 99.625 268.375 C 104.0625 249.765625 121.234375 237.3125 141.265625 237.3125 C 152.578125 237.3125 163.734375 240.453125 171.328125 247.75 C 174.90625 240.3125 176.046875 232.015625 176.046875 223.140625 C 176.046875 212.984375 173.46875 202.953125 168.328125 194.234375 Z M 143.5625 243.59375 C 124.65625 243.59375 108.78125 256.78125 104.625 274.375 C 103.199219 274.113281 101.765625 274.066406 100.328125 274.234375 C 99.019531 274.230469 97.710938 274.292969 96.40625 274.417969 C 95.101562 274.546875 93.808594 274.734375 92.523438 274.988281 C 91.238281 275.242188 89.964844 275.558594 88.710938 275.933594 C 87.457031 276.3125 86.226562 276.75 85.011719 277.25 C 83.800781 277.75 82.617188 278.308594 81.460938 278.921875 C 80.304688 279.539062 79.183594 280.210938 78.089844 280.9375 C 77 281.664062 75.949219 282.441406 74.933594 283.269531 C 73.917969 284.097656 72.949219 284.976562 72.019531 285.902344 C 71.09375 286.828125 70.210938 287.792969 69.378906 288.804688 C 68.546875 289.816406 67.765625 290.867188 67.035156 291.957031 C 66.308594 293.042969 65.632812 294.164062 65.011719 295.320312 C 64.394531 296.476562 63.832031 297.65625 63.332031 298.867188 C 62.828125 300.078125 62.382812 301.308594 62.003906 302.5625 C 61.621094 303.816406 61.300781 305.082031 61.042969 306.367188 C 60.785156 307.652344 60.59375 308.949219 60.464844 310.25 C 60.332031 311.554688 60.265625 312.863281 60.265625 314.171875 C 60.269531 314.914062 60.292969 315.652344 60.335938 316.394531 C 60.378906 317.132812 60.445312 317.871094 60.527344 318.609375 C 60.613281 319.347656 60.71875 320.078125 60.84375 320.8125 C 60.96875 321.542969 61.117188 322.269531 61.28125 322.992188 C 61.445312 323.714844 61.632812 324.429688 61.839844 325.144531 C 62.042969 325.855469 62.269531 326.5625 62.515625 327.261719 C 62.757812 327.960938 63.023438 328.65625 63.308594 329.339844 C 63.589844 330.023438 63.890625 330.703125 64.214844 331.371094 C 64.535156 332.039062 64.875 332.699219 65.230469 333.347656 C 65.589844 333.996094 65.964844 334.636719 66.355469 335.265625 C 66.75 335.894531 67.160156 336.511719 67.585938 337.117188 C 68.015625 337.722656 68.457031 338.316406 68.917969 338.898438 C 69.378906 339.480469 69.855469 340.046875 70.347656 340.601562 C 70.835938 341.15625 71.34375 341.699219 71.867188 342.226562 C 72.386719 342.753906 72.925781 343.265625 73.472656 343.761719 C 74.023438 344.257812 74.585938 344.738281 75.164062 345.207031 C 75.742188 345.671875 76.332031 346.121094 76.933594 346.554688 C 77.535156 346.988281 78.148438 347.402344 78.773438 347.800781 C 79.398438 348.203125 80.035156 348.582031 80.679688 348.945312 C 81.324219 349.3125 81.980469 349.65625 82.648438 349.984375 C 83.3125 350.3125 83.984375 350.621094 84.667969 350.910156 C 85.351562 351.199219 86.039062 351.472656 86.738281 351.722656 C 87.433594 351.972656 88.140625 352.207031 88.851562 352.417969 C 89.558594 352.632812 90.277344 352.824219 90.996094 352.996094 C 91.71875 353.171875 92.441406 353.324219 93.171875 353.457031 C 93.902344 353.589844 94.632812 353.699219 95.371094 353.792969 C 96.105469 353.886719 96.84375 353.957031 97.582031 354.007812 C 98.324219 354.058594 99.0625 354.089844 99.804688 354.097656 C 100.546875 354.109375 101.289062 354.097656 102.027344 354.066406 C 102.769531 354.035156 103.507812 353.984375 104.246094 353.910156 C 104.984375 353.839844 105.71875 353.746094 106.453125 353.632812 C 107.1875 353.519531 107.914062 353.386719 108.640625 353.234375 C 109.484375 354.859375 110.429688 356.421875 111.488281 357.917969 C 112.542969 359.414062 113.691406 360.835938 114.941406 362.175781 C 116.191406 363.515625 117.523438 364.761719 118.941406 365.921875 C 120.359375 367.078125 121.851562 368.136719 123.414062 369.089844 C 124.976562 370.046875 126.597656 370.890625 128.277344 371.625 C 129.953125 372.355469 131.671875 372.972656 133.433594 373.472656 C 135.199219 373.972656 136.984375 374.351562 138.796875 374.605469 C 140.613281 374.863281 142.433594 374.992188 144.265625 375 C 157.734375 375 169.609375 368.28125 176.921875 358.109375 C 178.375 359.308594 179.90625 360.402344 181.511719 361.386719 C 183.121094 362.371094 184.789062 363.238281 186.519531 363.984375 C 188.25 364.734375 190.027344 365.355469 191.84375 365.855469 C 193.664062 366.351562 195.507812 366.71875 197.378906 366.953125 C 199.246094 367.1875 201.125 367.292969 203.011719 367.261719 C 204.894531 367.230469 206.769531 367.070312 208.628906 366.773438 C 210.492188 366.480469 212.324219 366.054688 214.125 365.5 C 215.929688 364.945312 217.683594 364.265625 219.386719 363.464844 C 221.09375 362.660156 222.734375 361.742188 224.308594 360.707031 C 225.886719 359.671875 227.378906 358.53125 228.792969 357.285156 C 230.207031 356.039062 231.527344 354.699219 232.753906 353.265625 C 233.976562 351.832031 235.09375 350.320312 236.105469 348.726562 C 237.117188 347.136719 238.007812 345.480469 238.785156 343.761719 C 239.5625 342.042969 240.210938 340.28125 240.738281 338.46875 C 241.265625 336.660156 241.660156 334.820312 241.929688 332.957031 C 242.195312 331.089844 242.328125 329.214844 242.328125 327.328125 C 242.328125 318.46875 239.3125 310.15625 234.453125 303.578125 C 235.132812 301.601562 235.65625 299.585938 236.019531 297.53125 C 236.382812 295.472656 236.585938 293.398438 236.625 291.3125 C 236.664062 289.222656 236.539062 287.144531 236.253906 285.074219 C 235.964844 283.003906 235.519531 280.96875 234.910156 278.972656 C 234.304688 276.972656 233.546875 275.03125 232.636719 273.152344 C 231.726562 271.273438 230.675781 269.472656 229.480469 267.757812 C 228.289062 266.042969 226.972656 264.433594 225.523438 262.921875 C 224.078125 261.414062 222.527344 260.027344 220.863281 258.765625 C 219.199219 257.5 217.449219 256.371094 215.609375 255.382812 C 213.769531 254.390625 211.863281 253.550781 209.890625 252.859375 C 207.921875 252.171875 205.90625 251.636719 203.851562 251.261719 C 201.796875 250.886719 199.726562 250.675781 197.636719 250.625 C 195.546875 250.574219 193.46875 250.6875 191.398438 250.964844 C 189.328125 251.238281 187.289062 251.675781 185.289062 252.269531 C 183.285156 252.867188 181.34375 253.613281 179.457031 254.515625 C 177.570312 255.414062 175.769531 256.457031 174.046875 257.640625 C 172.160156 255.441406 170.0625 253.472656 167.75 251.726562 C 165.441406 249.980469 162.96875 248.503906 160.339844 247.292969 C 157.707031 246.082031 154.976562 245.167969 152.148438 244.546875 C 149.320312 243.925781 146.457031 243.613281 143.5625 243.609375 Z M 143.5625 243.59375 " fill-opacity="1" fill-rule="nonzero"/></svg>